<svg xmlns="http://www.w3.org/2000/svg" width="980" height="600" viewBox="0 0 980 600">
<style>text{font-family:Arial,'Liberation Sans',sans-serif;fill:#1f2933}.title{font-size:20px;font-weight:700}.sub{font-size:13px;fill:#52616b}.axis{font-size:13px}.small{font-size:12px}.label{font-size:11px}</style>
<text x="32.0" y="32.0" class="title" text-anchor="start">Возраст первого наблюдаемого выступления в корпусе</text>
<text x="32.0" y="54.0" class="sub" text-anchor="start">Только участники с подтвержденным годом рождения; нисходящий тренд статистически неустойчив.</text>
<rect x="82.0" y="78.0" width="800.0" height="410.0" fill="#fff" stroke="#cfd8e3" opacity="1.0"/>
<line x1="82.0" y1="78.0" x2="82.0" y2="488.0" stroke="#edf1f5" stroke-width="1.0"/>
<text x="82.0" y="512.0" class="axis" text-anchor="middle">2004</text>
<line x1="154.7" y1="78.0" x2="154.7" y2="488.0" stroke="#edf1f5" stroke-width="1.0"/>
<text x="154.7" y="512.0" class="axis" text-anchor="middle">2006</text>
<line x1="227.5" y1="78.0" x2="227.5" y2="488.0" stroke="#edf1f5" stroke-width="1.0"/>
<text x="227.5" y="512.0" class="axis" text-anchor="middle">2008</text>
<line x1="300.2" y1="78.0" x2="300.2" y2="488.0" stroke="#edf1f5" stroke-width="1.0"/>
<text x="300.2" y="512.0" class="axis" text-anchor="middle">2010</text>
<line x1="372.9" y1="78.0" x2="372.9" y2="488.0" stroke="#edf1f5" stroke-width="1.0"/>
<text x="372.9" y="512.0" class="axis" text-anchor="middle">2012</text>
<line x1="445.6" y1="78.0" x2="445.6" y2="488.0" stroke="#edf1f5" stroke-width="1.0"/>
<text x="445.6" y="512.0" class="axis" text-anchor="middle">2014</text>
<line x1="518.4" y1="78.0" x2="518.4" y2="488.0" stroke="#edf1f5" stroke-width="1.0"/>
<text x="518.4" y="512.0" class="axis" text-anchor="middle">2016</text>
<line x1="591.1" y1="78.0" x2="591.1" y2="488.0" stroke="#edf1f5" stroke-width="1.0"/>
<text x="591.1" y="512.0" class="axis" text-anchor="middle">2018</text>
<line x1="663.8" y1="78.0" x2="663.8" y2="488.0" stroke="#edf1f5" stroke-width="1.0"/>
<text x="663.8" y="512.0" class="axis" text-anchor="middle">2020</text>
<line x1="736.5" y1="78.0" x2="736.5" y2="488.0" stroke="#edf1f5" stroke-width="1.0"/>
<text x="736.5" y="512.0" class="axis" text-anchor="middle">2022</text>
<line x1="809.3" y1="78.0" x2="809.3" y2="488.0" stroke="#edf1f5" stroke-width="1.0"/>
<text x="809.3" y="512.0" class="axis" text-anchor="middle">2024</text>
<line x1="882.0" y1="78.0" x2="882.0" y2="488.0" stroke="#edf1f5" stroke-width="1.0"/>
<text x="882.0" y="512.0" class="axis" text-anchor="middle">2026</text>
<line x1="82.0" y1="461.0" x2="882.0" y2="461.0" stroke="#edf1f5" stroke-width="1.0"/>
<text x="72.0" y="465.0" class="axis" text-anchor="end">20</text>
<line x1="82.0" y1="407.1" x2="882.0" y2="407.1" stroke="#edf1f5" stroke-width="1.0"/>
<text x="72.0" y="411.1" class="axis" text-anchor="end">30</text>
<line x1="82.0" y1="353.1" x2="882.0" y2="353.1" stroke="#edf1f5" stroke-width="1.0"/>
<text x="72.0" y="357.1" class="axis" text-anchor="end">40</text>
<line x1="82.0" y1="299.2" x2="882.0" y2="299.2" stroke="#edf1f5" stroke-width="1.0"/>
<text x="72.0" y="303.2" class="axis" text-anchor="end">50</text>
<line x1="82.0" y1="245.2" x2="882.0" y2="245.2" stroke="#edf1f5" stroke-width="1.0"/>
<text x="72.0" y="249.2" class="axis" text-anchor="end">60</text>
<line x1="82.0" y1="191.3" x2="882.0" y2="191.3" stroke="#edf1f5" stroke-width="1.0"/>
<text x="72.0" y="195.3" class="axis" text-anchor="end">70</text>
<line x1="82.0" y1="137.3" x2="882.0" y2="137.3" stroke="#edf1f5" stroke-width="1.0"/>
<text x="72.0" y="141.3" class="axis" text-anchor="end">80</text>
<line x1="82.0" y1="83.4" x2="882.0" y2="83.4" stroke="#edf1f5" stroke-width="1.0"/>
<text x="72.0" y="87.4" class="axis" text-anchor="end">90</text>
<circle cx="191.1" cy="401.7" r="7.5" fill="#2f6fbb" stroke="#fff" stroke-width="1.2"/>
<circle cx="736.5" cy="439.4" r="4.8" fill="#2f6fbb" stroke="#fff" stroke-width="1.2"/>
<circle cx="518.4" cy="401.7" r="5.8" fill="#2f6fbb" stroke="#fff" stroke-width="1.2"/>
<circle cx="554.7" cy="423.3" r="6.8" fill="#7b5ea7" stroke="#fff" stroke-width="1.2"/>
<circle cx="663.8" cy="196.7" r="5.8" fill="#7b5ea7" stroke="#fff" stroke-width="1.2"/>
<circle cx="372.9" cy="310.0" r="5.6" fill="#b8554b" stroke="#fff" stroke-width="1.2"/>
<circle cx="772.9" cy="277.6" r="4.8" fill="#2f6fbb" stroke="#fff" stroke-width="1.2"/>
<circle cx="409.3" cy="417.9" r="6.0" fill="#b8554b" stroke="#fff" stroke-width="1.2"/>
<circle cx="300.2" cy="428.7" r="5.4" fill="#b8554b" stroke="#fff" stroke-width="1.2"/>
<circle cx="372.9" cy="390.9" r="6.5" fill="#2f6fbb" stroke="#fff" stroke-width="1.2"/>
<circle cx="372.9" cy="428.7" r="6.1" fill="#7b5ea7" stroke="#fff" stroke-width="1.2"/>
<circle cx="300.2" cy="428.7" r="6.0" fill="#2f6fbb" stroke="#fff" stroke-width="1.2"/>
<circle cx="154.7" cy="250.6" r="5.8" fill="#2f6fbb" stroke="#fff" stroke-width="1.2"/>
<circle cx="663.8" cy="169.7" r="4.8" fill="#2f6fbb" stroke="#fff" stroke-width="1.2"/>
<circle cx="82.0" cy="380.1" r="8.3" fill="#7b5ea7" stroke="#fff" stroke-width="1.2"/>
<circle cx="82.0" cy="293.8" r="8.0" fill="#7b5ea7" stroke="#fff" stroke-width="1.2"/>
<circle cx="845.6" cy="304.6" r="4.8" fill="#b8554b" stroke="#fff" stroke-width="1.2"/>
<circle cx="882.0" cy="461.0" r="4.8" fill="#2f6fbb" stroke="#fff" stroke-width="1.2"/>
<circle cx="445.6" cy="331.6" r="4.8" fill="#2f6fbb" stroke="#fff" stroke-width="1.2"/>
<circle cx="663.8" cy="407.1" r="5.1" fill="#2f6fbb" stroke="#fff" stroke-width="1.2"/>
<circle cx="154.7" cy="277.6" r="7.3" fill="#2f6fbb" stroke="#fff" stroke-width="1.2"/>
<circle cx="518.4" cy="434.1" r="6.1" fill="#7b5ea7" stroke="#fff" stroke-width="1.2"/>
<circle cx="82.0" cy="229.1" r="7.7" fill="#7b5ea7" stroke="#fff" stroke-width="1.2"/>
<circle cx="700.2" cy="358.5" r="4.8" fill="#b8554b" stroke="#fff" stroke-width="1.2"/>
<circle cx="809.3" cy="342.3" r="4.8" fill="#b8554b" stroke="#fff" stroke-width="1.2"/>
<circle cx="409.3" cy="374.7" r="6.1" fill="#2f6fbb" stroke="#fff" stroke-width="1.2"/>
<circle cx="82.0" cy="363.9" r="6.5" fill="#2f6fbb" stroke="#fff" stroke-width="1.2"/>
<circle cx="627.5" cy="417.9" r="4.8" fill="#2f6fbb" stroke="#fff" stroke-width="1.2"/>
<circle cx="191.1" cy="358.5" r="7.1" fill="#2f6fbb" stroke="#fff" stroke-width="1.2"/>
<circle cx="445.6" cy="412.5" r="4.8" fill="#2f6fbb" stroke="#fff" stroke-width="1.2"/>
<circle cx="82.0" cy="461.0" r="5.8" fill="#2f6fbb" stroke="#fff" stroke-width="1.2"/>
<circle cx="518.4" cy="401.7" r="6.5" fill="#2f6fbb" stroke="#fff" stroke-width="1.2"/>
<circle cx="663.8" cy="396.3" r="4.8" fill="#2f6fbb" stroke="#fff" stroke-width="1.2"/>
<circle cx="627.5" cy="401.7" r="5.8" fill="#2f6fbb" stroke="#fff" stroke-width="1.2"/>
<circle cx="336.5" cy="401.7" r="5.1" fill="#2f6fbb" stroke="#fff" stroke-width="1.2"/>
<circle cx="82.0" cy="202.1" r="5.8" fill="#2f6fbb" stroke="#fff" stroke-width="1.2"/>
<circle cx="191.1" cy="310.0" r="4.8" fill="#2f6fbb" stroke="#fff" stroke-width="1.2"/>
<circle cx="591.1" cy="390.9" r="5.1" fill="#2f6fbb" stroke="#fff" stroke-width="1.2"/>
<circle cx="845.6" cy="444.8" r="4.8" fill="#b8554b" stroke="#fff" stroke-width="1.2"/>
<circle cx="82.0" cy="164.3" r="4.8" fill="#2f6fbb" stroke="#fff" stroke-width="1.2"/>
<circle cx="227.5" cy="401.7" r="7.0" fill="#b8554b" stroke="#fff" stroke-width="1.2"/>
<circle cx="300.2" cy="380.1" r="5.6" fill="#b8554b" stroke="#fff" stroke-width="1.2"/>
<circle cx="409.3" cy="218.3" r="5.8" fill="#2f6fbb" stroke="#fff" stroke-width="1.2"/>
<circle cx="263.8" cy="455.6" r="5.4" fill="#2f6fbb" stroke="#fff" stroke-width="1.2"/>
<circle cx="809.3" cy="455.6" r="5.4" fill="#2f6fbb" stroke="#fff" stroke-width="1.2"/>
<circle cx="845.6" cy="461.0" r="4.8" fill="#b8554b" stroke="#fff" stroke-width="1.2"/>
<circle cx="154.7" cy="374.7" r="7.4" fill="#2f6fbb" stroke="#fff" stroke-width="1.2"/>
<circle cx="445.6" cy="423.3" r="5.1" fill="#2f6fbb" stroke="#fff" stroke-width="1.2"/>
<circle cx="518.4" cy="385.5" r="5.4" fill="#2f6fbb" stroke="#fff" stroke-width="1.2"/>
<circle cx="845.6" cy="342.3" r="5.1" fill="#2f6fbb" stroke="#fff" stroke-width="1.2"/>
<circle cx="82.0" cy="358.5" r="4.8" fill="#2f6fbb" stroke="#fff" stroke-width="1.2"/>
<circle cx="191.1" cy="466.4" r="6.5" fill="#7b5ea7" stroke="#fff" stroke-width="1.2"/>
<circle cx="809.3" cy="434.1" r="5.1" fill="#2f6fbb" stroke="#fff" stroke-width="1.2"/>
<circle cx="845.6" cy="417.9" r="5.1" fill="#2f6fbb" stroke="#fff" stroke-width="1.2"/>
<circle cx="154.7" cy="212.9" r="5.1" fill="#2f6fbb" stroke="#fff" stroke-width="1.2"/>
<circle cx="263.8" cy="363.9" r="5.6" fill="#b8554b" stroke="#fff" stroke-width="1.2"/>
<circle cx="518.4" cy="385.5" r="6.5" fill="#7b5ea7" stroke="#fff" stroke-width="1.2"/>
<circle cx="82.0" cy="293.8" r="6.1" fill="#7b5ea7" stroke="#fff" stroke-width="1.2"/>
<circle cx="300.2" cy="385.5" r="6.0" fill="#b8554b" stroke="#fff" stroke-width="1.2"/>
<circle cx="191.1" cy="342.3" r="4.8" fill="#2f6fbb" stroke="#fff" stroke-width="1.2"/>
<circle cx="191.1" cy="471.8" r="5.4" fill="#2f6fbb" stroke="#fff" stroke-width="1.2"/>
<circle cx="372.9" cy="390.9" r="4.8" fill="#2f6fbb" stroke="#fff" stroke-width="1.2"/>
<circle cx="82.0" cy="407.1" r="7.4" fill="#2f6fbb" stroke="#fff" stroke-width="1.2"/>
<circle cx="809.3" cy="455.6" r="4.8" fill="#b8554b" stroke="#fff" stroke-width="1.2"/>
<circle cx="518.4" cy="407.1" r="5.4" fill="#2f6fbb" stroke="#fff" stroke-width="1.2"/>
<circle cx="372.9" cy="385.5" r="5.6" fill="#b8554b" stroke="#fff" stroke-width="1.2"/>
<circle cx="227.5" cy="374.7" r="8.3" fill="#7b5ea7" stroke="#fff" stroke-width="1.2"/>
<circle cx="736.5" cy="417.9" r="5.1" fill="#2f6fbb" stroke="#fff" stroke-width="1.2"/>
<circle cx="409.3" cy="401.7" r="7.0" fill="#7b5ea7" stroke="#fff" stroke-width="1.2"/>
<circle cx="554.7" cy="434.1" r="5.1" fill="#2f6fbb" stroke="#fff" stroke-width="1.2"/>
<circle cx="882.0" cy="374.7" r="4.8" fill="#2f6fbb" stroke="#fff" stroke-width="1.2"/>
<circle cx="700.2" cy="369.3" r="5.6" fill="#b8554b" stroke="#fff" stroke-width="1.2"/>
<circle cx="700.2" cy="358.5" r="4.8" fill="#2f6fbb" stroke="#fff" stroke-width="1.2"/>
<circle cx="336.5" cy="218.3" r="4.8" fill="#2f6fbb" stroke="#fff" stroke-width="1.2"/>
<circle cx="882.0" cy="342.3" r="4.8" fill="#2f6fbb" stroke="#fff" stroke-width="1.2"/>
<circle cx="372.9" cy="331.6" r="4.8" fill="#2f6fbb" stroke="#fff" stroke-width="1.2"/>
<circle cx="809.3" cy="434.1" r="5.4" fill="#7b5ea7" stroke="#fff" stroke-width="1.2"/>
<circle cx="372.9" cy="407.1" r="5.6" fill="#2f6fbb" stroke="#fff" stroke-width="1.2"/>
<circle cx="554.7" cy="358.5" r="6.4" fill="#7b5ea7" stroke="#fff" stroke-width="1.2"/>
<circle cx="845.6" cy="385.5" r="4.8" fill="#2f6fbb" stroke="#fff" stroke-width="1.2"/>
<circle cx="518.4" cy="396.3" r="4.8" fill="#b8554b" stroke="#fff" stroke-width="1.2"/>
<circle cx="154.7" cy="175.1" r="7.3" fill="#7b5ea7" stroke="#fff" stroke-width="1.2"/>
<circle cx="482.0" cy="450.2" r="4.8" fill="#b8554b" stroke="#fff" stroke-width="1.2"/>
<circle cx="700.2" cy="239.8" r="5.1" fill="#b8554b" stroke="#fff" stroke-width="1.2"/>
<circle cx="482.0" cy="396.3" r="5.6" fill="#b8554b" stroke="#fff" stroke-width="1.2"/>
<circle cx="154.7" cy="417.9" r="7.2" fill="#2f6fbb" stroke="#fff" stroke-width="1.2"/>
<circle cx="627.5" cy="342.3" r="5.6" fill="#7b5ea7" stroke="#fff" stroke-width="1.2"/>
<circle cx="627.5" cy="417.9" r="6.3" fill="#7b5ea7" stroke="#fff" stroke-width="1.2"/>
<circle cx="882.0" cy="353.1" r="4.8" fill="#2f6fbb" stroke="#fff" stroke-width="1.2"/>
<circle cx="445.6" cy="353.1" r="6.4" fill="#2f6fbb" stroke="#fff" stroke-width="1.2"/>
<circle cx="518.4" cy="331.6" r="6.1" fill="#2f6fbb" stroke="#fff" stroke-width="1.2"/>
<circle cx="518.4" cy="299.2" r="6.5" fill="#b8554b" stroke="#fff" stroke-width="1.2"/>
<circle cx="845.6" cy="288.4" r="4.8" fill="#2f6fbb" stroke="#fff" stroke-width="1.2"/>
<circle cx="700.2" cy="412.5" r="5.1" fill="#b8554b" stroke="#fff" stroke-width="1.2"/>
<circle cx="82.0" cy="202.1" r="7.1" fill="#7b5ea7" stroke="#fff" stroke-width="1.2"/>
<circle cx="663.8" cy="245.2" r="4.8" fill="#2f6fbb" stroke="#fff" stroke-width="1.2"/>
<circle cx="409.3" cy="261.4" r="6.3" fill="#2f6fbb" stroke="#fff" stroke-width="1.2"/>
<circle cx="227.5" cy="342.3" r="7.2" fill="#b8554b" stroke="#fff" stroke-width="1.2"/>
<circle cx="845.6" cy="315.4" r="4.8" fill="#b8554b" stroke="#fff" stroke-width="1.2"/>
<circle cx="772.9" cy="417.9" r="5.1" fill="#2f6fbb" stroke="#fff" stroke-width="1.2"/>
<circle cx="372.9" cy="212.9" r="5.6" fill="#2f6fbb" stroke="#fff" stroke-width="1.2"/>
<circle cx="845.6" cy="336.9" r="4.8" fill="#b8554b" stroke="#fff" stroke-width="1.2"/>
<circle cx="663.8" cy="423.3" r="5.4" fill="#7b5ea7" stroke="#fff" stroke-width="1.2"/>
<circle cx="445.6" cy="385.5" r="4.8" fill="#2f6fbb" stroke="#fff" stroke-width="1.2"/>
<circle cx="372.9" cy="229.1" r="6.0" fill="#7b5ea7" stroke="#fff" stroke-width="1.2"/>
<circle cx="154.7" cy="256.0" r="4.8" fill="#2f6fbb" stroke="#fff" stroke-width="1.2"/>
<circle cx="627.5" cy="385.5" r="6.5" fill="#7b5ea7" stroke="#fff" stroke-width="1.2"/>
<circle cx="554.7" cy="396.3" r="6.5" fill="#2f6fbb" stroke="#fff" stroke-width="1.2"/>
<circle cx="300.2" cy="380.1" r="5.1" fill="#2f6fbb" stroke="#fff" stroke-width="1.2"/>
<circle cx="882.0" cy="239.8" r="4.8" fill="#2f6fbb" stroke="#fff" stroke-width="1.2"/>
<circle cx="372.9" cy="444.8" r="5.1" fill="#b8554b" stroke="#fff" stroke-width="1.2"/>
<circle cx="409.3" cy="326.2" r="6.3" fill="#2f6fbb" stroke="#fff" stroke-width="1.2"/>
<circle cx="809.3" cy="336.9" r="4.8" fill="#b8554b" stroke="#fff" stroke-width="1.2"/>
<circle cx="372.9" cy="428.7" r="6.0" fill="#2f6fbb" stroke="#fff" stroke-width="1.2"/>
<circle cx="263.8" cy="363.9" r="5.8" fill="#2f6fbb" stroke="#fff" stroke-width="1.2"/>
<circle cx="82.0" cy="239.8" r="7.6" fill="#7b5ea7" stroke="#fff" stroke-width="1.2"/>
<circle cx="154.7" cy="444.8" r="6.3" fill="#7b5ea7" stroke="#fff" stroke-width="1.2"/>
<circle cx="700.2" cy="412.5" r="4.8" fill="#2f6fbb" stroke="#fff" stroke-width="1.2"/>
<circle cx="845.6" cy="385.5" r="4.8" fill="#b8554b" stroke="#fff" stroke-width="1.2"/>
<circle cx="154.7" cy="261.4" r="4.8" fill="#2f6fbb" stroke="#fff" stroke-width="1.2"/>
<circle cx="300.2" cy="434.1" r="6.3" fill="#2f6fbb" stroke="#fff" stroke-width="1.2"/>
<circle cx="845.6" cy="444.8" r="5.1" fill="#2f6fbb" stroke="#fff" stroke-width="1.2"/>
<circle cx="300.2" cy="444.8" r="6.8" fill="#7b5ea7" stroke="#fff" stroke-width="1.2"/>
<circle cx="845.6" cy="444.8" r="4.8" fill="#2f6fbb" stroke="#fff" stroke-width="1.2"/>
<circle cx="227.5" cy="369.3" r="6.5" fill="#2f6fbb" stroke="#fff" stroke-width="1.2"/>
<circle cx="154.7" cy="369.3" r="7.1" fill="#7b5ea7" stroke="#fff" stroke-width="1.2"/>
<circle cx="336.5" cy="428.7" r="6.1" fill="#2f6fbb" stroke="#fff" stroke-width="1.2"/>
<circle cx="882.0" cy="320.8" r="4.8" fill="#2f6fbb" stroke="#fff" stroke-width="1.2"/>
<circle cx="663.8" cy="396.3" r="4.8" fill="#2f6fbb" stroke="#fff" stroke-width="1.2"/>
<circle cx="882.0" cy="320.8" r="4.8" fill="#2f6fbb" stroke="#fff" stroke-width="1.2"/>
<circle cx="227.5" cy="407.1" r="7.2" fill="#b8554b" stroke="#fff" stroke-width="1.2"/>
<circle cx="518.4" cy="358.5" r="6.5" fill="#7b5ea7" stroke="#fff" stroke-width="1.2"/>
<circle cx="845.6" cy="363.9" r="4.8" fill="#b8554b" stroke="#fff" stroke-width="1.2"/>
<circle cx="882.0" cy="347.7" r="4.8" fill="#2f6fbb" stroke="#fff" stroke-width="1.2"/>
<circle cx="82.0" cy="105.0" r="5.1" fill="#2f6fbb" stroke="#fff" stroke-width="1.2"/>
<circle cx="82.0" cy="256.0" r="7.5" fill="#2f6fbb" stroke="#fff" stroke-width="1.2"/>
<circle cx="82.0" cy="310.0" r="6.7" fill="#7b5ea7" stroke="#fff" stroke-width="1.2"/>
<circle cx="845.6" cy="245.2" r="4.8" fill="#b8554b" stroke="#fff" stroke-width="1.2"/>
<circle cx="772.9" cy="439.4" r="5.6" fill="#2f6fbb" stroke="#fff" stroke-width="1.2"/>
<circle cx="482.0" cy="293.8" r="6.3" fill="#7b5ea7" stroke="#fff" stroke-width="1.2"/>
<circle cx="591.1" cy="310.0" r="6.4" fill="#2f6fbb" stroke="#fff" stroke-width="1.2"/>
<circle cx="882.0" cy="461.0" r="4.8" fill="#2f6fbb" stroke="#fff" stroke-width="1.2"/>
<circle cx="663.8" cy="374.7" r="5.1" fill="#2f6fbb" stroke="#fff" stroke-width="1.2"/>
<circle cx="882.0" cy="331.6" r="4.8" fill="#2f6fbb" stroke="#fff" stroke-width="1.2"/>
<circle cx="263.8" cy="390.9" r="6.3" fill="#2f6fbb" stroke="#fff" stroke-width="1.2"/>
<circle cx="809.3" cy="261.4" r="4.8" fill="#b8554b" stroke="#fff" stroke-width="1.2"/>
<circle cx="518.4" cy="450.2" r="5.1" fill="#2f6fbb" stroke="#fff" stroke-width="1.2"/>
<circle cx="663.8" cy="396.3" r="4.8" fill="#2f6fbb" stroke="#fff" stroke-width="1.2"/>
<circle cx="154.7" cy="304.6" r="5.4" fill="#2f6fbb" stroke="#fff" stroke-width="1.2"/>
<circle cx="845.6" cy="450.2" r="4.8" fill="#b8554b" stroke="#fff" stroke-width="1.2"/>
<circle cx="554.7" cy="304.6" r="5.8" fill="#2f6fbb" stroke="#fff" stroke-width="1.2"/>
<circle cx="700.2" cy="331.6" r="5.1" fill="#2f6fbb" stroke="#fff" stroke-width="1.2"/>
<circle cx="627.5" cy="407.1" r="5.4" fill="#2f6fbb" stroke="#fff" stroke-width="1.2"/>
<circle cx="227.5" cy="185.9" r="6.8" fill="#b8554b" stroke="#fff" stroke-width="1.2"/>
<circle cx="82.0" cy="304.6" r="6.3" fill="#2f6fbb" stroke="#fff" stroke-width="1.2"/>
<circle cx="227.5" cy="196.7" r="7.0" fill="#2f6fbb" stroke="#fff" stroke-width="1.2"/>
<circle cx="663.8" cy="385.5" r="5.4" fill="#2f6fbb" stroke="#fff" stroke-width="1.2"/>
<circle cx="845.6" cy="369.3" r="4.8" fill="#b8554b" stroke="#fff" stroke-width="1.2"/>
<circle cx="82.0" cy="396.3" r="4.8" fill="#2f6fbb" stroke="#fff" stroke-width="1.2"/>
<circle cx="554.7" cy="412.5" r="5.6" fill="#2f6fbb" stroke="#fff" stroke-width="1.2"/>
<circle cx="882.0" cy="380.1" r="4.8" fill="#2f6fbb" stroke="#fff" stroke-width="1.2"/>
<circle cx="336.5" cy="218.3" r="5.1" fill="#2f6fbb" stroke="#fff" stroke-width="1.2"/>
<circle cx="154.7" cy="266.8" r="7.2" fill="#2f6fbb" stroke="#fff" stroke-width="1.2"/>
<circle cx="191.1" cy="412.5" r="8.2" fill="#7b5ea7" stroke="#fff" stroke-width="1.2"/>
<circle cx="154.7" cy="417.9" r="6.8" fill="#2f6fbb" stroke="#fff" stroke-width="1.2"/>
<circle cx="845.6" cy="288.4" r="4.8" fill="#b8554b" stroke="#fff" stroke-width="1.2"/>
<circle cx="591.1" cy="390.9" r="5.8" fill="#2f6fbb" stroke="#fff" stroke-width="1.2"/>
<circle cx="627.5" cy="450.2" r="4.8" fill="#2f6fbb" stroke="#fff" stroke-width="1.2"/>
<circle cx="663.8" cy="380.1" r="5.6" fill="#2f6fbb" stroke="#fff" stroke-width="1.2"/>
<circle cx="809.3" cy="185.9" r="5.1" fill="#b8554b" stroke="#fff" stroke-width="1.2"/>
<circle cx="227.5" cy="277.6" r="5.6" fill="#b8554b" stroke="#fff" stroke-width="1.2"/>
<circle cx="445.6" cy="396.3" r="4.8" fill="#2f6fbb" stroke="#fff" stroke-width="1.2"/>
<circle cx="809.3" cy="434.1" r="5.6" fill="#7b5ea7" stroke="#fff" stroke-width="1.2"/>
<circle cx="627.5" cy="363.9" r="6.1" fill="#7b5ea7" stroke="#fff" stroke-width="1.2"/>
<circle cx="882.0" cy="272.2" r="4.8" fill="#2f6fbb" stroke="#fff" stroke-width="1.2"/>
<circle cx="263.8" cy="347.7" r="5.8" fill="#2f6fbb" stroke="#fff" stroke-width="1.2"/>
<circle cx="263.8" cy="401.7" r="6.3" fill="#b8554b" stroke="#fff" stroke-width="1.2"/>
<circle cx="809.3" cy="428.7" r="5.1" fill="#b8554b" stroke="#fff" stroke-width="1.2"/>
<circle cx="82.0" cy="385.5" r="8.1" fill="#7b5ea7" stroke="#fff" stroke-width="1.2"/>
<circle cx="227.5" cy="342.3" r="7.1" fill="#b8554b" stroke="#fff" stroke-width="1.2"/>
<circle cx="591.1" cy="358.5" r="6.1" fill="#2f6fbb" stroke="#fff" stroke-width="1.2"/>
<circle cx="300.2" cy="148.1" r="5.8" fill="#b8554b" stroke="#fff" stroke-width="1.2"/>
<circle cx="82.0" cy="175.1" r="6.7" fill="#2f6fbb" stroke="#fff" stroke-width="1.2"/>
<circle cx="300.2" cy="444.8" r="5.1" fill="#b8554b" stroke="#fff" stroke-width="1.2"/>
<circle cx="518.4" cy="444.8" r="4.8" fill="#b8554b" stroke="#fff" stroke-width="1.2"/>
<circle cx="372.9" cy="310.0" r="4.8" fill="#b8554b" stroke="#fff" stroke-width="1.2"/>
<circle cx="227.5" cy="277.6" r="7.2" fill="#7b5ea7" stroke="#fff" stroke-width="1.2"/>
<circle cx="736.5" cy="369.3" r="4.8" fill="#2f6fbb" stroke="#fff" stroke-width="1.2"/>
<circle cx="445.6" cy="277.6" r="7.1" fill="#7b5ea7" stroke="#fff" stroke-width="1.2"/>
<circle cx="882.0" cy="369.3" r="4.8" fill="#2f6fbb" stroke="#fff" stroke-width="1.2"/>
<circle cx="82.0" cy="158.9" r="6.0" fill="#2f6fbb" stroke="#fff" stroke-width="1.2"/>
<circle cx="227.5" cy="223.7" r="6.9" fill="#7b5ea7" stroke="#fff" stroke-width="1.2"/>
<circle cx="663.8" cy="412.5" r="4.8" fill="#2f6fbb" stroke="#fff" stroke-width="1.2"/>
<circle cx="263.8" cy="326.2" r="7.1" fill="#b8554b" stroke="#fff" stroke-width="1.2"/>
<circle cx="663.8" cy="229.1" r="4.8" fill="#2f6fbb" stroke="#fff" stroke-width="1.2"/>
<circle cx="554.7" cy="407.1" r="6.4" fill="#b8554b" stroke="#fff" stroke-width="1.2"/>
<circle cx="409.3" cy="455.6" r="6.4" fill="#7b5ea7" stroke="#fff" stroke-width="1.2"/>
<circle cx="772.9" cy="428.7" r="4.8" fill="#b8554b" stroke="#fff" stroke-width="1.2"/>
<circle cx="482.0" cy="245.2" r="4.8" fill="#b8554b" stroke="#fff" stroke-width="1.2"/>
<circle cx="372.9" cy="380.1" r="4.8" fill="#b8554b" stroke="#fff" stroke-width="1.2"/>
<circle cx="409.3" cy="245.2" r="6.0" fill="#7b5ea7" stroke="#fff" stroke-width="1.2"/>
<circle cx="227.5" cy="336.9" r="8.2" fill="#7b5ea7" stroke="#fff" stroke-width="1.2"/>
<circle cx="263.8" cy="347.7" r="6.7" fill="#2f6fbb" stroke="#fff" stroke-width="1.2"/>
<circle cx="882.0" cy="396.3" r="4.8" fill="#2f6fbb" stroke="#fff" stroke-width="1.2"/>
<circle cx="845.6" cy="434.1" r="4.8" fill="#b8554b" stroke="#fff" stroke-width="1.2"/>
<circle cx="191.1" cy="412.5" r="7.6" fill="#7b5ea7" stroke="#fff" stroke-width="1.2"/>
<circle cx="882.0" cy="266.8" r="4.8" fill="#2f6fbb" stroke="#fff" stroke-width="1.2"/>
<circle cx="736.5" cy="444.8" r="5.6" fill="#2f6fbb" stroke="#fff" stroke-width="1.2"/>
<circle cx="845.6" cy="358.5" r="4.8" fill="#2f6fbb" stroke="#fff" stroke-width="1.2"/>
<circle cx="154.7" cy="245.2" r="6.1" fill="#7b5ea7" stroke="#fff" stroke-width="1.2"/>
<circle cx="845.6" cy="185.9" r="4.8" fill="#b8554b" stroke="#fff" stroke-width="1.2"/>
<circle cx="845.6" cy="347.7" r="4.8" fill="#2f6fbb" stroke="#fff" stroke-width="1.2"/>
<circle cx="300.2" cy="245.2" r="6.1" fill="#2f6fbb" stroke="#fff" stroke-width="1.2"/>
<circle cx="82.0" cy="320.8" r="5.8" fill="#2f6fbb" stroke="#fff" stroke-width="1.2"/>
<circle cx="191.1" cy="272.2" r="7.1" fill="#2f6fbb" stroke="#fff" stroke-width="1.2"/>
<circle cx="882.0" cy="390.9" r="4.8" fill="#2f6fbb" stroke="#fff" stroke-width="1.2"/>
<circle cx="300.2" cy="121.2" r="5.1" fill="#b8554b" stroke="#fff" stroke-width="1.2"/>
<circle cx="482.0" cy="385.5" r="4.8" fill="#b8554b" stroke="#fff" stroke-width="1.2"/>
<text x="89.0" y="374.1" class="label" text-anchor="start">Тавастшерна С. С.</text>
<text x="234.5" y="368.7" class="label" text-anchor="start">Корнеева Н. А.</text>
<text x="198.1" y="406.5" class="label" text-anchor="start">Цветкова С. О.</text>
<text x="234.5" y="330.9" class="label" text-anchor="start">Александрова Н. В.</text>
<text x="89.0" y="379.5" class="label" text-anchor="start">Рыжакова С. И.</text>
<text x="89.0" y="287.8" class="label" text-anchor="start">Лысенко В. Г.</text>
<text x="89.0" y="223.1" class="label" text-anchor="start">Дубянский А. М.</text>
<text x="89.0" y="233.8" class="label" text-anchor="start">Васильков Я. В.</text>
<text x="198.1" y="406.5" class="label" text-anchor="start">Мехакян А. Г.</text>
<text x="198.1" y="395.7" class="label" text-anchor="start">Псху Р. В.</text>
<text x="482.0" y="562.0" class="axis" text-anchor="middle">Год первого выступления</text>
<text x="20.0" y="283.0" class="axis" text-anchor="middle">Возраст</text>
<circle cx="700.0" cy="92.0" r="6.0" fill="#7b5ea7" stroke="#fff" stroke-width="1.2"/>
<text x="716.0" y="96.0" class="small" text-anchor="start">обе площадки</text>
<circle cx="700.0" cy="116.0" r="6.0" fill="#2f6fbb" stroke="#fff" stroke-width="1.2"/>
<text x="716.0" y="120.0" class="small" text-anchor="start">только Зограф</text>
<circle cx="700.0" cy="140.0" r="6.0" fill="#b8554b" stroke="#fff" stroke-width="1.2"/>
<text x="716.0" y="144.0" class="small" text-anchor="start">только Рерих</text>
</svg>
