<svg xmlns="http://www.w3.org/2000/svg" width="640" height="400" viewBox="0 0 640 400" font-family="Georgia, serif">
<rect width="640" height="400" fill="white"/>
<line x1="55" y1="20" x2="55" y2="355" stroke="#333"/>
<line x1="55" y1="355" x2="620" y2="355" stroke="#333"/>
<text x="47" y="359.0" text-anchor="end" font-size="11">0%</text>
<line x1="55" y1="355.0" x2="620" y2="355.0" stroke="#eee"/>
<text x="47" y="275.2" text-anchor="end" font-size="11">25%</text>
<line x1="55" y1="271.2" x2="620" y2="271.2" stroke="#eee"/>
<text x="47" y="191.5" text-anchor="end" font-size="11">50%</text>
<line x1="55" y1="187.5" x2="620" y2="187.5" stroke="#eee"/>
<text x="47" y="107.8" text-anchor="end" font-size="11">75%</text>
<line x1="55" y1="103.8" x2="620" y2="103.8" stroke="#eee"/>
<text x="47" y="24.0" text-anchor="end" font-size="11">100%</text>
<line x1="55" y1="20.0" x2="620" y2="20.0" stroke="#eee"/>
<path d="M 55.0 20.0 L 55.0 20.0 L 55.0 125.8 L 90.3 125.8 L 90.3 143.2 L 125.6 143.2 L 125.6 148.5 L 160.9 148.5 L 160.9 164.4 L 196.2 164.4 L 196.2 167.1 L 231.6 167.1 L 231.6 175.1 L 302.2 175.1 L 302.2 184.0 L 337.5 184.0 L 337.5 194.0 L 372.8 194.0 L 372.8 201.4 L 408.1 201.4 L 408.1 212.3 L 478.8 212.3 L 478.8 219.7 L 514.1 219.7 L 514.1 227.6 L 584.7 227.6 L 584.7 237.4 L 620.0 237.4 L 620.0 243.9" fill="none" stroke="#2980b9" stroke-width="2.2"/>
<text x="480" y="40" fill="#2980b9" font-size="13">Зограф</text>
<path d="M 55.0 20.0 L 55.0 20.0 L 55.0 87.7 L 90.3 87.7 L 90.3 92.4 L 125.6 92.4 L 125.6 102.9 L 160.9 102.9 L 160.9 113.4 L 196.2 113.4 L 196.2 124.4 L 231.6 124.4 L 231.6 140.9 L 266.9 140.9 L 266.9 183.7 L 302.2 183.7 L 302.2 221.8 L 337.5 221.8 L 337.5 235.1 L 372.8 235.1 L 372.8 242.1 L 408.1 242.1 L 408.1 250.2" fill="none" stroke="#c0392b" stroke-width="2.2"/>
<text x="480" y="58" fill="#c0392b" font-size="13">Рерих</text>
<text x="55" y="388" font-size="12" fill="#333">лет от дебюта до последнего выступления</text>
<text x="14" y="178" font-size="12" fill="#333" transform="rotate(-90 14 178)">доля ещё активных</text>
</svg>
