<svg xmlns="http://www.w3.org/2000/svg" width="640" height="400" viewBox="0 0 640 400" font-family="Georgia, serif">
<rect width="640" height="400" fill="white"/>
<line x1="55" y1="20" x2="55" y2="355" stroke="#333"/>
<line x1="55" y1="355" x2="620" y2="355" stroke="#333"/>
<text x="47" y="359.0" text-anchor="end" font-size="11">0%</text>
<line x1="55" y1="355.0" x2="620" y2="355.0" stroke="#eee"/>
<text x="47" y="275.2" text-anchor="end" font-size="11">25%</text>
<line x1="55" y1="271.2" x2="620" y2="271.2" stroke="#eee"/>
<text x="47" y="191.5" text-anchor="end" font-size="11">50%</text>
<line x1="55" y1="187.5" x2="620" y2="187.5" stroke="#eee"/>
<text x="47" y="107.8" text-anchor="end" font-size="11">75%</text>
<line x1="55" y1="103.8" x2="620" y2="103.8" stroke="#eee"/>
<text x="47" y="24.0" text-anchor="end" font-size="11">100%</text>
<line x1="55" y1="20.0" x2="620" y2="20.0" stroke="#eee"/>
<path d="M 55.0 20.0 L 55.0 20.0 L 55.0 116.3 L 90.3 116.3 L 90.3 134.1 L 125.6 134.1 L 125.6 139.5 L 160.9 139.5 L 160.9 155.6 L 196.2 155.6 L 196.2 158.3 L 231.6 158.3 L 231.6 166.5 L 266.9 166.5 L 266.9 169.3 L 302.2 169.3 L 302.2 178.3 L 337.5 178.3 L 337.5 188.5 L 372.8 188.5 L 372.8 195.9 L 408.1 195.9 L 408.1 207.0 L 478.8 207.0 L 478.8 214.4 L 514.1 214.4 L 514.1 222.4 L 549.4 222.4 L 549.4 227.0 L 584.7 227.0 L 584.7 236.8 L 620.0 236.8 L 620.0 243.4" fill="none" stroke="#2980b9" stroke-width="2.2"/>
<text x="480" y="40" fill="#2980b9" font-size="13">Зограф</text>
<path d="M 55.0 20.0 L 55.0 20.0 L 55.0 82.6 L 90.3 82.6 L 90.3 87.4 L 125.6 87.4 L 125.6 98.4 L 160.9 98.4 L 160.9 109.3 L 196.2 109.3 L 196.2 120.7 L 231.6 120.7 L 231.6 137.9 L 266.9 137.9 L 266.9 182.6 L 302.2 182.6 L 302.2 209.1 L 337.5 209.1 L 337.5 222.4 L 372.8 222.4 L 372.8 229.3 L 408.1 229.3 L 408.1 245.0" fill="none" stroke="#c0392b" stroke-width="2.2"/>
<text x="480" y="58" fill="#c0392b" font-size="13">Рерих</text>
<text x="55" y="388" font-size="12" fill="#333">лет от дебюта до последнего выступления</text>
<text x="14" y="178" font-size="12" fill="#333" transform="rotate(-90 14 178)">доля ещё активных</text>
</svg>
