<svg xmlns="http://www.w3.org/2000/svg" width="640" height="400" viewBox="0 0 640 400" font-family="Georgia, serif">
<rect width="640" height="400" fill="white"/>
<line x1="55" y1="20" x2="55" y2="355" stroke="#333"/>
<line x1="55" y1="355" x2="620" y2="355" stroke="#333"/>
<text x="47" y="359.0" text-anchor="end" font-size="11">0%</text>
<line x1="55" y1="355.0" x2="620" y2="355.0" stroke="#eee"/>
<text x="47" y="275.2" text-anchor="end" font-size="11">25%</text>
<line x1="55" y1="271.2" x2="620" y2="271.2" stroke="#eee"/>
<text x="47" y="191.5" text-anchor="end" font-size="11">50%</text>
<line x1="55" y1="187.5" x2="620" y2="187.5" stroke="#eee"/>
<text x="47" y="107.8" text-anchor="end" font-size="11">75%</text>
<line x1="55" y1="103.8" x2="620" y2="103.8" stroke="#eee"/>
<text x="47" y="24.0" text-anchor="end" font-size="11">100%</text>
<line x1="55" y1="20.0" x2="620" y2="20.0" stroke="#eee"/>
<path d="M 55.0 20.0 L 55.0 20.0 L 55.0 126.1 L 90.3 126.1 L 90.3 141.4 L 125.6 141.4 L 125.6 159.5 L 160.9 159.5 L 160.9 169.8 L 196.2 169.8 L 196.2 174.1 L 231.6 174.1 L 231.6 193.2 L 266.9 193.2 L 266.9 199.6 L 302.2 199.6 L 302.2 206.2 L 337.5 206.2 L 337.5 208.5 L 372.8 208.5 L 372.8 215.8 L 408.1 215.8 L 408.1 220.9 L 443.4 220.9 L 443.4 223.6 L 478.8 223.6 L 478.8 226.4 L 514.1 226.4 L 514.1 229.3 L 549.4 229.3 L 549.4 235.9 L 584.7 235.9 L 584.7 250.0 L 620.0 250.0 L 620.0 253.7" fill="none" stroke="#2980b9" stroke-width="2.2"/>
<text x="480" y="40" fill="#2980b9" font-size="13">Зограф</text>
<path d="M 55.0 20.0 L 55.0 20.0 L 55.0 67.4 L 90.3 67.4 L 90.3 76.0 L 125.6 76.0 L 125.6 94.6 L 160.9 94.6 L 160.9 99.2 L 196.2 99.2 L 196.2 114.0 L 231.6 114.0 L 231.6 133.7 L 266.9 133.7 L 266.9 176.9 L 337.5 176.9 L 337.5 182.3 L 372.8 182.3 L 372.8 193.4 L 408.1 193.4 L 408.1 199.2 L 443.4 199.2 L 443.4 228.0 L 478.8 228.0 L 478.8 251.1 L 549.4 251.1 L 549.4 258.5" fill="none" stroke="#c0392b" stroke-width="2.2"/>
<text x="480" y="58" fill="#c0392b" font-size="13">Рерих</text>
<text x="55" y="388" font-size="12" fill="#333">лет от дебюта до последнего выступления</text>
<text x="14" y="178" font-size="12" fill="#333" transform="rotate(-90 14 178)">доля ещё активных</text>
</svg>
