<svg xmlns="http://www.w3.org/2000/svg" width="1000" height="620" viewBox="0 0 1000 620">
<style>text{font-family:Arial,'Liberation Sans',sans-serif;fill:#1f2933}.title{font-size:20px;font-weight:700}.sub{font-size:13px;fill:#52616b}.axis{font-size:13px}.small{font-size:12px}.label{font-size:11px}</style>
<text x="32.0" y="30.0" class="title" text-anchor="start">Сессионная центральность участников</text>
<text x="32.0" y="52.0" class="sub" text-anchor="start">Betweenness в графе, где ребро означает участие в одной программной сессии; результат предварительный.</text>
<text x="238.0" y="93.0" class="small" text-anchor="end">Рыжакова С. И.</text>
<rect x="250.0" y="76.0" width="650.0" height="18.0" fill="#7b5ea7" stroke="none" opacity="1.0"/>
<text x="908.0" y="90.0" class="label" text-anchor="start">0.112779</text>
<text x="238.0" y="121.0" class="small" text-anchor="end">Лысенко В. Г.</text>
<rect x="250.0" y="104.0" width="386.5" height="18.0" fill="#7b5ea7" stroke="none" opacity="1.0"/>
<text x="644.5" y="118.0" class="label" text-anchor="start">0.067057</text>
<text x="238.0" y="149.0" class="small" text-anchor="end">Цветкова С. О.</text>
<rect x="250.0" y="132.0" width="375.0" height="18.0" fill="#7b5ea7" stroke="none" opacity="1.0"/>
<text x="633.0" y="146.0" class="label" text-anchor="start">0.06507</text>
<text x="238.0" y="177.0" class="small" text-anchor="end">Шомахмадов С. Х.</text>
<rect x="250.0" y="160.0" width="353.3" height="18.0" fill="#2f6fbb" stroke="none" opacity="1.0"/>
<text x="611.3" y="174.0" class="label" text-anchor="start">0.061304</text>
<text x="238.0" y="205.0" class="small" text-anchor="end">Тавастшерна С. С.</text>
<rect x="250.0" y="188.0" width="275.3" height="18.0" fill="#7b5ea7" stroke="none" opacity="1.0"/>
<text x="533.3" y="202.0" class="label" text-anchor="start">0.047773</text>
<text x="238.0" y="233.0" class="small" text-anchor="end">Александрова Н. В.</text>
<rect x="250.0" y="216.0" width="273.4" height="18.0" fill="#7b5ea7" stroke="none" opacity="1.0"/>
<text x="531.4" y="230.0" class="label" text-anchor="start">0.047444</text>
<text x="238.0" y="261.0" class="small" text-anchor="end">Васильков Я. В.</text>
<rect x="250.0" y="244.0" width="268.8" height="18.0" fill="#2f6fbb" stroke="none" opacity="1.0"/>
<text x="526.8" y="258.0" class="label" text-anchor="start">0.046632</text>
<text x="238.0" y="289.0" class="small" text-anchor="end">Корнеева Н. А.</text>
<rect x="250.0" y="272.0" width="251.0" height="18.0" fill="#7b5ea7" stroke="none" opacity="1.0"/>
<text x="509.0" y="286.0" class="label" text-anchor="start">0.043552</text>
<text x="238.0" y="317.0" class="small" text-anchor="end">Ю. И. Дробышев</text>
<rect x="250.0" y="300.0" width="233.3" height="18.0" fill="#b8554b" stroke="none" opacity="1.0"/>
<text x="491.3" y="314.0" class="label" text-anchor="start">0.040475</text>
<text x="238.0" y="345.0" class="small" text-anchor="end">Лидова Н. Р.</text>
<rect x="250.0" y="328.0" width="220.5" height="18.0" fill="#7b5ea7" stroke="none" opacity="1.0"/>
<text x="478.5" y="342.0" class="label" text-anchor="start">0.038265</text>
<text x="238.0" y="373.0" class="small" text-anchor="end">Псху Р. В.</text>
<rect x="250.0" y="356.0" width="189.4" height="18.0" fill="#2f6fbb" stroke="none" opacity="1.0"/>
<text x="447.4" y="370.0" class="label" text-anchor="start">0.032859</text>
<text x="238.0" y="401.0" class="small" text-anchor="end">Парибок А. В.</text>
<rect x="250.0" y="384.0" width="167.3" height="18.0" fill="#2f6fbb" stroke="none" opacity="1.0"/>
<text x="425.3" y="398.0" class="label" text-anchor="start">0.029024</text>
<text x="238.0" y="429.0" class="small" text-anchor="end">Скороходова Т. Г.</text>
<rect x="250.0" y="412.0" width="158.1" height="18.0" fill="#2f6fbb" stroke="none" opacity="1.0"/>
<text x="416.1" y="426.0" class="label" text-anchor="start">0.027427</text>
<text x="238.0" y="457.0" class="small" text-anchor="end">А. М. Шустова</text>
<rect x="250.0" y="440.0" width="155.4" height="18.0" fill="#b8554b" stroke="none" opacity="1.0"/>
<text x="413.4" y="454.0" class="label" text-anchor="start">0.026962</text>
<text x="238.0" y="485.0" class="small" text-anchor="end">Мехакян А. Г.</text>
<rect x="250.0" y="468.0" width="153.9" height="18.0" fill="#7b5ea7" stroke="none" opacity="1.0"/>
<text x="411.9" y="482.0" class="label" text-anchor="start">0.026698</text>
<text x="250.0" y="588.0" class="sub" text-anchor="start">Цвет: обе площадки / только Зограф / только Рерих</text>
</svg>
