<svg xmlns="http://www.w3.org/2000/svg" width="1000" height="620" viewBox="0 0 1000 620">
<style>text{font-family:Arial,'Liberation Sans',sans-serif;fill:#1f2933}.title{font-size:20px;font-weight:700}.sub{font-size:13px;fill:#52616b}.axis{font-size:13px}.small{font-size:12px}.label{font-size:11px}</style>
<text x="32.0" y="30.0" class="title" text-anchor="start">Сессионная центральность участников</text>
<text x="32.0" y="52.0" class="sub" text-anchor="start">Betweenness в графе, где ребро означает участие в одной программной сессии; результат предварительный.</text>
<text x="238.0" y="93.0" class="small" text-anchor="end">Рыжакова С. И.</text>
<rect x="250.0" y="76.0" width="650.0" height="18.0" fill="#7b5ea7" stroke="none" opacity="1.0"/>
<text x="908.0" y="90.0" class="label" text-anchor="start">0.066527</text>
<text x="238.0" y="121.0" class="small" text-anchor="end">Лысенко В. Г.</text>
<rect x="250.0" y="104.0" width="603.9" height="18.0" fill="#7b5ea7" stroke="none" opacity="1.0"/>
<text x="861.9" y="118.0" class="label" text-anchor="start">0.061813</text>
<text x="238.0" y="149.0" class="small" text-anchor="end">Васильков Я. В.</text>
<rect x="250.0" y="132.0" width="537.8" height="18.0" fill="#7b5ea7" stroke="none" opacity="1.0"/>
<text x="795.8" y="146.0" class="label" text-anchor="start">0.055047</text>
<text x="238.0" y="177.0" class="small" text-anchor="end">Цветкова С. О.</text>
<rect x="250.0" y="160.0" width="535.2" height="18.0" fill="#7b5ea7" stroke="none" opacity="1.0"/>
<text x="793.2" y="174.0" class="label" text-anchor="start">0.054782</text>
<text x="238.0" y="205.0" class="small" text-anchor="end">Корнеева Н. А.</text>
<rect x="250.0" y="188.0" width="510.2" height="18.0" fill="#7b5ea7" stroke="none" opacity="1.0"/>
<text x="768.2" y="202.0" class="label" text-anchor="start">0.052216</text>
<text x="238.0" y="233.0" class="small" text-anchor="end">Тавастшерна С. С.</text>
<rect x="250.0" y="216.0" width="447.9" height="18.0" fill="#7b5ea7" stroke="none" opacity="1.0"/>
<text x="705.9" y="230.0" class="label" text-anchor="start">0.04584</text>
<text x="238.0" y="261.0" class="small" text-anchor="end">Ю. И. Дробышев</text>
<rect x="250.0" y="244.0" width="441.8" height="18.0" fill="#b8554b" stroke="none" opacity="1.0"/>
<text x="699.8" y="258.0" class="label" text-anchor="start">0.045213</text>
<text x="238.0" y="289.0" class="small" text-anchor="end">Лидова Н. Р.</text>
<rect x="250.0" y="272.0" width="353.1" height="18.0" fill="#7b5ea7" stroke="none" opacity="1.0"/>
<text x="611.1" y="286.0" class="label" text-anchor="start">0.036137</text>
<text x="238.0" y="317.0" class="small" text-anchor="end">Александрова Н. В.</text>
<rect x="250.0" y="300.0" width="343.2" height="18.0" fill="#7b5ea7" stroke="none" opacity="1.0"/>
<text x="601.2" y="314.0" class="label" text-anchor="start">0.03513</text>
<text x="238.0" y="345.0" class="small" text-anchor="end">Скороходова Т. Г.</text>
<rect x="250.0" y="328.0" width="269.6" height="18.0" fill="#2f6fbb" stroke="none" opacity="1.0"/>
<text x="527.6" y="342.0" class="label" text-anchor="start">0.027593</text>
<text x="238.0" y="373.0" class="small" text-anchor="end">Альбедиль М. Ф.</text>
<rect x="250.0" y="356.0" width="255.3" height="18.0" fill="#2f6fbb" stroke="none" opacity="1.0"/>
<text x="513.3" y="370.0" class="label" text-anchor="start">0.026134</text>
<text x="238.0" y="401.0" class="small" text-anchor="end">Дубянский А. М.</text>
<rect x="250.0" y="384.0" width="255.1" height="18.0" fill="#7b5ea7" stroke="none" opacity="1.0"/>
<text x="513.1" y="398.0" class="label" text-anchor="start">0.026112</text>
<text x="238.0" y="429.0" class="small" text-anchor="end">Ермакова Т. В.</text>
<rect x="250.0" y="412.0" width="250.7" height="18.0" fill="#2f6fbb" stroke="none" opacity="1.0"/>
<text x="508.7" y="426.0" class="label" text-anchor="start">0.02566</text>
<text x="238.0" y="457.0" class="small" text-anchor="end">Мехакян А. Г.</text>
<rect x="250.0" y="440.0" width="239.1" height="18.0" fill="#7b5ea7" stroke="none" opacity="1.0"/>
<text x="497.1" y="454.0" class="label" text-anchor="start">0.024471</text>
<text x="238.0" y="485.0" class="small" text-anchor="end">Челнокова А. В.</text>
<rect x="250.0" y="468.0" width="237.3" height="18.0" fill="#2f6fbb" stroke="none" opacity="1.0"/>
<text x="495.3" y="482.0" class="label" text-anchor="start">0.024284</text>
<text x="250.0" y="588.0" class="sub" text-anchor="start">Цвет: обе площадки / только Зограф / только Рерих</text>
</svg>
