<svg xmlns="http://www.w3.org/2000/svg" width="1000" height="620" viewBox="0 0 1000 620">
<style>text{font-family:Arial,'Liberation Sans',sans-serif;fill:#1f2933}.title{font-size:20px;font-weight:700}.sub{font-size:13px;fill:#52616b}.axis{font-size:13px}.small{font-size:12px}.label{font-size:11px}</style>
<text x="32.0" y="30.0" class="title" text-anchor="start">Сетевые посредники по совместному участию в событиях</text>
<text x="32.0" y="52.0" class="sub" text-anchor="start">Betweenness в графе, где ребро означает участие в одном и том же годовом событии.</text>
<text x="238.0" y="93.0" class="small" text-anchor="end">Тавастшерна С. С.</text>
<rect x="250.0" y="76.0" width="650.0" height="18.0" fill="#7b5ea7" stroke="none" opacity="1.0"/>
<text x="908.0" y="90.0" class="label" text-anchor="start">0.043285</text>
<text x="238.0" y="121.0" class="small" text-anchor="end">Цветкова С. О.</text>
<rect x="250.0" y="104.0" width="641.0" height="18.0" fill="#7b5ea7" stroke="none" opacity="1.0"/>
<text x="899.0" y="118.0" class="label" text-anchor="start">0.042687</text>
<text x="238.0" y="149.0" class="small" text-anchor="end">Рыжакова С. И.</text>
<rect x="250.0" y="132.0" width="584.4" height="18.0" fill="#7b5ea7" stroke="none" opacity="1.0"/>
<text x="842.4" y="146.0" class="label" text-anchor="start">0.038919</text>
<text x="238.0" y="177.0" class="small" text-anchor="end">Александрова Н. В.</text>
<rect x="250.0" y="160.0" width="516.6" height="18.0" fill="#7b5ea7" stroke="none" opacity="1.0"/>
<text x="774.6" y="174.0" class="label" text-anchor="start">0.034401</text>
<text x="238.0" y="205.0" class="small" text-anchor="end">Лысенко В. Г.</text>
<rect x="250.0" y="188.0" width="495.8" height="18.0" fill="#7b5ea7" stroke="none" opacity="1.0"/>
<text x="753.8" y="202.0" class="label" text-anchor="start">0.033015</text>
<text x="238.0" y="233.0" class="small" text-anchor="end">Корнеева Н. А.</text>
<rect x="250.0" y="216.0" width="461.8" height="18.0" fill="#7b5ea7" stroke="none" opacity="1.0"/>
<text x="719.8" y="230.0" class="label" text-anchor="start">0.030751</text>
<text x="238.0" y="261.0" class="small" text-anchor="end">Лидова Н. Р.</text>
<rect x="250.0" y="244.0" width="427.7" height="18.0" fill="#7b5ea7" stroke="none" opacity="1.0"/>
<text x="685.7" y="258.0" class="label" text-anchor="start">0.028482</text>
<text x="238.0" y="289.0" class="small" text-anchor="end">Парибок А. В.</text>
<rect x="250.0" y="272.0" width="255.8" height="18.0" fill="#2f6fbb" stroke="none" opacity="1.0"/>
<text x="513.8" y="286.0" class="label" text-anchor="start">0.017035</text>
<text x="238.0" y="317.0" class="small" text-anchor="end">Дубянский А. М.</text>
<rect x="250.0" y="300.0" width="255.4" height="18.0" fill="#7b5ea7" stroke="none" opacity="1.0"/>
<text x="513.4" y="314.0" class="label" text-anchor="start">0.017005</text>
<text x="238.0" y="345.0" class="small" text-anchor="end">Игнатьев А. А.</text>
<rect x="250.0" y="328.0" width="231.6" height="18.0" fill="#2f6fbb" stroke="none" opacity="1.0"/>
<text x="489.6" y="342.0" class="label" text-anchor="start">0.01542</text>
<text x="238.0" y="373.0" class="small" text-anchor="end">Десницкая Е. А.</text>
<rect x="250.0" y="356.0" width="218.2" height="18.0" fill="#2f6fbb" stroke="none" opacity="1.0"/>
<text x="476.2" y="370.0" class="label" text-anchor="start">0.014533</text>
<text x="238.0" y="401.0" class="small" text-anchor="end">Васильков Я. В.</text>
<rect x="250.0" y="384.0" width="208.0" height="18.0" fill="#2f6fbb" stroke="none" opacity="1.0"/>
<text x="466.0" y="398.0" class="label" text-anchor="start">0.013853</text>
<text x="238.0" y="429.0" class="small" text-anchor="end">Шохин В. К.</text>
<rect x="250.0" y="412.0" width="174.6" height="18.0" fill="#7b5ea7" stroke="none" opacity="1.0"/>
<text x="432.6" y="426.0" class="label" text-anchor="start">0.011625</text>
<text x="238.0" y="457.0" class="small" text-anchor="end">Воробьева Д. Н.</text>
<rect x="250.0" y="440.0" width="168.1" height="18.0" fill="#7b5ea7" stroke="none" opacity="1.0"/>
<text x="426.1" y="454.0" class="label" text-anchor="start">0.011192</text>
<text x="238.0" y="485.0" class="small" text-anchor="end">Псху Р. В.</text>
<rect x="250.0" y="468.0" width="161.4" height="18.0" fill="#2f6fbb" stroke="none" opacity="1.0"/>
<text x="419.4" y="482.0" class="label" text-anchor="start">0.010749</text>
<text x="250.0" y="588.0" class="sub" text-anchor="start">Цвет: обе площадки / только Зограф / только Рерих</text>
</svg>
