<svg xmlns="http://www.w3.org/2000/svg" width="1000" height="620" viewBox="0 0 1000 620">
<style>text{font-family:Arial,'Liberation Sans',sans-serif;fill:#1f2933}.title{font-size:20px;font-weight:700}.sub{font-size:13px;fill:#52616b}.axis{font-size:13px}.small{font-size:12px}.label{font-size:11px}</style>
<text x="32.0" y="30.0" class="title" text-anchor="start">Сессионная центральность участников</text>
<text x="32.0" y="52.0" class="sub" text-anchor="start">Betweenness в графе, где ребро означает участие в одной программной сессии; результат предварительный.</text>
<text x="238.0" y="93.0" class="small" text-anchor="end">Рыжакова С. И.</text>
<rect x="250.0" y="76.0" width="650.0" height="18.0" fill="#7b5ea7" stroke="none" opacity="1.0"/>
<text x="908.0" y="90.0" class="label" text-anchor="start">0.06741</text>
<text x="238.0" y="121.0" class="small" text-anchor="end">Лысенко В. Г.</text>
<rect x="250.0" y="104.0" width="590.3" height="18.0" fill="#7b5ea7" stroke="none" opacity="1.0"/>
<text x="848.3" y="118.0" class="label" text-anchor="start">0.061222</text>
<text x="238.0" y="149.0" class="small" text-anchor="end">Цветкова С. О.</text>
<rect x="250.0" y="132.0" width="505.5" height="18.0" fill="#7b5ea7" stroke="none" opacity="1.0"/>
<text x="763.5" y="146.0" class="label" text-anchor="start">0.052422</text>
<text x="238.0" y="177.0" class="small" text-anchor="end">Васильков Я. В.</text>
<rect x="250.0" y="160.0" width="503.4" height="18.0" fill="#7b5ea7" stroke="none" opacity="1.0"/>
<text x="761.4" y="174.0" class="label" text-anchor="start">0.052205</text>
<text x="238.0" y="205.0" class="small" text-anchor="end">Корнеева Н. А.</text>
<rect x="250.0" y="188.0" width="503.1" height="18.0" fill="#7b5ea7" stroke="none" opacity="1.0"/>
<text x="761.1" y="202.0" class="label" text-anchor="start">0.052177</text>
<text x="238.0" y="233.0" class="small" text-anchor="end">Тавастшерна С. С.</text>
<rect x="250.0" y="216.0" width="443.0" height="18.0" fill="#7b5ea7" stroke="none" opacity="1.0"/>
<text x="701.0" y="230.0" class="label" text-anchor="start">0.045943</text>
<text x="238.0" y="261.0" class="small" text-anchor="end">Ю. И. Дробышев</text>
<rect x="250.0" y="244.0" width="439.9" height="18.0" fill="#b8554b" stroke="none" opacity="1.0"/>
<text x="697.9" y="258.0" class="label" text-anchor="start">0.045625</text>
<text x="238.0" y="289.0" class="small" text-anchor="end">Лидова Н. Р.</text>
<rect x="250.0" y="272.0" width="351.5" height="18.0" fill="#7b5ea7" stroke="none" opacity="1.0"/>
<text x="609.5" y="286.0" class="label" text-anchor="start">0.036457</text>
<text x="238.0" y="317.0" class="small" text-anchor="end">Александрова Н. В.</text>
<rect x="250.0" y="300.0" width="330.9" height="18.0" fill="#7b5ea7" stroke="none" opacity="1.0"/>
<text x="588.9" y="314.0" class="label" text-anchor="start">0.034317</text>
<text x="238.0" y="345.0" class="small" text-anchor="end">Альбедиль М. Ф.</text>
<rect x="250.0" y="328.0" width="256.4" height="18.0" fill="#2f6fbb" stroke="none" opacity="1.0"/>
<text x="514.4" y="342.0" class="label" text-anchor="start">0.02659</text>
<text x="238.0" y="373.0" class="small" text-anchor="end">Дубянский А. М.</text>
<rect x="250.0" y="356.0" width="254.1" height="18.0" fill="#7b5ea7" stroke="none" opacity="1.0"/>
<text x="512.1" y="370.0" class="label" text-anchor="start">0.026352</text>
<text x="238.0" y="401.0" class="small" text-anchor="end">Скороходова Т. Г.</text>
<rect x="250.0" y="384.0" width="249.9" height="18.0" fill="#2f6fbb" stroke="none" opacity="1.0"/>
<text x="507.9" y="398.0" class="label" text-anchor="start">0.025918</text>
<text x="238.0" y="429.0" class="small" text-anchor="end">Ермакова Т. В.</text>
<rect x="250.0" y="412.0" width="245.3" height="18.0" fill="#2f6fbb" stroke="none" opacity="1.0"/>
<text x="503.3" y="426.0" class="label" text-anchor="start">0.025444</text>
<text x="238.0" y="457.0" class="small" text-anchor="end">Мехакян А. Г.</text>
<rect x="250.0" y="440.0" width="238.7" height="18.0" fill="#7b5ea7" stroke="none" opacity="1.0"/>
<text x="496.7" y="454.0" class="label" text-anchor="start">0.024756</text>
<text x="238.0" y="485.0" class="small" text-anchor="end">Челнокова А. В.</text>
<rect x="250.0" y="468.0" width="235.4" height="18.0" fill="#2f6fbb" stroke="none" opacity="1.0"/>
<text x="493.4" y="482.0" class="label" text-anchor="start">0.024415</text>
<text x="250.0" y="588.0" class="sub" text-anchor="start">Цвет: обе площадки / только Зограф / только Рерих</text>
</svg>
