<svg xmlns="http://www.w3.org/2000/svg" width="640" height="380" viewBox="0 0 640 380" font-family="Georgia, serif">
<rect width="640" height="380" fill="white"/>
<rect x="50.0" y="339.6" width="19.4" height="0.4" fill="#9bb4c9"/>
<rect x="70.4" y="339.1" width="19.4" height="0.9" fill="#9bb4c9"/>
<rect x="90.7" y="338.9" width="19.4" height="1.1" fill="#9bb4c9"/>
<rect x="111.1" y="333.0" width="19.4" height="7.0" fill="#9bb4c9"/>
<rect x="131.4" y="332.3" width="19.4" height="7.7" fill="#9bb4c9"/>
<rect x="151.8" y="319.5" width="19.4" height="20.5" fill="#9bb4c9"/>
<rect x="172.1" y="306.2" width="19.4" height="33.8" fill="#9bb4c9"/>
<rect x="192.5" y="288.8" width="19.4" height="51.2" fill="#9bb4c9"/>
<rect x="212.9" y="255.2" width="19.4" height="84.8" fill="#9bb4c9"/>
<rect x="233.2" y="209.8" width="19.4" height="130.2" fill="#9bb4c9"/>
<rect x="253.6" y="162.3" width="19.4" height="177.7" fill="#9bb4c9"/>
<rect x="273.9" y="106.1" width="19.4" height="233.9" fill="#9bb4c9"/>
<rect x="294.3" y="71.1" width="19.4" height="268.9" fill="#9bb4c9"/>
<rect x="314.6" y="35.0" width="19.4" height="305.0" fill="#9bb4c9"/>
<rect x="335.0" y="20.0" width="19.4" height="320.0" fill="#9bb4c9"/>
<rect x="355.4" y="42.7" width="19.4" height="297.3" fill="#9bb4c9"/>
<rect x="375.7" y="70.5" width="19.4" height="269.5" fill="#9bb4c9"/>
<rect x="396.1" y="121.7" width="19.4" height="218.3" fill="#9bb4c9"/>
<rect x="416.4" y="173.3" width="19.4" height="166.7" fill="#9bb4c9"/>
<rect x="436.8" y="231.2" width="19.4" height="108.8" fill="#9bb4c9"/>
<rect x="457.1" y="269.3" width="19.4" height="70.7" fill="#9bb4c9"/>
<rect x="477.5" y="300.5" width="19.4" height="39.5" fill="#9bb4c9"/>
<rect x="497.9" y="319.5" width="19.4" height="20.5" fill="#9bb4c9"/>
<rect x="518.2" y="329.7" width="19.4" height="10.3" fill="#9bb4c9"/>
<rect x="538.6" y="336.7" width="19.4" height="3.3" fill="#9bb4c9"/>
<rect x="558.9" y="338.1" width="19.4" height="1.9" fill="#9bb4c9"/>
<rect x="579.3" y="338.4" width="19.4" height="1.6" fill="#9bb4c9"/>
<rect x="599.6" y="339.6" width="19.4" height="0.4" fill="#9bb4c9"/>
<line x1="-1008.6" y1="20" x2="-1008.6" y2="340" stroke="#c0392b" stroke-width="2.5"/>
<text x="-1003.6" y="35" fill="#c0392b" font-size="13">наблюдаемое: 38</text>
<line x1="330.2" y1="20" x2="330.2" y2="340" stroke="#2c3e50" stroke-dasharray="4 3"/>
<text x="335.2" y="55" fill="#2c3e50" font-size="13">ожидаемое: 104</text>
<text x="50" y="370" font-size="12" fill="#333">число учёных, выступавших на обеих площадках (нулевое распределение)</text>
</svg>
