<svg xmlns="http://www.w3.org/2000/svg" width="640" height="380" viewBox="0 0 640 380" font-family="Georgia, serif">
<rect width="640" height="380" fill="white"/>
<rect x="50.0" y="339.7" width="16.3" height="0.3" fill="#9bb4c9"/>
<rect x="67.3" y="339.7" width="16.3" height="0.3" fill="#9bb4c9"/>
<rect x="84.5" y="339.5" width="16.3" height="0.5" fill="#9bb4c9"/>
<rect x="101.8" y="339.1" width="16.3" height="0.9" fill="#9bb4c9"/>
<rect x="119.1" y="337.1" width="16.3" height="2.9" fill="#9bb4c9"/>
<rect x="136.4" y="334.0" width="16.3" height="6.0" fill="#9bb4c9"/>
<rect x="153.6" y="328.6" width="16.3" height="11.4" fill="#9bb4c9"/>
<rect x="170.9" y="316.2" width="16.3" height="23.8" fill="#9bb4c9"/>
<rect x="188.2" y="300.6" width="16.3" height="39.4" fill="#9bb4c9"/>
<rect x="205.5" y="282.4" width="16.3" height="57.6" fill="#9bb4c9"/>
<rect x="222.7" y="255.3" width="16.3" height="84.7" fill="#9bb4c9"/>
<rect x="240.0" y="219.7" width="16.3" height="120.3" fill="#9bb4c9"/>
<rect x="257.3" y="163.3" width="16.3" height="176.7" fill="#9bb4c9"/>
<rect x="274.5" y="130.5" width="16.3" height="209.5" fill="#9bb4c9"/>
<rect x="291.8" y="93.5" width="16.3" height="246.5" fill="#9bb4c9"/>
<rect x="309.1" y="39.5" width="16.3" height="300.5" fill="#9bb4c9"/>
<rect x="326.4" y="20.0" width="16.3" height="320.0" fill="#9bb4c9"/>
<rect x="343.6" y="27.3" width="16.3" height="312.7" fill="#9bb4c9"/>
<rect x="360.9" y="49.5" width="16.3" height="290.5" fill="#9bb4c9"/>
<rect x="378.2" y="89.6" width="16.3" height="250.4" fill="#9bb4c9"/>
<rect x="395.5" y="136.9" width="16.3" height="203.1" fill="#9bb4c9"/>
<rect x="412.7" y="181.3" width="16.3" height="158.7" fill="#9bb4c9"/>
<rect x="430.0" y="237.2" width="16.3" height="102.8" fill="#9bb4c9"/>
<rect x="447.3" y="268.7" width="16.3" height="71.3" fill="#9bb4c9"/>
<rect x="464.5" y="294.0" width="16.3" height="46.0" fill="#9bb4c9"/>
<rect x="481.8" y="311.4" width="16.3" height="28.6" fill="#9bb4c9"/>
<rect x="499.1" y="329.0" width="16.3" height="11.0" fill="#9bb4c9"/>
<rect x="516.4" y="333.8" width="16.3" height="6.2" fill="#9bb4c9"/>
<rect x="533.6" y="336.6" width="16.3" height="3.4" fill="#9bb4c9"/>
<rect x="550.9" y="339.5" width="16.3" height="0.5" fill="#9bb4c9"/>
<rect x="568.2" y="339.5" width="16.3" height="0.5" fill="#9bb4c9"/>
<rect x="585.5" y="339.8" width="16.3" height="0.2" fill="#9bb4c9"/>
<rect x="602.7" y="339.8" width="16.3" height="0.2" fill="#9bb4c9"/>
<line x1="-1193.6" y1="20" x2="-1193.6" y2="340" stroke="#c0392b" stroke-width="2.5"/>
<text x="-1188.6" y="35" fill="#c0392b" font-size="13">наблюдаемое: 40</text>
<line x1="330.9" y1="20" x2="330.9" y2="340" stroke="#2c3e50" stroke-dasharray="4 3"/>
<text x="335.9" y="55" fill="#2c3e50" font-size="13">ожидаемое: 128</text>
<text x="50" y="370" font-size="12" fill="#333">число учёных, выступавших на обеих площадках (нулевое распределение)</text>
</svg>
