<svg xmlns="http://www.w3.org/2000/svg" width="640" height="380" viewBox="0 0 640 380" font-family="Georgia, serif">
<rect width="640" height="380" fill="white"/>
<rect x="50.0" y="339.9" width="19.4" height="0.1" fill="#9bb4c9"/>
<rect x="70.4" y="339.6" width="19.4" height="0.4" fill="#9bb4c9"/>
<rect x="90.7" y="339.0" width="19.4" height="1.0" fill="#9bb4c9"/>
<rect x="111.1" y="337.4" width="19.4" height="2.6" fill="#9bb4c9"/>
<rect x="131.4" y="332.5" width="19.4" height="7.5" fill="#9bb4c9"/>
<rect x="151.8" y="328.7" width="19.4" height="11.3" fill="#9bb4c9"/>
<rect x="172.1" y="313.5" width="19.4" height="26.5" fill="#9bb4c9"/>
<rect x="192.5" y="300.6" width="19.4" height="39.4" fill="#9bb4c9"/>
<rect x="212.9" y="274.4" width="19.4" height="65.6" fill="#9bb4c9"/>
<rect x="233.2" y="240.0" width="19.4" height="100.0" fill="#9bb4c9"/>
<rect x="253.6" y="190.5" width="19.4" height="149.5" fill="#9bb4c9"/>
<rect x="273.9" y="125.8" width="19.4" height="214.2" fill="#9bb4c9"/>
<rect x="294.3" y="91.8" width="19.4" height="248.2" fill="#9bb4c9"/>
<rect x="314.6" y="41.5" width="19.4" height="298.5" fill="#9bb4c9"/>
<rect x="335.0" y="20.0" width="19.4" height="320.0" fill="#9bb4c9"/>
<rect x="355.4" y="25.9" width="19.4" height="314.1" fill="#9bb4c9"/>
<rect x="375.7" y="48.5" width="19.4" height="291.5" fill="#9bb4c9"/>
<rect x="396.1" y="92.8" width="19.4" height="247.2" fill="#9bb4c9"/>
<rect x="416.4" y="146.3" width="19.4" height="193.7" fill="#9bb4c9"/>
<rect x="436.8" y="199.1" width="19.4" height="140.9" fill="#9bb4c9"/>
<rect x="457.1" y="248.0" width="19.4" height="92.0" fill="#9bb4c9"/>
<rect x="477.5" y="289.6" width="19.4" height="50.4" fill="#9bb4c9"/>
<rect x="497.9" y="313.6" width="19.4" height="26.4" fill="#9bb4c9"/>
<rect x="518.2" y="326.0" width="19.4" height="14.0" fill="#9bb4c9"/>
<rect x="538.6" y="333.7" width="19.4" height="6.3" fill="#9bb4c9"/>
<rect x="558.9" y="337.7" width="19.4" height="2.3" fill="#9bb4c9"/>
<rect x="579.3" y="338.7" width="19.4" height="1.3" fill="#9bb4c9"/>
<rect x="599.6" y="339.0" width="19.4" height="1.0" fill="#9bb4c9"/>
<line x1="-988.2" y1="20" x2="-988.2" y2="340" stroke="#c0392b" stroke-width="2.5"/>
<text x="-983.2" y="35" fill="#c0392b" font-size="13">наблюдаемое: 38</text>
<line x1="340.9" y1="20" x2="340.9" y2="340" stroke="#2c3e50" stroke-dasharray="4 3"/>
<text x="345.9" y="55" fill="#2c3e50" font-size="13">ожидаемое: 103</text>
<text x="50" y="370" font-size="12" fill="#333">число учёных, выступавших на обеих площадках (нулевое распределение)</text>
</svg>
