<svg xmlns="http://www.w3.org/2000/svg" width="640" height="380" viewBox="0 0 640 380" font-family="Georgia, serif">
<rect width="640" height="380" fill="white"/>
<rect x="50.0" y="339.9" width="20.1" height="0.1" fill="#9bb4c9"/>
<rect x="71.1" y="339.7" width="20.1" height="0.3" fill="#9bb4c9"/>
<rect x="92.2" y="338.2" width="20.1" height="1.8" fill="#9bb4c9"/>
<rect x="113.3" y="337.4" width="20.1" height="2.6" fill="#9bb4c9"/>
<rect x="134.4" y="331.8" width="20.1" height="8.2" fill="#9bb4c9"/>
<rect x="155.6" y="322.3" width="20.1" height="17.7" fill="#9bb4c9"/>
<rect x="176.7" y="309.0" width="20.1" height="31.0" fill="#9bb4c9"/>
<rect x="197.8" y="284.7" width="20.1" height="55.3" fill="#9bb4c9"/>
<rect x="218.9" y="249.3" width="20.1" height="90.7" fill="#9bb4c9"/>
<rect x="240.0" y="211.8" width="20.1" height="128.2" fill="#9bb4c9"/>
<rect x="261.1" y="163.9" width="20.1" height="176.1" fill="#9bb4c9"/>
<rect x="282.2" y="102.9" width="20.1" height="237.1" fill="#9bb4c9"/>
<rect x="303.3" y="67.8" width="20.1" height="272.2" fill="#9bb4c9"/>
<rect x="324.4" y="42.1" width="20.1" height="297.9" fill="#9bb4c9"/>
<rect x="345.6" y="20.0" width="20.1" height="320.0" fill="#9bb4c9"/>
<rect x="366.7" y="47.9" width="20.1" height="292.1" fill="#9bb4c9"/>
<rect x="387.8" y="91.8" width="20.1" height="248.2" fill="#9bb4c9"/>
<rect x="408.9" y="149.4" width="20.1" height="190.6" fill="#9bb4c9"/>
<rect x="430.0" y="194.5" width="20.1" height="145.5" fill="#9bb4c9"/>
<rect x="451.1" y="234.8" width="20.1" height="105.2" fill="#9bb4c9"/>
<rect x="472.2" y="280.6" width="20.1" height="59.4" fill="#9bb4c9"/>
<rect x="493.3" y="304.9" width="20.1" height="35.1" fill="#9bb4c9"/>
<rect x="514.4" y="324.2" width="20.1" height="15.8" fill="#9bb4c9"/>
<rect x="535.6" y="332.7" width="20.1" height="7.3" fill="#9bb4c9"/>
<rect x="556.7" y="336.2" width="20.1" height="3.8" fill="#9bb4c9"/>
<rect x="577.8" y="338.2" width="20.1" height="1.8" fill="#9bb4c9"/>
<rect x="598.9" y="339.7" width="20.1" height="0.3" fill="#9bb4c9"/>
<line x1="-1026.7" y1="20" x2="-1026.7" y2="340" stroke="#c0392b" stroke-width="2.5"/>
<text x="-1021.7" y="35" fill="#c0392b" font-size="13">наблюдаемое: 39</text>
<line x1="337.5" y1="20" x2="337.5" y2="340" stroke="#2c3e50" stroke-dasharray="4 3"/>
<text x="342.5" y="55" fill="#2c3e50" font-size="13">ожидаемое: 104</text>
<text x="50" y="370" font-size="12" fill="#333">число учёных, выступавших на обеих площадках (нулевое распределение)</text>
</svg>
