<svg xmlns="http://www.w3.org/2000/svg" width="640" height="380" viewBox="0 0 640 380" font-family="Georgia, serif">
<rect width="640" height="380" fill="white"/>
<rect x="50.0" y="339.7" width="16.8" height="0.3" fill="#9bb4c9"/>
<rect x="67.8" y="339.4" width="16.8" height="0.6" fill="#9bb4c9"/>
<rect x="85.6" y="339.5" width="16.8" height="0.5" fill="#9bb4c9"/>
<rect x="103.4" y="339.1" width="16.8" height="0.9" fill="#9bb4c9"/>
<rect x="121.2" y="334.5" width="16.8" height="5.5" fill="#9bb4c9"/>
<rect x="139.1" y="330.4" width="16.8" height="9.6" fill="#9bb4c9"/>
<rect x="156.9" y="320.1" width="16.8" height="19.9" fill="#9bb4c9"/>
<rect x="174.7" y="307.8" width="16.8" height="32.2" fill="#9bb4c9"/>
<rect x="192.5" y="286.5" width="16.8" height="53.5" fill="#9bb4c9"/>
<rect x="210.3" y="252.8" width="16.8" height="87.2" fill="#9bb4c9"/>
<rect x="228.1" y="217.1" width="16.8" height="122.9" fill="#9bb4c9"/>
<rect x="245.9" y="168.1" width="16.8" height="171.9" fill="#9bb4c9"/>
<rect x="263.8" y="133.6" width="16.8" height="206.4" fill="#9bb4c9"/>
<rect x="281.6" y="88.3" width="16.8" height="251.7" fill="#9bb4c9"/>
<rect x="299.4" y="42.2" width="16.8" height="297.8" fill="#9bb4c9"/>
<rect x="317.2" y="26.0" width="16.8" height="314.0" fill="#9bb4c9"/>
<rect x="335.0" y="20.0" width="16.8" height="320.0" fill="#9bb4c9"/>
<rect x="352.8" y="52.7" width="16.8" height="287.3" fill="#9bb4c9"/>
<rect x="370.6" y="91.5" width="16.8" height="248.5" fill="#9bb4c9"/>
<rect x="388.4" y="133.3" width="16.8" height="206.7" fill="#9bb4c9"/>
<rect x="406.2" y="178.2" width="16.8" height="161.8" fill="#9bb4c9"/>
<rect x="424.1" y="226.4" width="16.8" height="113.6" fill="#9bb4c9"/>
<rect x="441.9" y="264.0" width="16.8" height="76.0" fill="#9bb4c9"/>
<rect x="459.7" y="295.9" width="16.8" height="44.1" fill="#9bb4c9"/>
<rect x="477.5" y="316.3" width="16.8" height="23.7" fill="#9bb4c9"/>
<rect x="495.3" y="326.9" width="16.8" height="13.1" fill="#9bb4c9"/>
<rect x="513.1" y="332.8" width="16.8" height="7.2" fill="#9bb4c9"/>
<rect x="530.9" y="336.5" width="16.8" height="3.5" fill="#9bb4c9"/>
<rect x="548.8" y="338.8" width="16.8" height="1.2" fill="#9bb4c9"/>
<rect x="566.6" y="339.2" width="16.8" height="0.8" fill="#9bb4c9"/>
<rect x="584.4" y="339.8" width="16.8" height="0.2" fill="#9bb4c9"/>
<rect x="602.2" y="339.8" width="16.8" height="0.2" fill="#9bb4c9"/>
<line x1="-1232.5" y1="20" x2="-1232.5" y2="340" stroke="#c0392b" stroke-width="2.5"/>
<text x="-1227.5" y="35" fill="#c0392b" font-size="13">наблюдаемое: 41</text>
<line x1="323.5" y1="20" x2="323.5" y2="340" stroke="#2c3e50" stroke-dasharray="4 3"/>
<text x="328.5" y="55" fill="#2c3e50" font-size="13">ожидаемое: 128</text>
<text x="50" y="370" font-size="12" fill="#333">число учёных, выступавших на обеих площадках (нулевое распределение)</text>
</svg>
