<svg xmlns="http://www.w3.org/2000/svg" width="900" height="520" viewBox="0 0 900 520">
<style>text{font-family:Arial,'Liberation Sans',sans-serif;fill:#1f2933}.title{font-size:20px;font-weight:700}.sub{font-size:13px;fill:#52616b}.axis{font-size:13px}.small{font-size:12px}.label{font-size:11px}</style>
<text x="32.0" y="30.0" class="title" text-anchor="start">Видео-доступность Зографских чтений</text>
<text x="32.0" y="52.0" class="sub" text-anchor="start">Темная часть столбца — доклады, связанные с публичной записью в базе.</text>
<rect x="92.0" y="72.0" width="720.0" height="320.0" fill="#fff" stroke="#cfd8e3" opacity="1.0"/>
<line x1="92.0" y1="392.0" x2="812.0" y2="392.0" stroke="#edf1f5" stroke-width="1.0"/>
<text x="82.0" y="396.0" class="axis" text-anchor="end">0</text>
<line x1="92.0" y1="319.3" x2="812.0" y2="319.3" stroke="#edf1f5" stroke-width="1.0"/>
<text x="82.0" y="323.3" class="axis" text-anchor="end">15</text>
<line x1="92.0" y1="246.5" x2="812.0" y2="246.5" stroke="#edf1f5" stroke-width="1.0"/>
<text x="82.0" y="250.5" class="axis" text-anchor="end">30</text>
<line x1="92.0" y1="173.8" x2="812.0" y2="173.8" stroke="#edf1f5" stroke-width="1.0"/>
<text x="82.0" y="177.8" class="axis" text-anchor="end">45</text>
<line x1="92.0" y1="101.1" x2="812.0" y2="101.1" stroke="#edf1f5" stroke-width="1.0"/>
<text x="82.0" y="105.1" class="axis" text-anchor="end">60</text>
<rect x="110.0" y="188.4" width="44.0" height="203.6" fill="#cbd5df" stroke="none" opacity="1.0"/>
<rect x="110.0" y="392.0" width="44.0" height="0.0" fill="#2f6fbb" stroke="none" opacity="1.0"/>
<text x="132.0" y="416.0" class="axis" text-anchor="middle">2018</text>
<text x="132.0" y="385.0" class="label" text-anchor="middle">0.0%</text>
<rect x="190.0" y="164.1" width="44.0" height="227.9" fill="#cbd5df" stroke="none" opacity="1.0"/>
<rect x="190.0" y="343.5" width="44.0" height="48.5" fill="#2f6fbb" stroke="none" opacity="1.0"/>
<text x="212.0" y="416.0" class="axis" text-anchor="middle">2019</text>
<text x="212.0" y="336.5" class="label" text-anchor="middle">21.3%</text>
<rect x="270.0" y="178.7" width="44.0" height="213.3" fill="#cbd5df" stroke="none" opacity="1.0"/>
<rect x="270.0" y="207.8" width="44.0" height="184.2" fill="#2f6fbb" stroke="none" opacity="1.0"/>
<text x="292.0" y="416.0" class="axis" text-anchor="middle">2020</text>
<text x="292.0" y="200.8" class="label" text-anchor="middle">86.4%</text>
<rect x="350.0" y="173.8" width="44.0" height="218.2" fill="#cbd5df" stroke="none" opacity="1.0"/>
<rect x="350.0" y="382.3" width="44.0" height="9.7" fill="#2f6fbb" stroke="none" opacity="1.0"/>
<text x="372.0" y="416.0" class="axis" text-anchor="middle">2021</text>
<text x="372.0" y="375.3" class="label" text-anchor="middle">4.4%</text>
<rect x="430.0" y="212.6" width="44.0" height="179.4" fill="#cbd5df" stroke="none" opacity="1.0"/>
<rect x="430.0" y="387.2" width="44.0" height="4.8" fill="#2f6fbb" stroke="none" opacity="1.0"/>
<text x="452.0" y="416.0" class="axis" text-anchor="middle">2022</text>
<text x="452.0" y="380.2" class="label" text-anchor="middle">2.7%</text>
<rect x="510.0" y="324.1" width="44.0" height="67.9" fill="#cbd5df" stroke="none" opacity="1.0"/>
<rect x="510.0" y="392.0" width="44.0" height="0.0" fill="#2f6fbb" stroke="none" opacity="1.0"/>
<text x="532.0" y="416.0" class="axis" text-anchor="middle">2023</text>
<text x="532.0" y="385.0" class="label" text-anchor="middle">0.0%</text>
<rect x="590.0" y="382.3" width="44.0" height="9.7" fill="#cbd5df" stroke="none" opacity="1.0"/>
<rect x="590.0" y="392.0" width="44.0" height="0.0" fill="#2f6fbb" stroke="none" opacity="1.0"/>
<text x="612.0" y="416.0" class="axis" text-anchor="middle">2024</text>
<text x="612.0" y="385.0" class="label" text-anchor="middle">0.0%</text>
<rect x="670.0" y="120.5" width="44.0" height="271.5" fill="#cbd5df" stroke="none" opacity="1.0"/>
<rect x="670.0" y="251.4" width="44.0" height="140.6" fill="#2f6fbb" stroke="none" opacity="1.0"/>
<text x="692.0" y="416.0" class="axis" text-anchor="middle">2025</text>
<text x="692.0" y="244.4" class="label" text-anchor="middle">51.8%</text>
<rect x="750.0" y="110.8" width="44.0" height="281.2" fill="#cbd5df" stroke="none" opacity="1.0"/>
<rect x="750.0" y="387.2" width="44.0" height="4.8" fill="#2f6fbb" stroke="none" opacity="1.0"/>
<text x="772.0" y="416.0" class="axis" text-anchor="middle">2026</text>
<text x="772.0" y="380.2" class="label" text-anchor="middle">1.7%</text>
<text x="452.0" y="478.0" class="axis" text-anchor="middle">Год</text>
</svg>
