<svg xmlns="http://www.w3.org/2000/svg" width="980" height="500" viewBox="0 0 980 500">
<style>
text{font-family:Arial,'Liberation Sans',sans-serif;fill:#1f2933}.small{font-size:12px}.axis{font-size:13px}.label{font-size:12px}.title{font-size:20px;font-weight:700}.subtitle{font-size:13px;fill:#52616b}.tick{stroke:#c9d2dc;stroke-width:1}.grid{stroke:#edf1f5;stroke-width:1}</style>
<text x="34.0" y="32.0" class="title" text-anchor="start">Прозрачность аффилиаций: город вместо учреждения</text>
<text x="34.0" y="56.0" class="subtitle" text-anchor="start">Доля авторских участий, где в программе указан только город или пустая аффилиация.</text>
<rect x="92.0" y="96.0" width="760.0" height="300.0" rx="0" fill="#ffffff" stroke="#cfd8e3" opacity="1.0"/>
<line x1="92.0" y1="396.0" x2="852.0" y2="396.0" stroke="#edf1f5" stroke-width="1"/>
<text x="80.0" y="400.0" class="axis" text-anchor="end">0%</text>
<line x1="92.0" y1="321.0" x2="852.0" y2="321.0" stroke="#edf1f5" stroke-width="1"/>
<text x="80.0" y="325.0" class="axis" text-anchor="end">25%</text>
<line x1="92.0" y1="246.0" x2="852.0" y2="246.0" stroke="#edf1f5" stroke-width="1"/>
<text x="80.0" y="250.0" class="axis" text-anchor="end">50%</text>
<line x1="92.0" y1="171.0" x2="852.0" y2="171.0" stroke="#edf1f5" stroke-width="1"/>
<text x="80.0" y="175.0" class="axis" text-anchor="end">75%</text>
<line x1="92.0" y1="96.0" x2="852.0" y2="96.0" stroke="#edf1f5" stroke-width="1"/>
<text x="80.0" y="100.0" class="axis" text-anchor="end">100%</text>
<line x1="92.0" y1="96.0" x2="92.0" y2="396.0" stroke="#f3f6f9" stroke-width="1"/>
<text x="92.0" y="418.0" class="axis" text-anchor="middle">2004</text>
<line x1="161.1" y1="96.0" x2="161.1" y2="396.0" stroke="#f3f6f9" stroke-width="1"/>
<text x="161.1" y="418.0" class="axis" text-anchor="middle">2006</text>
<line x1="230.2" y1="96.0" x2="230.2" y2="396.0" stroke="#f3f6f9" stroke-width="1"/>
<text x="230.2" y="418.0" class="axis" text-anchor="middle">2008</text>
<line x1="299.3" y1="96.0" x2="299.3" y2="396.0" stroke="#f3f6f9" stroke-width="1"/>
<text x="299.3" y="418.0" class="axis" text-anchor="middle">2010</text>
<line x1="368.4" y1="96.0" x2="368.4" y2="396.0" stroke="#f3f6f9" stroke-width="1"/>
<text x="368.4" y="418.0" class="axis" text-anchor="middle">2012</text>
<line x1="437.5" y1="96.0" x2="437.5" y2="396.0" stroke="#f3f6f9" stroke-width="1"/>
<text x="437.5" y="418.0" class="axis" text-anchor="middle">2014</text>
<line x1="506.5" y1="96.0" x2="506.5" y2="396.0" stroke="#f3f6f9" stroke-width="1"/>
<text x="506.5" y="418.0" class="axis" text-anchor="middle">2016</text>
<line x1="575.6" y1="96.0" x2="575.6" y2="396.0" stroke="#f3f6f9" stroke-width="1"/>
<text x="575.6" y="418.0" class="axis" text-anchor="middle">2018</text>
<line x1="644.7" y1="96.0" x2="644.7" y2="396.0" stroke="#f3f6f9" stroke-width="1"/>
<text x="644.7" y="418.0" class="axis" text-anchor="middle">2020</text>
<line x1="713.8" y1="96.0" x2="713.8" y2="396.0" stroke="#f3f6f9" stroke-width="1"/>
<text x="713.8" y="418.0" class="axis" text-anchor="middle">2022</text>
<line x1="782.9" y1="96.0" x2="782.9" y2="396.0" stroke="#f3f6f9" stroke-width="1"/>
<text x="782.9" y="418.0" class="axis" text-anchor="middle">2024</text>
<line x1="852.0" y1="96.0" x2="852.0" y2="396.0" stroke="#f3f6f9" stroke-width="1"/>
<text x="852.0" y="418.0" class="axis" text-anchor="middle">2026</text>
<circle cx="92.0" cy="96.0" r="4.6" fill="#2f6fbb" stroke="#ffffff" stroke-width="1.2" opacity="0.88"/>
<line x1="92.0" y1="96.0" x2="161.1" y2="96.0" stroke="#2f6fbb" stroke-width="2.2"/>
<circle cx="161.1" cy="96.0" r="4.6" fill="#2f6fbb" stroke="#ffffff" stroke-width="1.2" opacity="0.88"/>
<line x1="161.1" y1="96.0" x2="195.6" y2="265.6" stroke="#2f6fbb" stroke-width="2.2"/>
<circle cx="195.6" cy="265.6" r="4.6" fill="#2f6fbb" stroke="#ffffff" stroke-width="1.2" opacity="0.88"/>
<line x1="195.6" y1="265.6" x2="299.3" y2="96.0" stroke="#2f6fbb" stroke-width="2.2"/>
<circle cx="299.3" cy="96.0" r="4.6" fill="#2f6fbb" stroke="#ffffff" stroke-width="1.2" opacity="0.88"/>
<line x1="299.3" y1="96.0" x2="333.8" y2="96.0" stroke="#2f6fbb" stroke-width="2.2"/>
<circle cx="333.8" cy="96.0" r="4.6" fill="#2f6fbb" stroke="#ffffff" stroke-width="1.2" opacity="0.88"/>
<line x1="333.8" y1="96.0" x2="368.4" y2="106.0" stroke="#2f6fbb" stroke-width="2.2"/>
<circle cx="368.4" cy="106.0" r="4.6" fill="#2f6fbb" stroke="#ffffff" stroke-width="1.2" opacity="0.88"/>
<line x1="368.4" y1="106.0" x2="402.9" y2="96.0" stroke="#2f6fbb" stroke-width="2.2"/>
<circle cx="402.9" cy="96.0" r="4.6" fill="#2f6fbb" stroke="#ffffff" stroke-width="1.2" opacity="0.88"/>
<line x1="402.9" y1="96.0" x2="437.5" y2="96.0" stroke="#2f6fbb" stroke-width="2.2"/>
<circle cx="437.5" cy="96.0" r="4.6" fill="#2f6fbb" stroke="#ffffff" stroke-width="1.2" opacity="0.88"/>
<line x1="437.5" y1="96.0" x2="575.6" y2="103.1" stroke="#2f6fbb" stroke-width="2.2"/>
<circle cx="575.6" cy="103.1" r="4.6" fill="#2f6fbb" stroke="#ffffff" stroke-width="1.2" opacity="0.88"/>
<line x1="575.6" y1="103.1" x2="610.2" y2="102.4" stroke="#2f6fbb" stroke-width="2.2"/>
<circle cx="610.2" cy="102.4" r="4.6" fill="#2f6fbb" stroke="#ffffff" stroke-width="1.2" opacity="0.88"/>
<line x1="610.2" y1="102.4" x2="644.7" y2="115.6" stroke="#2f6fbb" stroke-width="2.2"/>
<circle cx="644.7" cy="115.6" r="4.6" fill="#2f6fbb" stroke="#ffffff" stroke-width="1.2" opacity="0.88"/>
<line x1="644.7" y1="115.6" x2="679.3" y2="109.3" stroke="#2f6fbb" stroke-width="2.2"/>
<circle cx="679.3" cy="109.3" r="4.6" fill="#2f6fbb" stroke="#ffffff" stroke-width="1.2" opacity="0.88"/>
<line x1="679.3" y1="109.3" x2="713.8" y2="128.4" stroke="#2f6fbb" stroke-width="2.2"/>
<circle cx="713.8" cy="128.4" r="4.6" fill="#2f6fbb" stroke="#ffffff" stroke-width="1.2" opacity="0.88"/>
<line x1="713.8" y1="128.4" x2="748.4" y2="96.0" stroke="#2f6fbb" stroke-width="2.2"/>
<circle cx="748.4" cy="96.0" r="4.6" fill="#2f6fbb" stroke="#ffffff" stroke-width="1.2" opacity="0.88"/>
<line x1="748.4" y1="96.0" x2="782.9" y2="96.0" stroke="#2f6fbb" stroke-width="2.2"/>
<circle cx="782.9" cy="96.0" r="4.6" fill="#2f6fbb" stroke="#ffffff" stroke-width="1.2" opacity="0.88"/>
<line x1="782.9" y1="96.0" x2="817.5" y2="106.7" stroke="#2f6fbb" stroke-width="2.2"/>
<circle cx="817.5" cy="106.7" r="4.6" fill="#2f6fbb" stroke="#ffffff" stroke-width="1.2" opacity="0.88"/>
<line x1="817.5" y1="106.7" x2="852.0" y2="106.0" stroke="#2f6fbb" stroke-width="2.2"/>
<circle cx="852.0" cy="106.0" r="4.6" fill="#2f6fbb" stroke="#ffffff" stroke-width="1.2" opacity="0.88"/>
<circle cx="299.3" cy="96.0" r="4.6" fill="#b8554b" stroke="#ffffff" stroke-width="1.2" opacity="0.88"/>
<line x1="299.3" y1="96.0" x2="368.4" y2="346.0" stroke="#b8554b" stroke-width="2.2"/>
<circle cx="368.4" cy="346.0" r="4.6" fill="#b8554b" stroke="#ffffff" stroke-width="1.2" opacity="0.88"/>
<line x1="368.4" y1="346.0" x2="472.0" y2="375.3" stroke="#b8554b" stroke-width="2.2"/>
<circle cx="472.0" cy="375.3" r="4.6" fill="#b8554b" stroke="#ffffff" stroke-width="1.2" opacity="0.88"/>
<line x1="472.0" y1="375.3" x2="506.5" y2="346.0" stroke="#b8554b" stroke-width="2.2"/>
<circle cx="506.5" cy="346.0" r="4.6" fill="#b8554b" stroke="#ffffff" stroke-width="1.2" opacity="0.88"/>
<line x1="506.5" y1="346.0" x2="541.1" y2="360.7" stroke="#b8554b" stroke-width="2.2"/>
<circle cx="541.1" cy="360.7" r="4.6" fill="#b8554b" stroke="#ffffff" stroke-width="1.2" opacity="0.88"/>
<line x1="541.1" y1="360.7" x2="575.6" y2="350.5" stroke="#b8554b" stroke-width="2.2"/>
<circle cx="575.6" cy="350.5" r="4.6" fill="#b8554b" stroke="#ffffff" stroke-width="1.2" opacity="0.88"/>
<line x1="575.6" y1="350.5" x2="610.2" y2="326.0" stroke="#b8554b" stroke-width="2.2"/>
<circle cx="610.2" cy="326.0" r="4.6" fill="#b8554b" stroke="#ffffff" stroke-width="1.2" opacity="0.88"/>
<line x1="610.2" y1="326.0" x2="644.7" y2="336.0" stroke="#b8554b" stroke-width="2.2"/>
<circle cx="644.7" cy="336.0" r="4.6" fill="#b8554b" stroke="#ffffff" stroke-width="1.2" opacity="0.88"/>
<line x1="644.7" y1="336.0" x2="679.3" y2="356.0" stroke="#b8554b" stroke-width="2.2"/>
<circle cx="679.3" cy="356.0" r="4.6" fill="#b8554b" stroke="#ffffff" stroke-width="1.2" opacity="0.88"/>
<line x1="679.3" y1="356.0" x2="713.8" y2="372.9" stroke="#b8554b" stroke-width="2.2"/>
<circle cx="713.8" cy="372.9" r="4.6" fill="#b8554b" stroke="#ffffff" stroke-width="1.2" opacity="0.88"/>
<line x1="713.8" y1="372.9" x2="748.4" y2="360.7" stroke="#b8554b" stroke-width="2.2"/>
<circle cx="748.4" cy="360.7" r="4.6" fill="#b8554b" stroke="#ffffff" stroke-width="1.2" opacity="0.88"/>
<line x1="748.4" y1="360.7" x2="782.9" y2="365.0" stroke="#b8554b" stroke-width="2.2"/>
<circle cx="782.9" cy="365.0" r="4.6" fill="#b8554b" stroke="#ffffff" stroke-width="1.2" opacity="0.88"/>
<line x1="782.9" y1="365.0" x2="817.5" y2="396.0" stroke="#b8554b" stroke-width="2.2"/>
<circle cx="817.5" cy="396.0" r="4.6" fill="#b8554b" stroke="#ffffff" stroke-width="1.2" opacity="0.88"/>
<rect x="692.0" y="94.0" width="206.0" height="78.0" rx="5" fill="#ffffff" stroke="#d8e0e8" opacity="0.94"/>
<line x1="710.0" y1="118.0" x2="738.0" y2="118.0" stroke="#2f6fbb" stroke-width="2.2"/>
<circle cx="724.0" cy="118.0" r="4.6" fill="#2f6fbb" stroke="#ffffff" stroke-width="1.2" opacity="0.88"/>
<text x="750.0" y="122.0" class="small" text-anchor="start">Зографские: 94.7%</text>
<line x1="710.0" y1="146.0" x2="738.0" y2="146.0" stroke="#b8554b" stroke-width="2.2"/>
<circle cx="724.0" cy="146.0" r="4.6" fill="#b8554b" stroke="#ffffff" stroke-width="1.2" opacity="0.88"/>
<text x="750.0" y="150.0" class="small" text-anchor="start">Рериховские: 13.0%</text>
<text x="34.0" y="474.0" class="subtitle" text-anchor="start">График поддерживает источниковедческий тезис: разрыв создается форматом программы, а не обязательно биографией участников.</text>
</svg>
