<svg xmlns="http://www.w3.org/2000/svg" width="860" height="520" viewBox="0 0 860 520">
<style>
text{font-family:Arial,'Liberation Sans',sans-serif;fill:#1f2933}.small{font-size:12px}.axis{font-size:13px}.label{font-size:12px}.title{font-size:20px;font-weight:700}.subtitle{font-size:13px;fill:#52616b}.tick{stroke:#c9d2dc;stroke-width:1}.grid{stroke:#edf1f5;stroke-width:1}</style>
<text x="34.0" y="32.0" class="title" text-anchor="start">Рис. 4. Покрытие годом рождения зависит от частоты участия</text>
<text x="34.0" y="56.0" class="subtitle" text-anchor="start">Неизвестные годы рождения сконцентрированы среди разовых и редких участников.</text>
<rect x="110.0" y="92.0" width="640.0" height="310.0" rx="0" fill="#ffffff" stroke="#cfd8e3" opacity="1.0"/>
<line x1="110.0" y1="402.0" x2="750.0" y2="402.0" stroke="#edf1f5" stroke-width="1"/>
<text x="98.0" y="406.0" class="axis" text-anchor="end">0</text>
<line x1="110.0" y1="342.4" x2="750.0" y2="342.4" stroke="#edf1f5" stroke-width="1"/>
<text x="98.0" y="346.4" class="axis" text-anchor="end">20</text>
<line x1="110.0" y1="282.8" x2="750.0" y2="282.8" stroke="#edf1f5" stroke-width="1"/>
<text x="98.0" y="286.8" class="axis" text-anchor="end">40</text>
<line x1="110.0" y1="223.2" x2="750.0" y2="223.2" stroke="#edf1f5" stroke-width="1"/>
<text x="98.0" y="227.2" class="axis" text-anchor="end">60</text>
<line x1="110.0" y1="163.5" x2="750.0" y2="163.5" stroke="#edf1f5" stroke-width="1"/>
<text x="98.0" y="167.5" class="axis" text-anchor="end">80</text>
<line x1="110.0" y1="103.9" x2="750.0" y2="103.9" stroke="#edf1f5" stroke-width="1"/>
<text x="98.0" y="107.9" class="axis" text-anchor="end">100</text>
<rect x="139.6" y="381.1" width="44.8" height="20.9" rx="0" fill="#2f6fbb" stroke="none" opacity="1.0"/>
<text x="162.0" y="375.1" class="small" text-anchor="middle">7</text>
<rect x="195.6" y="121.8" width="44.8" height="280.2" rx="0" fill="#b8554b" stroke="none" opacity="1.0"/>
<text x="218.0" y="115.8" class="small" text-anchor="middle">94</text>
<text x="190.0" y="428.0" class="axis" text-anchor="middle">1</text>
<rect x="299.6" y="357.3" width="44.8" height="44.7" rx="0" fill="#2f6fbb" stroke="none" opacity="1.0"/>
<text x="322.0" y="351.3" class="small" text-anchor="middle">15</text>
<rect x="355.6" y="378.2" width="44.8" height="23.8" rx="0" fill="#b8554b" stroke="none" opacity="1.0"/>
<text x="378.0" y="372.2" class="small" text-anchor="middle">8</text>
<text x="350.0" y="428.0" class="axis" text-anchor="middle">2</text>
<rect x="459.6" y="381.1" width="44.8" height="20.9" rx="0" fill="#2f6fbb" stroke="none" opacity="1.0"/>
<text x="482.0" y="375.1" class="small" text-anchor="middle">7</text>
<rect x="515.6" y="330.5" width="44.8" height="71.5" rx="0" fill="#b8554b" stroke="none" opacity="1.0"/>
<text x="538.0" y="324.5" class="small" text-anchor="middle">24</text>
<text x="510.0" y="428.0" class="axis" text-anchor="middle">3–4</text>
<rect x="619.6" y="291.7" width="44.8" height="110.3" rx="0" fill="#2f6fbb" stroke="none" opacity="1.0"/>
<text x="642.0" y="285.7" class="small" text-anchor="middle">37</text>
<rect x="675.6" y="300.7" width="44.8" height="101.3" rx="0" fill="#b8554b" stroke="none" opacity="1.0"/>
<text x="698.0" y="294.7" class="small" text-anchor="middle">34</text>
<text x="670.0" y="428.0" class="axis" text-anchor="middle">5+</text>
<text x="430.0" y="472.0" class="axis" text-anchor="middle">Всего докладов/авторских участий у ученого</text>
<text x="56.0" y="247.0" class="small" text-anchor="middle">ученых</text>
<rect x="544.0" y="86.0" width="220.0" height="78.0" rx="5" fill="#ffffff" stroke="#d8e0e8" opacity="0.94"/>
<rect x="560.0" y="100.0" width="24.0" height="14.0" rx="0" fill="#2f6fbb" stroke="none" opacity="1.0"/>
<text x="594.0" y="112.0" class="small" text-anchor="start">год рождения известен</text>
<rect x="560.0" y="130.0" width="24.0" height="14.0" rx="0" fill="#b8554b" stroke="none" opacity="1.0"/>
<text x="594.0" y="142.0" class="small" text-anchor="start">год рождения неизвестен</text>
</svg>
