<svg xmlns="http://www.w3.org/2000/svg" width="860" height="520" viewBox="0 0 860 520">
<style>
text{font-family:Arial,'Liberation Sans',sans-serif;fill:#1f2933}.small{font-size:12px}.axis{font-size:13px}.label{font-size:12px}.title{font-size:20px;font-weight:700}.subtitle{font-size:13px;fill:#52616b}.tick{stroke:#c9d2dc;stroke-width:1}.grid{stroke:#edf1f5;stroke-width:1}</style>
<text x="34.0" y="32.0" class="title" text-anchor="start">Покрытие годом рождения зависит от частоты участия</text>
<text x="34.0" y="56.0" class="subtitle" text-anchor="start">Неизвестные годы рождения сконцентрированы среди разовых и редких участников.</text>
<rect x="110.0" y="92.0" width="640.0" height="310.0" rx="0" fill="#ffffff" stroke="#cfd8e3" opacity="1.0"/>
<line x1="110.0" y1="402.0" x2="750.0" y2="402.0" stroke="#edf1f5" stroke-width="1"/>
<text x="98.0" y="406.0" class="axis" text-anchor="end">0%</text>
<line x1="110.0" y1="324.5" x2="750.0" y2="324.5" stroke="#edf1f5" stroke-width="1"/>
<text x="98.0" y="328.5" class="axis" text-anchor="end">25%</text>
<line x1="110.0" y1="247.0" x2="750.0" y2="247.0" stroke="#edf1f5" stroke-width="1"/>
<text x="98.0" y="251.0" class="axis" text-anchor="end">50%</text>
<line x1="110.0" y1="169.5" x2="750.0" y2="169.5" stroke="#edf1f5" stroke-width="1"/>
<text x="98.0" y="173.5" class="axis" text-anchor="end">75%</text>
<line x1="110.0" y1="92.0" x2="750.0" y2="92.0" stroke="#edf1f5" stroke-width="1"/>
<text x="98.0" y="96.0" class="axis" text-anchor="end">100%</text>
<rect x="153.2" y="113.5" width="73.6" height="288.5" rx="0" fill="#b8554b" stroke="none" opacity="1.0"/>
<text x="190.0" y="261.7" class="small" text-anchor="middle">93%</text>
<rect x="153.2" y="92.0" width="73.6" height="21.5" rx="0" fill="#2f6fbb" stroke="none" opacity="1.0"/>
<text x="190.0" y="84.0" class="small" text-anchor="middle">n=101</text>
<text x="190.0" y="428.0" class="axis" text-anchor="middle">1</text>
<rect x="313.2" y="294.2" width="73.6" height="107.8" rx="0" fill="#b8554b" stroke="none" opacity="1.0"/>
<text x="350.0" y="352.1" class="small" text-anchor="middle">35%</text>
<rect x="313.2" y="92.0" width="73.6" height="202.2" rx="0" fill="#2f6fbb" stroke="none" opacity="1.0"/>
<text x="350.0" y="197.1" class="small" text-anchor="middle">65%</text>
<text x="350.0" y="84.0" class="small" text-anchor="middle">n=23</text>
<text x="350.0" y="428.0" class="axis" text-anchor="middle">2</text>
<rect x="473.2" y="162.0" width="73.6" height="240.0" rx="0" fill="#b8554b" stroke="none" opacity="1.0"/>
<text x="510.0" y="286.0" class="small" text-anchor="middle">77%</text>
<rect x="473.2" y="92.0" width="73.6" height="70.0" rx="0" fill="#2f6fbb" stroke="none" opacity="1.0"/>
<text x="510.0" y="131.0" class="small" text-anchor="middle">23%</text>
<text x="510.0" y="84.0" class="small" text-anchor="middle">n=31</text>
<text x="510.0" y="428.0" class="axis" text-anchor="middle">3–4</text>
<rect x="633.2" y="253.5" width="73.6" height="148.5" rx="0" fill="#b8554b" stroke="none" opacity="1.0"/>
<text x="670.0" y="331.8" class="small" text-anchor="middle">48%</text>
<rect x="633.2" y="92.0" width="73.6" height="161.5" rx="0" fill="#2f6fbb" stroke="none" opacity="1.0"/>
<text x="670.0" y="176.8" class="small" text-anchor="middle">52%</text>
<text x="670.0" y="84.0" class="small" text-anchor="middle">n=71</text>
<text x="670.0" y="428.0" class="axis" text-anchor="middle">5+</text>
<text x="430.0" y="472.0" class="axis" text-anchor="middle">Всего докладов/авторских участий у ученого</text>
<text x="38.0" y="247.0" class="small" text-anchor="middle" transform="rotate(-90 38.0 247.0)">доля ученых</text>
<rect x="544.0" y="86.0" width="220.0" height="78.0" rx="5" fill="#ffffff" stroke="#d8e0e8" opacity="0.94"/>
<rect x="560.0" y="100.0" width="24.0" height="14.0" rx="0" fill="#2f6fbb" stroke="none" opacity="1.0"/>
<text x="594.0" y="112.0" class="small" text-anchor="start">год рождения известен</text>
<rect x="560.0" y="130.0" width="24.0" height="14.0" rx="0" fill="#b8554b" stroke="none" opacity="1.0"/>
<text x="594.0" y="142.0" class="small" text-anchor="start">год рождения неизвестен</text>
</svg>
