<svg xmlns="http://www.w3.org/2000/svg" width="980" height="430" viewBox="0 0 980 430">
<style>
text{font-family:Arial,'Liberation Sans',sans-serif;fill:#1f2933}.small{font-size:12px}.axis{font-size:13px}.label{font-size:12px}.title{font-size:20px;font-weight:700}.subtitle{font-size:13px;fill:#52616b}.tick{stroke:#c9d2dc;stroke-width:1}.grid{stroke:#edf1f5;stroke-width:1}</style>
<text x="34.0" y="32.0" class="title" text-anchor="start">Различия метрик закрытости: Рерих минус Зограф</text>
<text x="34.0" y="56.0" class="subtitle" text-anchor="start">Точки — оценка различия, линии — bootstrap 95% CI; пересечение нуля означает описательный, но не строгий эффект.</text>
<rect x="230.0" y="62.0" width="600.0" height="270.0" rx="0" fill="#ffffff" stroke="#cfd8e3" opacity="1.0"/>
<line x1="290.0" y1="62.0" x2="290.0" y2="332.0" stroke="#edf1f5" stroke-width="1"/>
<text x="290.0" y="354.0" class="axis" text-anchor="middle">-20</text>
<line x1="410.0" y1="62.0" x2="410.0" y2="332.0" stroke="#edf1f5" stroke-width="1"/>
<text x="410.0" y="354.0" class="axis" text-anchor="middle">-10</text>
<line x1="530.0" y1="62.0" x2="530.0" y2="332.0" stroke="#d6dde6" stroke-width="1.4"/>
<text x="530.0" y="354.0" class="axis" text-anchor="middle">0</text>
<line x1="650.0" y1="62.0" x2="650.0" y2="332.0" stroke="#edf1f5" stroke-width="1"/>
<text x="650.0" y="354.0" class="axis" text-anchor="middle">10</text>
<line x1="770.0" y1="62.0" x2="770.0" y2="332.0" stroke="#edf1f5" stroke-width="1"/>
<text x="770.0" y="354.0" class="axis" text-anchor="middle">20</text>
<text x="530.0" y="390.0" class="axis" text-anchor="middle">Разница, процентные пункты; для Джини показано значение ×100</text>
<text x="212.0" y="100.0" class="axis" text-anchor="end" font-weight="700">Ядро ≥5</text>
<line x1="486.6" y1="96.0" x2="762.9" y2="96.0" stroke="#657482" stroke-width="3"/>
<line x1="486.6" y1="90.0" x2="486.6" y2="102.0" stroke="#657482" stroke-width="1.6"/>
<line x1="762.9" y1="90.0" x2="762.9" y2="102.0" stroke="#657482" stroke-width="1.6"/>
<circle cx="624.7" cy="96.0" r="6.5" fill="#b8554b" stroke="#ffffff" stroke-width="1.2" opacity="0.88"/>
<text x="848.0" y="100.0" class="small" text-anchor="start">+7.9 [-3.6; +19.4]</text>
<text x="848.0" y="118.0" class="label" text-anchor="start">p_boot=0.180</text>
<text x="212.0" y="158.0" class="axis" text-anchor="end">Удержание</text>
<line x1="453.7" y1="154.0" x2="752.5" y2="154.0" stroke="#657482" stroke-width="3"/>
<line x1="453.7" y1="148.0" x2="453.7" y2="160.0" stroke="#657482" stroke-width="1.6"/>
<line x1="752.5" y1="148.0" x2="752.5" y2="160.0" stroke="#657482" stroke-width="1.6"/>
<circle cx="603.0" cy="154.0" r="6.5" fill="#b8554b" stroke="#ffffff" stroke-width="1.2" opacity="0.88"/>
<text x="848.0" y="158.0" class="small" text-anchor="start">+6.1 [-6.4; +18.5]</text>
<text x="848.0" y="176.0" class="label" text-anchor="start">p_boot=0.340</text>
<text x="212.0" y="216.0" class="axis" text-anchor="end">Разовые</text>
<line x1="305.2" y1="212.0" x2="608.6" y2="212.0" stroke="#657482" stroke-width="3"/>
<line x1="305.2" y1="206.0" x2="305.2" y2="218.0" stroke="#657482" stroke-width="1.6"/>
<line x1="608.6" y1="206.0" x2="608.6" y2="218.0" stroke="#657482" stroke-width="1.6"/>
<circle cx="457.3" cy="212.0" r="6.5" fill="#2f6fbb" stroke="#ffffff" stroke-width="1.2" opacity="0.88"/>
<text x="848.0" y="216.0" class="small" text-anchor="start">-6.1 [-18.7; +6.5]</text>
<text x="848.0" y="234.0" class="label" text-anchor="start">p_boot=0.343</text>
<text x="212.0" y="274.0" class="axis" text-anchor="end">Джини ×100</text>
<line x1="482.0" y1="270.0" x2="590.0" y2="270.0" stroke="#657482" stroke-width="3"/>
<line x1="482.0" y1="264.0" x2="482.0" y2="276.0" stroke="#657482" stroke-width="1.6"/>
<line x1="590.0" y1="264.0" x2="590.0" y2="276.0" stroke="#657482" stroke-width="1.6"/>
<circle cx="542.0" cy="270.0" r="6.5" fill="#b8554b" stroke="#ffffff" stroke-width="1.2" opacity="0.88"/>
<text x="848.0" y="274.0" class="small" text-anchor="start">+1.0 [-4.0; +5.0]</text>
<text x="848.0" y="292.0" class="label" text-anchor="start">p_boot=0.790</text>
<text x="34.0" y="408.0" class="subtitle" text-anchor="start">Чтение: положительные значения означают большую величину метрики у Рериха; отрицательные — у Зографа.</text>
</svg>
