<svg xmlns="http://www.w3.org/2000/svg" width="980" height="700" viewBox="0 0 980 700">
<style>
text{font-family:Arial,'Liberation Sans',sans-serif;fill:#1f2933}.small{font-size:12px}.axis{font-size:13px}.label{font-size:12px}.title{font-size:20px;font-weight:700}.subtitle{font-size:13px;fill:#52616b}.tick{stroke:#c9d2dc;stroke-width:1}.grid{stroke:#edf1f5;stroke-width:1}</style>
<text x="34.0" y="32.0" class="title" text-anchor="start">Рис. 4. Перекрестная когорта: баланс участия на двух площадках</text>
<text x="34.0" y="56.0" class="subtitle" text-anchor="start">39 участников, выступавших и на Зографских, и на Рериховских чтениях; диагональ означает равный вклад.</text>
<rect x="86.0" y="82.0" width="846.0" height="534.0" rx="0" fill="#ffffff" stroke="#cfd8e3" opacity="1.0"/>
<line x1="86.0" y1="82.0" x2="86.0" y2="616.0" stroke="#edf1f5" stroke-width="1"/>
<text x="86.0" y="638.0" class="axis" text-anchor="middle">0</text>
<line x1="191.8" y1="82.0" x2="191.8" y2="616.0" stroke="#edf1f5" stroke-width="1"/>
<text x="191.8" y="638.0" class="axis" text-anchor="middle">2</text>
<line x1="297.5" y1="82.0" x2="297.5" y2="616.0" stroke="#edf1f5" stroke-width="1"/>
<text x="297.5" y="638.0" class="axis" text-anchor="middle">4</text>
<line x1="403.2" y1="82.0" x2="403.2" y2="616.0" stroke="#edf1f5" stroke-width="1"/>
<text x="403.2" y="638.0" class="axis" text-anchor="middle">6</text>
<line x1="509.0" y1="82.0" x2="509.0" y2="616.0" stroke="#edf1f5" stroke-width="1"/>
<text x="509.0" y="638.0" class="axis" text-anchor="middle">8</text>
<line x1="614.8" y1="82.0" x2="614.8" y2="616.0" stroke="#edf1f5" stroke-width="1"/>
<text x="614.8" y="638.0" class="axis" text-anchor="middle">10</text>
<line x1="720.5" y1="82.0" x2="720.5" y2="616.0" stroke="#edf1f5" stroke-width="1"/>
<text x="720.5" y="638.0" class="axis" text-anchor="middle">12</text>
<line x1="826.2" y1="82.0" x2="826.2" y2="616.0" stroke="#edf1f5" stroke-width="1"/>
<text x="826.2" y="638.0" class="axis" text-anchor="middle">14</text>
<line x1="932.0" y1="82.0" x2="932.0" y2="616.0" stroke="#edf1f5" stroke-width="1"/>
<text x="932.0" y="638.0" class="axis" text-anchor="middle">16</text>
<line x1="86.0" y1="616.0" x2="932.0" y2="616.0" stroke="#edf1f5" stroke-width="1"/>
<text x="72.0" y="620.0" class="axis" text-anchor="end">0</text>
<line x1="86.0" y1="533.8" x2="932.0" y2="533.8" stroke="#edf1f5" stroke-width="1"/>
<text x="72.0" y="537.8" class="axis" text-anchor="end">2</text>
<line x1="86.0" y1="451.7" x2="932.0" y2="451.7" stroke="#edf1f5" stroke-width="1"/>
<text x="72.0" y="455.7" class="axis" text-anchor="end">4</text>
<line x1="86.0" y1="369.5" x2="932.0" y2="369.5" stroke="#edf1f5" stroke-width="1"/>
<text x="72.0" y="373.5" class="axis" text-anchor="end">6</text>
<line x1="86.0" y1="287.4" x2="932.0" y2="287.4" stroke="#edf1f5" stroke-width="1"/>
<text x="72.0" y="291.4" class="axis" text-anchor="end">8</text>
<line x1="86.0" y1="205.2" x2="932.0" y2="205.2" stroke="#edf1f5" stroke-width="1"/>
<text x="72.0" y="209.2" class="axis" text-anchor="end">10</text>
<line x1="86.0" y1="123.1" x2="932.0" y2="123.1" stroke="#edf1f5" stroke-width="1"/>
<text x="72.0" y="127.1" class="axis" text-anchor="end">12</text>
<line x1="86.0" y1="616.0" x2="773.4" y2="82.0" stroke="#7f8c99" stroke-width="1.4" stroke-dasharray="6 5"/>
<text x="509.0" y="670.0" class="axis" text-anchor="middle">Докладов на Зографских чтениях</text>
<text x="24.0" y="349.0" class="axis" text-anchor="middle" transform="rotate(-90 24.0 349.0)">Докладов на Рериховских чтениях</text>
<circle cx="138.9" cy="574.9" r="6.3" fill="#657482" stroke="#ffffff" stroke-width="1.2" opacity="0.88"/>
<circle cx="138.9" cy="574.9" r="6.3" fill="#657482" stroke="#ffffff" stroke-width="1.2" opacity="0.88"/>
<circle cx="138.9" cy="533.8" r="6.7" fill="#b8554b" stroke="#ffffff" stroke-width="1.2" opacity="0.88"/>
<circle cx="138.9" cy="533.8" r="6.7" fill="#b8554b" stroke="#ffffff" stroke-width="1.2" opacity="0.88"/>
<circle cx="244.6" cy="574.9" r="7.1" fill="#2f6fbb" stroke="#ffffff" stroke-width="1.2" opacity="0.88"/>
<circle cx="244.6" cy="533.8" r="7.4" fill="#657482" stroke="#ffffff" stroke-width="1.2" opacity="0.88"/>
<circle cx="297.5" cy="574.9" r="7.4" fill="#2f6fbb" stroke="#ffffff" stroke-width="1.2" opacity="0.88"/>
<circle cx="297.5" cy="574.9" r="7.4" fill="#2f6fbb" stroke="#ffffff" stroke-width="1.2" opacity="0.88"/>
<circle cx="244.6" cy="533.8" r="7.4" fill="#657482" stroke="#ffffff" stroke-width="1.2" opacity="0.88"/>
<circle cx="297.5" cy="533.8" r="7.8" fill="#2f6fbb" stroke="#ffffff" stroke-width="1.2" opacity="0.88"/>
<circle cx="350.4" cy="574.9" r="7.8" fill="#2f6fbb" stroke="#ffffff" stroke-width="1.2" opacity="0.88"/>
<circle cx="138.9" cy="410.6" r="7.8" fill="#b8554b" stroke="#ffffff" stroke-width="1.2" opacity="0.88"/>
<circle cx="138.9" cy="410.6" r="7.8" fill="#b8554b" stroke="#ffffff" stroke-width="1.2" opacity="0.88"/>
<circle cx="244.6" cy="492.8" r="7.8" fill="#657482" stroke="#ffffff" stroke-width="1.2" opacity="0.88"/>
<circle cx="244.6" cy="451.7" r="8.0" fill="#657482" stroke="#ffffff" stroke-width="1.2" opacity="0.88"/>
<circle cx="191.8" cy="410.6" r="8.0" fill="#b8554b" stroke="#ffffff" stroke-width="1.2" opacity="0.88"/>
<circle cx="350.4" cy="533.8" r="8.0" fill="#2f6fbb" stroke="#ffffff" stroke-width="1.2" opacity="0.88"/>
<circle cx="297.5" cy="492.8" r="8.0" fill="#657482" stroke="#ffffff" stroke-width="1.2" opacity="0.88"/>
<circle cx="297.5" cy="492.8" r="8.0" fill="#657482" stroke="#ffffff" stroke-width="1.2" opacity="0.88"/>
<circle cx="297.5" cy="492.8" r="8.0" fill="#657482" stroke="#ffffff" stroke-width="1.2" opacity="0.88"/>
<circle cx="138.9" cy="328.5" r="8.3" fill="#b8554b" stroke="#ffffff" stroke-width="1.2" opacity="0.88"/>
<circle cx="297.5" cy="410.6" r="8.6" fill="#657482" stroke="#ffffff" stroke-width="1.2" opacity="0.88"/>
<circle cx="244.6" cy="369.5" r="8.6" fill="#b8554b" stroke="#ffffff" stroke-width="1.2" opacity="0.88"/>
<circle cx="138.9" cy="287.4" r="8.6" fill="#b8554b" stroke="#ffffff" stroke-width="1.2" opacity="0.88"/>
<circle cx="191.8" cy="328.5" r="8.6" fill="#b8554b" stroke="#ffffff" stroke-width="1.2" opacity="0.88"/>
<circle cx="297.5" cy="369.5" r="8.8" fill="#657482" stroke="#ffffff" stroke-width="1.2" opacity="0.88"/>
<circle cx="191.8" cy="287.4" r="8.8" fill="#b8554b" stroke="#ffffff" stroke-width="1.2" opacity="0.88"/>
<circle cx="191.8" cy="287.4" r="8.8" fill="#b8554b" stroke="#ffffff" stroke-width="1.2" opacity="0.88"/>
<circle cx="350.4" cy="369.5" r="9.0" fill="#657482" stroke="#ffffff" stroke-width="1.2" opacity="0.88"/>
<circle cx="138.9" cy="123.1" r="9.4" fill="#b8554b" stroke="#ffffff" stroke-width="1.2" opacity="0.88"/>
<circle cx="403.2" cy="328.5" r="9.4" fill="#657482" stroke="#ffffff" stroke-width="1.2" opacity="0.88"/>
<circle cx="403.2" cy="328.5" r="9.4" fill="#657482" stroke="#ffffff" stroke-width="1.2" opacity="0.88"/>
<circle cx="456.1" cy="328.5" r="9.6" fill="#657482" stroke="#ffffff" stroke-width="1.2" opacity="0.88"/>
<circle cx="614.8" cy="410.6" r="9.8" fill="#2f6fbb" stroke="#ffffff" stroke-width="1.2" opacity="0.88"/>
<circle cx="720.5" cy="451.7" r="10.0" fill="#2f6fbb" stroke="#ffffff" stroke-width="1.2" opacity="0.88"/>
<circle cx="879.1" cy="451.7" r="10.5" fill="#2f6fbb" stroke="#ffffff" stroke-width="1.2" opacity="0.88"/>
<circle cx="509.0" cy="123.1" r="10.7" fill="#657482" stroke="#ffffff" stroke-width="1.2" opacity="0.88"/>
<circle cx="561.9" cy="164.2" r="10.7" fill="#657482" stroke="#ffffff" stroke-width="1.2" opacity="0.88"/>
<circle cx="614.8" cy="123.1" r="11.0" fill="#657482" stroke="#ffffff" stroke-width="1.2" opacity="0.88"/>
<text x="126.9" y="111.1" class="label" text-anchor="end">В. В. Вертоградова</text>
<text x="889.1" y="443.7" class="label" text-anchor="start">Рыжакова С. И.</text>
<text x="730.5" y="443.7" class="label" text-anchor="start">Лысенко В. Г.</text>
<text x="604.8" y="111.1" class="label" text-anchor="end">Цветкова С. О.</text>
<text x="551.9" y="152.2" class="label" text-anchor="end">Александрова Н. В.</text>
<text x="499.0" y="111.1" class="label" text-anchor="end">Тавастшерна С. С.</text>
<text x="446.1" y="346.5" class="label" text-anchor="end">Дубянский А. М.</text>
<text x="624.8" y="428.6" class="label" text-anchor="start">Корнеева Н. А.</text>
<rect x="669.0" y="72.0" width="252.0" height="100.0" rx="5" fill="#ffffff" stroke="#d8e0e8" opacity="0.94"/>
<circle cx="685.0" cy="94.0" r="6.5" fill="#2f6fbb" stroke="#ffffff" stroke-width="1.2" opacity="0.88"/>
<text x="701.0" y="98.0" class="small" text-anchor="start">Зограф-ориентированные</text>
<circle cx="685.0" cy="120.0" r="6.5" fill="#657482" stroke="#ffffff" stroke-width="1.2" opacity="0.88"/>
<text x="701.0" y="124.0" class="small" text-anchor="start">сбалансированные</text>
<circle cx="685.0" cy="146.0" r="6.5" fill="#b8554b" stroke="#ffffff" stroke-width="1.2" opacity="0.88"/>
<text x="701.0" y="150.0" class="small" text-anchor="start">Рерих-ориентированные</text>
<text x="34.0" y="686.0" class="subtitle" text-anchor="start">Итог: 18 сбалансированных, 12 рерих-ориентированных, 9 зограф-ориентированных.</text>
</svg>
