<svg xmlns="http://www.w3.org/2000/svg" width="1120" height="760" viewBox="0 0 1120 760">
<style>
text{font-family:Arial,'Liberation Sans',sans-serif;fill:#1f2933}.small{font-size:12px}.axis{font-size:13px}.label{font-size:12px}.title{font-size:20px;font-weight:700}.subtitle{font-size:13px;fill:#52616b}.tick{stroke:#c9d2dc;stroke-width:1}.grid{stroke:#edf1f5;stroke-width:1}</style>
<text x="34.0" y="32.0" class="title" text-anchor="start">Обновление состава: новички, ретроспективное ядро и повторные участники</text>
<text x="34.0" y="56.0" class="subtitle" text-anchor="start">Столбцы показывают структуру участников по годам; линия — долю дебютантов и не соединяет лакуны.</text>
<text x="96.0" y="76.0" class="axis" text-anchor="start" font-weight="700">Зографские чтения</text>
<rect x="96.0" y="90.0" width="930.0" height="230.0" rx="0" fill="#ffffff" stroke="#cfd8e3" opacity="1.0"/>
<line x1="96.0" y1="320.0" x2="1026.0" y2="320.0" stroke="#edf1f5" stroke-width="1"/>
<text x="84.0" y="324.0" class="axis" text-anchor="end">0</text>
<line x1="96.0" y1="262.5" x2="1026.0" y2="262.5" stroke="#edf1f5" stroke-width="1"/>
<text x="84.0" y="266.5" class="axis" text-anchor="end">15</text>
<line x1="96.0" y1="205.0" x2="1026.0" y2="205.0" stroke="#edf1f5" stroke-width="1"/>
<text x="84.0" y="209.0" class="axis" text-anchor="end">30</text>
<line x1="96.0" y1="147.5" x2="1026.0" y2="147.5" stroke="#edf1f5" stroke-width="1"/>
<text x="84.0" y="151.5" class="axis" text-anchor="end">45</text>
<line x1="96.0" y1="90.0" x2="1026.0" y2="90.0" stroke="#edf1f5" stroke-width="1"/>
<text x="84.0" y="94.0" class="axis" text-anchor="end">60</text>
<text x="1038.0" y="324.0" class="axis" text-anchor="start">0%</text>
<text x="1038.0" y="209.0" class="axis" text-anchor="start">50%</text>
<text x="1038.0" y="94.0" class="axis" text-anchor="start">100%</text>
<line x1="763.2" y1="90.0" x2="763.2" y2="320.0" stroke="#d6a36a" stroke-width="1.1" stroke-dasharray="4 4"/>
<text x="768.2" y="104.0" class="axis" text-anchor="start">COVID</text>
<line x1="924.9" y1="90.0" x2="924.9" y2="320.0" stroke="#d6a36a" stroke-width="1.1" stroke-dasharray="4 4"/>
<line x1="1005.8" y1="90.0" x2="1005.8" y2="320.0" stroke="#d6a36a" stroke-width="1.1" stroke-dasharray="4 4"/>
<rect x="102.5" y="208.8" width="27.5" height="111.2" rx="0" fill="#7aa6d8" stroke="none" opacity="1.0"/>
<rect x="102.5" y="208.8" width="27.5" height="0.0" rx="0" fill="#aeb8c4" stroke="none" opacity="1.0"/>
<rect x="102.5" y="208.8" width="27.5" height="0.0" rx="0" fill="#2f6fbb" stroke="none" opacity="1.0"/>
<circle cx="116.2" cy="90.0" r="3.5" fill="#8a4f7d" stroke="#ffffff" stroke-width="1.2" opacity="0.88"/>
<rect x="183.3" y="262.5" width="27.5" height="57.5" rx="0" fill="#7aa6d8" stroke="none" opacity="1.0"/>
<rect x="183.3" y="258.7" width="27.5" height="3.8" rx="0" fill="#aeb8c4" stroke="none" opacity="1.0"/>
<rect x="183.3" y="208.8" width="27.5" height="49.8" rx="0" fill="#2f6fbb" stroke="none" opacity="1.0"/>
<circle cx="197.1" cy="201.0" r="3.5" fill="#8a4f7d" stroke="#ffffff" stroke-width="1.2" opacity="0.88"/>
<rect x="223.8" y="277.8" width="27.5" height="42.2" rx="0" fill="#7aa6d8" stroke="none" opacity="1.0"/>
<rect x="223.8" y="266.3" width="27.5" height="11.5" rx="0" fill="#aeb8c4" stroke="none" opacity="1.0"/>
<rect x="223.8" y="208.8" width="27.5" height="57.5" rx="0" fill="#2f6fbb" stroke="none" opacity="1.0"/>
<line x1="197.1" y1="201.0" x2="237.5" y2="232.8" stroke="#8a4f7d" stroke-width="2.2"/>
<circle cx="237.5" cy="232.8" r="3.5" fill="#8a4f7d" stroke="#ffffff" stroke-width="1.2" opacity="0.88"/>
<rect x="264.2" y="293.2" width="27.5" height="26.8" rx="0" fill="#7aa6d8" stroke="none" opacity="1.0"/>
<rect x="264.2" y="289.3" width="27.5" height="3.8" rx="0" fill="#aeb8c4" stroke="none" opacity="1.0"/>
<rect x="264.2" y="220.3" width="27.5" height="69.0" rx="0" fill="#2f6fbb" stroke="none" opacity="1.0"/>
<line x1="237.5" y1="232.8" x2="278.0" y2="258.1" stroke="#8a4f7d" stroke-width="2.2"/>
<circle cx="278.0" cy="258.1" r="3.5" fill="#8a4f7d" stroke="#ffffff" stroke-width="1.2" opacity="0.88"/>
<rect x="304.6" y="293.2" width="27.5" height="26.8" rx="0" fill="#7aa6d8" stroke="none" opacity="1.0"/>
<rect x="304.6" y="277.8" width="27.5" height="15.3" rx="0" fill="#aeb8c4" stroke="none" opacity="1.0"/>
<rect x="304.6" y="201.2" width="27.5" height="76.7" rx="0" fill="#2f6fbb" stroke="none" opacity="1.0"/>
<line x1="278.0" y1="258.1" x2="318.4" y2="268.1" stroke="#8a4f7d" stroke-width="2.2"/>
<circle cx="318.4" cy="268.1" r="3.5" fill="#8a4f7d" stroke="#ffffff" stroke-width="1.2" opacity="0.88"/>
<rect x="345.1" y="297.0" width="27.5" height="23.0" rx="0" fill="#7aa6d8" stroke="none" opacity="1.0"/>
<rect x="345.1" y="289.3" width="27.5" height="7.7" rx="0" fill="#aeb8c4" stroke="none" opacity="1.0"/>
<rect x="345.1" y="220.3" width="27.5" height="69.0" rx="0" fill="#2f6fbb" stroke="none" opacity="1.0"/>
<line x1="318.4" y1="268.1" x2="358.8" y2="266.9" stroke="#8a4f7d" stroke-width="2.2"/>
<circle cx="358.8" cy="266.9" r="3.5" fill="#8a4f7d" stroke="#ffffff" stroke-width="1.2" opacity="0.88"/>
<rect x="385.5" y="293.2" width="27.5" height="26.8" rx="0" fill="#7aa6d8" stroke="none" opacity="1.0"/>
<rect x="385.5" y="277.8" width="27.5" height="15.3" rx="0" fill="#aeb8c4" stroke="none" opacity="1.0"/>
<rect x="385.5" y="189.7" width="27.5" height="88.2" rx="0" fill="#2f6fbb" stroke="none" opacity="1.0"/>
<line x1="358.8" y1="266.9" x2="399.3" y2="272.6" stroke="#8a4f7d" stroke-width="2.2"/>
<circle cx="399.3" cy="272.6" r="3.5" fill="#8a4f7d" stroke="#ffffff" stroke-width="1.2" opacity="0.88"/>
<rect x="425.9" y="281.7" width="27.5" height="38.3" rx="0" fill="#7aa6d8" stroke="none" opacity="1.0"/>
<rect x="425.9" y="277.8" width="27.5" height="3.8" rx="0" fill="#aeb8c4" stroke="none" opacity="1.0"/>
<rect x="425.9" y="193.5" width="27.5" height="84.3" rx="0" fill="#2f6fbb" stroke="none" opacity="1.0"/>
<line x1="399.3" y1="272.6" x2="439.7" y2="250.3" stroke="#8a4f7d" stroke-width="2.2"/>
<circle cx="439.7" cy="250.3" r="3.5" fill="#8a4f7d" stroke="#ffffff" stroke-width="1.2" opacity="0.88"/>
<rect x="466.4" y="289.3" width="27.5" height="30.7" rx="0" fill="#7aa6d8" stroke="none" opacity="1.0"/>
<rect x="466.4" y="281.7" width="27.5" height="7.7" rx="0" fill="#aeb8c4" stroke="none" opacity="1.0"/>
<rect x="466.4" y="182.0" width="27.5" height="99.7" rx="0" fill="#2f6fbb" stroke="none" opacity="1.0"/>
<line x1="439.7" y1="250.3" x2="480.1" y2="268.9" stroke="#8a4f7d" stroke-width="2.2"/>
<circle cx="480.1" cy="268.9" r="3.5" fill="#8a4f7d" stroke="#ffffff" stroke-width="1.2" opacity="0.88"/>
<rect x="506.8" y="293.2" width="27.5" height="26.8" rx="0" fill="#7aa6d8" stroke="none" opacity="1.0"/>
<rect x="506.8" y="285.5" width="27.5" height="7.7" rx="0" fill="#aeb8c4" stroke="none" opacity="1.0"/>
<rect x="506.8" y="178.2" width="27.5" height="107.3" rx="0" fill="#2f6fbb" stroke="none" opacity="1.0"/>
<line x1="480.1" y1="268.9" x2="520.6" y2="276.5" stroke="#8a4f7d" stroke-width="2.2"/>
<circle cx="520.6" cy="276.5" r="3.5" fill="#8a4f7d" stroke="#ffffff" stroke-width="1.2" opacity="0.88"/>
<rect x="547.3" y="285.5" width="27.5" height="34.5" rx="0" fill="#7aa6d8" stroke="none" opacity="1.0"/>
<rect x="547.3" y="270.2" width="27.5" height="15.3" rx="0" fill="#aeb8c4" stroke="none" opacity="1.0"/>
<rect x="547.3" y="143.7" width="27.5" height="126.5" rx="0" fill="#2f6fbb" stroke="none" opacity="1.0"/>
<line x1="520.6" y1="276.5" x2="561.0" y2="275.0" stroke="#8a4f7d" stroke-width="2.2"/>
<circle cx="561.0" cy="275.0" r="3.5" fill="#8a4f7d" stroke="#ffffff" stroke-width="1.2" opacity="0.88"/>
<rect x="587.7" y="266.3" width="27.5" height="53.7" rx="0" fill="#7aa6d8" stroke="none" opacity="1.0"/>
<rect x="587.7" y="258.7" width="27.5" height="7.7" rx="0" fill="#aeb8c4" stroke="none" opacity="1.0"/>
<rect x="587.7" y="155.2" width="27.5" height="103.5" rx="0" fill="#2f6fbb" stroke="none" opacity="1.0"/>
<line x1="561.0" y1="275.0" x2="601.4" y2="245.1" stroke="#8a4f7d" stroke-width="2.2"/>
<circle cx="601.4" cy="245.1" r="3.5" fill="#8a4f7d" stroke="#ffffff" stroke-width="1.2" opacity="0.88"/>
<rect x="628.1" y="281.7" width="27.5" height="38.3" rx="0" fill="#7aa6d8" stroke="none" opacity="1.0"/>
<rect x="628.1" y="262.5" width="27.5" height="19.2" rx="0" fill="#aeb8c4" stroke="none" opacity="1.0"/>
<rect x="628.1" y="155.2" width="27.5" height="107.3" rx="0" fill="#2f6fbb" stroke="none" opacity="1.0"/>
<line x1="601.4" y1="245.1" x2="641.9" y2="266.5" stroke="#8a4f7d" stroke-width="2.2"/>
<circle cx="641.9" cy="266.5" r="3.5" fill="#8a4f7d" stroke="#ffffff" stroke-width="1.2" opacity="0.88"/>
<rect x="668.6" y="289.3" width="27.5" height="30.7" rx="0" fill="#7aa6d8" stroke="none" opacity="1.0"/>
<rect x="668.6" y="266.3" width="27.5" height="23.0" rx="0" fill="#aeb8c4" stroke="none" opacity="1.0"/>
<rect x="668.6" y="143.7" width="27.5" height="122.7" rx="0" fill="#2f6fbb" stroke="none" opacity="1.0"/>
<line x1="641.9" y1="266.5" x2="682.3" y2="280.0" stroke="#8a4f7d" stroke-width="2.2"/>
<circle cx="682.3" cy="280.0" r="3.5" fill="#8a4f7d" stroke="#ffffff" stroke-width="1.2" opacity="0.88"/>
<rect x="709.0" y="277.8" width="27.5" height="42.2" rx="0" fill="#7aa6d8" stroke="none" opacity="1.0"/>
<rect x="709.0" y="262.5" width="27.5" height="15.3" rx="0" fill="#aeb8c4" stroke="none" opacity="1.0"/>
<rect x="709.0" y="116.8" width="27.5" height="145.7" rx="0" fill="#2f6fbb" stroke="none" opacity="1.0"/>
<line x1="682.3" y1="280.0" x2="722.7" y2="272.3" stroke="#8a4f7d" stroke-width="2.2"/>
<circle cx="722.7" cy="272.3" r="3.5" fill="#8a4f7d" stroke="#ffffff" stroke-width="1.2" opacity="0.88"/>
<rect x="749.4" y="270.2" width="27.5" height="49.8" rx="0" fill="#7aa6d8" stroke="none" opacity="1.0"/>
<rect x="749.4" y="262.5" width="27.5" height="7.7" rx="0" fill="#aeb8c4" stroke="none" opacity="1.0"/>
<rect x="749.4" y="143.7" width="27.5" height="118.8" rx="0" fill="#2f6fbb" stroke="none" opacity="1.0"/>
<line x1="722.7" y1="272.3" x2="763.2" y2="255.0" stroke="#8a4f7d" stroke-width="2.2"/>
<circle cx="763.2" cy="255.0" r="3.5" fill="#8a4f7d" stroke="#ffffff" stroke-width="1.2" opacity="0.88"/>
<rect x="789.9" y="300.8" width="27.5" height="19.2" rx="0" fill="#7aa6d8" stroke="none" opacity="1.0"/>
<rect x="789.9" y="274.0" width="27.5" height="26.8" rx="0" fill="#aeb8c4" stroke="none" opacity="1.0"/>
<rect x="789.9" y="132.2" width="27.5" height="141.8" rx="0" fill="#2f6fbb" stroke="none" opacity="1.0"/>
<line x1="763.2" y1="255.0" x2="803.6" y2="296.5" stroke="#8a4f7d" stroke-width="2.2"/>
<circle cx="803.6" cy="296.5" r="3.5" fill="#8a4f7d" stroke="#ffffff" stroke-width="1.2" opacity="0.88"/>
<rect x="830.3" y="304.7" width="27.5" height="15.3" rx="0" fill="#7aa6d8" stroke="none" opacity="1.0"/>
<rect x="830.3" y="285.5" width="27.5" height="19.2" rx="0" fill="#aeb8c4" stroke="none" opacity="1.0"/>
<rect x="830.3" y="132.2" width="27.5" height="153.3" rx="0" fill="#2f6fbb" stroke="none" opacity="1.0"/>
<line x1="803.6" y1="296.5" x2="844.0" y2="301.2" stroke="#8a4f7d" stroke-width="2.2"/>
<circle cx="844.0" cy="301.2" r="3.5" fill="#8a4f7d" stroke="#ffffff" stroke-width="1.2" opacity="0.88"/>
<rect x="870.7" y="300.8" width="27.5" height="19.2" rx="0" fill="#7aa6d8" stroke="none" opacity="1.0"/>
<rect x="870.7" y="285.5" width="27.5" height="15.3" rx="0" fill="#aeb8c4" stroke="none" opacity="1.0"/>
<rect x="870.7" y="155.2" width="27.5" height="130.3" rx="0" fill="#2f6fbb" stroke="none" opacity="1.0"/>
<line x1="844.0" y1="301.2" x2="884.5" y2="293.3" stroke="#8a4f7d" stroke-width="2.2"/>
<circle cx="884.5" cy="293.3" r="3.5" fill="#8a4f7d" stroke="#ffffff" stroke-width="1.2" opacity="0.88"/>
<rect x="911.2" y="281.7" width="27.5" height="38.3" rx="0" fill="#7aa6d8" stroke="none" opacity="1.0"/>
<rect x="911.2" y="254.8" width="27.5" height="26.8" rx="0" fill="#aeb8c4" stroke="none" opacity="1.0"/>
<rect x="911.2" y="120.7" width="27.5" height="134.2" rx="0" fill="#2f6fbb" stroke="none" opacity="1.0"/>
<line x1="884.5" y1="293.3" x2="924.9" y2="275.8" stroke="#8a4f7d" stroke-width="2.2"/>
<circle cx="924.9" cy="275.8" r="3.5" fill="#8a4f7d" stroke="#ffffff" stroke-width="1.2" opacity="0.88"/>
<rect x="951.6" y="289.3" width="27.5" height="30.7" rx="0" fill="#7aa6d8" stroke="none" opacity="1.0"/>
<rect x="951.6" y="251.0" width="27.5" height="38.3" rx="0" fill="#aeb8c4" stroke="none" opacity="1.0"/>
<rect x="951.6" y="105.3" width="27.5" height="145.7" rx="0" fill="#2f6fbb" stroke="none" opacity="1.0"/>
<line x1="924.9" y1="275.8" x2="965.3" y2="287.1" stroke="#8a4f7d" stroke-width="2.2"/>
<circle cx="965.3" cy="287.1" r="3.5" fill="#8a4f7d" stroke="#ffffff" stroke-width="1.2" opacity="0.88"/>
<rect x="992.0" y="247.2" width="27.5" height="72.8" rx="0" fill="#7aa6d8" stroke="none" opacity="1.0"/>
<rect x="992.0" y="208.8" width="27.5" height="38.3" rx="0" fill="#aeb8c4" stroke="none" opacity="1.0"/>
<rect x="992.0" y="86.2" width="27.5" height="122.7" rx="0" fill="#2f6fbb" stroke="none" opacity="1.0"/>
<line x1="965.3" y1="287.1" x2="1005.8" y2="248.4" stroke="#8a4f7d" stroke-width="2.2"/>
<circle cx="1005.8" cy="248.4" r="3.5" fill="#8a4f7d" stroke="#ffffff" stroke-width="1.2" opacity="0.88"/>
<text x="116.2" y="342.0" class="axis" text-anchor="middle">2004</text>
<text x="197.1" y="342.0" class="axis" text-anchor="middle">2006</text>
<text x="278.0" y="342.0" class="axis" text-anchor="middle">2008</text>
<text x="358.8" y="342.0" class="axis" text-anchor="middle">2010</text>
<text x="439.7" y="342.0" class="axis" text-anchor="middle">2012</text>
<text x="520.6" y="342.0" class="axis" text-anchor="middle">2014</text>
<text x="601.4" y="342.0" class="axis" text-anchor="middle">2016</text>
<text x="682.3" y="342.0" class="axis" text-anchor="middle">2018</text>
<text x="763.2" y="342.0" class="axis" text-anchor="middle">2020</text>
<text x="844.0" y="342.0" class="axis" text-anchor="middle">2022</text>
<text x="924.9" y="342.0" class="axis" text-anchor="middle">2024</text>
<text x="1005.8" y="342.0" class="axis" text-anchor="middle">2026</text>
<text x="38.0" y="205.0" class="small" text-anchor="middle" transform="rotate(-90 38.0 205.0)">участников</text>
<text x="1090.0" y="205.0" class="small" text-anchor="middle" transform="rotate(90 1090.0 205.0)">доля новичков</text>
<text x="96.0" y="406.0" class="axis" text-anchor="start" font-weight="700">Рериховские чтения</text>
<rect x="96.0" y="420.0" width="930.0" height="230.0" rx="0" fill="#ffffff" stroke="#cfd8e3" opacity="1.0"/>
<line x1="96.0" y1="650.0" x2="1026.0" y2="650.0" stroke="#edf1f5" stroke-width="1"/>
<text x="84.0" y="654.0" class="axis" text-anchor="end">0</text>
<line x1="96.0" y1="592.5" x2="1026.0" y2="592.5" stroke="#edf1f5" stroke-width="1"/>
<text x="84.0" y="596.5" class="axis" text-anchor="end">15</text>
<line x1="96.0" y1="535.0" x2="1026.0" y2="535.0" stroke="#edf1f5" stroke-width="1"/>
<text x="84.0" y="539.0" class="axis" text-anchor="end">30</text>
<line x1="96.0" y1="477.5" x2="1026.0" y2="477.5" stroke="#edf1f5" stroke-width="1"/>
<text x="84.0" y="481.5" class="axis" text-anchor="end">45</text>
<line x1="96.0" y1="420.0" x2="1026.0" y2="420.0" stroke="#edf1f5" stroke-width="1"/>
<text x="84.0" y="424.0" class="axis" text-anchor="end">60</text>
<text x="1038.0" y="654.0" class="axis" text-anchor="start">0%</text>
<text x="1038.0" y="539.0" class="axis" text-anchor="start">50%</text>
<text x="1038.0" y="424.0" class="axis" text-anchor="start">100%</text>
<line x1="763.2" y1="420.0" x2="763.2" y2="650.0" stroke="#d6a36a" stroke-width="1.1" stroke-dasharray="4 4"/>
<text x="768.2" y="434.0" class="axis" text-anchor="start">COVID</text>
<rect x="264.2" y="573.3" width="27.5" height="76.7" rx="0" fill="#7aa6d8" stroke="none" opacity="1.0"/>
<rect x="264.2" y="573.3" width="27.5" height="0.0" rx="0" fill="#aeb8c4" stroke="none" opacity="1.0"/>
<rect x="264.2" y="573.3" width="27.5" height="0.0" rx="0" fill="#2f6fbb" stroke="none" opacity="1.0"/>
<circle cx="278.0" cy="420.0" r="3.5" fill="#8a4f7d" stroke="#ffffff" stroke-width="1.2" opacity="0.88"/>
<rect x="304.6" y="630.8" width="27.5" height="19.2" rx="0" fill="#7aa6d8" stroke="none" opacity="1.0"/>
<rect x="304.6" y="623.2" width="27.5" height="7.7" rx="0" fill="#aeb8c4" stroke="none" opacity="1.0"/>
<rect x="304.6" y="573.3" width="27.5" height="49.8" rx="0" fill="#2f6fbb" stroke="none" opacity="1.0"/>
<line x1="278.0" y1="420.0" x2="318.4" y2="592.5" stroke="#8a4f7d" stroke-width="2.2"/>
<circle cx="318.4" cy="592.5" r="3.5" fill="#8a4f7d" stroke="#ffffff" stroke-width="1.2" opacity="0.88"/>
<rect x="345.1" y="604.0" width="27.5" height="46.0" rx="0" fill="#7aa6d8" stroke="none" opacity="1.0"/>
<rect x="345.1" y="592.5" width="27.5" height="11.5" rx="0" fill="#aeb8c4" stroke="none" opacity="1.0"/>
<rect x="345.1" y="531.2" width="27.5" height="61.3" rx="0" fill="#2f6fbb" stroke="none" opacity="1.0"/>
<line x1="318.4" y1="592.5" x2="358.8" y2="561.0" stroke="#8a4f7d" stroke-width="2.2"/>
<circle cx="358.8" cy="561.0" r="3.5" fill="#8a4f7d" stroke="#ffffff" stroke-width="1.2" opacity="0.88"/>
<rect x="425.9" y="623.2" width="27.5" height="26.8" rx="0" fill="#7aa6d8" stroke="none" opacity="1.0"/>
<rect x="425.9" y="604.0" width="27.5" height="19.2" rx="0" fill="#aeb8c4" stroke="none" opacity="1.0"/>
<rect x="425.9" y="515.8" width="27.5" height="88.2" rx="0" fill="#2f6fbb" stroke="none" opacity="1.0"/>
<circle cx="439.7" cy="604.0" r="3.5" fill="#8a4f7d" stroke="#ffffff" stroke-width="1.2" opacity="0.88"/>
<rect x="466.4" y="638.5" width="27.5" height="11.5" rx="0" fill="#7aa6d8" stroke="none" opacity="1.0"/>
<rect x="466.4" y="627.0" width="27.5" height="11.5" rx="0" fill="#aeb8c4" stroke="none" opacity="1.0"/>
<rect x="466.4" y="569.5" width="27.5" height="57.5" rx="0" fill="#2f6fbb" stroke="none" opacity="1.0"/>
<line x1="439.7" y1="604.0" x2="480.1" y2="617.1" stroke="#8a4f7d" stroke-width="2.2"/>
<circle cx="480.1" cy="617.1" r="3.5" fill="#8a4f7d" stroke="#ffffff" stroke-width="1.2" opacity="0.88"/>
<rect x="547.3" y="634.7" width="27.5" height="15.3" rx="0" fill="#7aa6d8" stroke="none" opacity="1.0"/>
<rect x="547.3" y="627.0" width="27.5" height="7.7" rx="0" fill="#aeb8c4" stroke="none" opacity="1.0"/>
<rect x="547.3" y="531.2" width="27.5" height="95.8" rx="0" fill="#2f6fbb" stroke="none" opacity="1.0"/>
<circle cx="561.0" cy="620.3" r="3.5" fill="#8a4f7d" stroke="#ffffff" stroke-width="1.2" opacity="0.88"/>
<rect x="587.7" y="623.2" width="27.5" height="26.8" rx="0" fill="#7aa6d8" stroke="none" opacity="1.0"/>
<rect x="587.7" y="623.2" width="27.5" height="0.0" rx="0" fill="#aeb8c4" stroke="none" opacity="1.0"/>
<rect x="587.7" y="535.0" width="27.5" height="88.2" rx="0" fill="#2f6fbb" stroke="none" opacity="1.0"/>
<line x1="561.0" y1="620.3" x2="601.4" y2="596.3" stroke="#8a4f7d" stroke-width="2.2"/>
<circle cx="601.4" cy="596.3" r="3.5" fill="#8a4f7d" stroke="#ffffff" stroke-width="1.2" opacity="0.88"/>
<rect x="628.1" y="634.7" width="27.5" height="15.3" rx="0" fill="#7aa6d8" stroke="none" opacity="1.0"/>
<rect x="628.1" y="623.2" width="27.5" height="11.5" rx="0" fill="#aeb8c4" stroke="none" opacity="1.0"/>
<rect x="628.1" y="523.5" width="27.5" height="99.7" rx="0" fill="#2f6fbb" stroke="none" opacity="1.0"/>
<line x1="601.4" y1="596.3" x2="641.9" y2="622.1" stroke="#8a4f7d" stroke-width="2.2"/>
<circle cx="641.9" cy="622.1" r="3.5" fill="#8a4f7d" stroke="#ffffff" stroke-width="1.2" opacity="0.88"/>
<rect x="668.6" y="650.0" width="27.5" height="0.0" rx="0" fill="#7aa6d8" stroke="none" opacity="1.0"/>
<rect x="668.6" y="627.0" width="27.5" height="23.0" rx="0" fill="#aeb8c4" stroke="none" opacity="1.0"/>
<rect x="668.6" y="512.0" width="27.5" height="115.0" rx="0" fill="#2f6fbb" stroke="none" opacity="1.0"/>
<line x1="641.9" y1="622.1" x2="682.3" y2="650.0" stroke="#8a4f7d" stroke-width="2.2"/>
<circle cx="682.3" cy="650.0" r="3.5" fill="#8a4f7d" stroke="#ffffff" stroke-width="1.2" opacity="0.88"/>
<rect x="709.0" y="642.3" width="27.5" height="7.7" rx="0" fill="#7aa6d8" stroke="none" opacity="1.0"/>
<rect x="709.0" y="634.7" width="27.5" height="7.7" rx="0" fill="#aeb8c4" stroke="none" opacity="1.0"/>
<rect x="709.0" y="527.3" width="27.5" height="107.3" rx="0" fill="#2f6fbb" stroke="none" opacity="1.0"/>
<line x1="682.3" y1="650.0" x2="722.7" y2="635.6" stroke="#8a4f7d" stroke-width="2.2"/>
<circle cx="722.7" cy="635.6" r="3.5" fill="#8a4f7d" stroke="#ffffff" stroke-width="1.2" opacity="0.88"/>
<rect x="749.4" y="630.8" width="27.5" height="19.2" rx="0" fill="#7aa6d8" stroke="none" opacity="1.0"/>
<rect x="749.4" y="623.2" width="27.5" height="7.7" rx="0" fill="#aeb8c4" stroke="none" opacity="1.0"/>
<rect x="749.4" y="535.0" width="27.5" height="88.2" rx="0" fill="#2f6fbb" stroke="none" opacity="1.0"/>
<line x1="722.7" y1="635.6" x2="763.2" y2="611.7" stroke="#8a4f7d" stroke-width="2.2"/>
<circle cx="763.2" cy="611.7" r="3.5" fill="#8a4f7d" stroke="#ffffff" stroke-width="1.2" opacity="0.88"/>
<rect x="789.9" y="623.2" width="27.5" height="26.8" rx="0" fill="#7aa6d8" stroke="none" opacity="1.0"/>
<rect x="789.9" y="607.8" width="27.5" height="15.3" rx="0" fill="#aeb8c4" stroke="none" opacity="1.0"/>
<rect x="789.9" y="523.5" width="27.5" height="84.3" rx="0" fill="#2f6fbb" stroke="none" opacity="1.0"/>
<line x1="763.2" y1="611.7" x2="803.6" y2="601.2" stroke="#8a4f7d" stroke-width="2.2"/>
<circle cx="803.6" cy="601.2" r="3.5" fill="#8a4f7d" stroke="#ffffff" stroke-width="1.2" opacity="0.88"/>
<rect x="830.3" y="650.0" width="27.5" height="0.0" rx="0" fill="#7aa6d8" stroke="none" opacity="1.0"/>
<rect x="830.3" y="619.3" width="27.5" height="30.7" rx="0" fill="#aeb8c4" stroke="none" opacity="1.0"/>
<rect x="830.3" y="546.5" width="27.5" height="72.8" rx="0" fill="#2f6fbb" stroke="none" opacity="1.0"/>
<line x1="803.6" y1="601.2" x2="844.0" y2="650.0" stroke="#8a4f7d" stroke-width="2.2"/>
<circle cx="844.0" cy="650.0" r="3.5" fill="#8a4f7d" stroke="#ffffff" stroke-width="1.2" opacity="0.88"/>
<rect x="870.7" y="646.2" width="27.5" height="3.8" rx="0" fill="#7aa6d8" stroke="none" opacity="1.0"/>
<rect x="870.7" y="630.8" width="27.5" height="15.3" rx="0" fill="#aeb8c4" stroke="none" opacity="1.0"/>
<rect x="870.7" y="584.8" width="27.5" height="46.0" rx="0" fill="#2f6fbb" stroke="none" opacity="1.0"/>
<line x1="844.0" y1="650.0" x2="884.5" y2="636.5" stroke="#8a4f7d" stroke-width="2.2"/>
<circle cx="884.5" cy="636.5" r="3.5" fill="#8a4f7d" stroke="#ffffff" stroke-width="1.2" opacity="0.88"/>
<rect x="911.2" y="607.8" width="27.5" height="42.2" rx="0" fill="#7aa6d8" stroke="none" opacity="1.0"/>
<rect x="911.2" y="581.0" width="27.5" height="26.8" rx="0" fill="#aeb8c4" stroke="none" opacity="1.0"/>
<rect x="911.2" y="531.2" width="27.5" height="49.8" rx="0" fill="#2f6fbb" stroke="none" opacity="1.0"/>
<line x1="884.5" y1="636.5" x2="924.9" y2="568.4" stroke="#8a4f7d" stroke-width="2.2"/>
<circle cx="924.9" cy="568.4" r="3.5" fill="#8a4f7d" stroke="#ffffff" stroke-width="1.2" opacity="0.88"/>
<rect x="951.6" y="581.0" width="27.5" height="69.0" rx="0" fill="#7aa6d8" stroke="none" opacity="1.0"/>
<rect x="951.6" y="554.2" width="27.5" height="26.8" rx="0" fill="#aeb8c4" stroke="none" opacity="1.0"/>
<rect x="951.6" y="496.7" width="27.5" height="57.5" rx="0" fill="#2f6fbb" stroke="none" opacity="1.0"/>
<line x1="924.9" y1="568.4" x2="965.3" y2="546.5" stroke="#8a4f7d" stroke-width="2.2"/>
<circle cx="965.3" cy="546.5" r="3.5" fill="#8a4f7d" stroke="#ffffff" stroke-width="1.2" opacity="0.88"/>
<text x="116.2" y="672.0" class="axis" text-anchor="middle">2004</text>
<text x="197.1" y="672.0" class="axis" text-anchor="middle">2006</text>
<text x="278.0" y="672.0" class="axis" text-anchor="middle">2008</text>
<text x="358.8" y="672.0" class="axis" text-anchor="middle">2010</text>
<text x="439.7" y="672.0" class="axis" text-anchor="middle">2012</text>
<text x="520.6" y="672.0" class="axis" text-anchor="middle">2014</text>
<text x="601.4" y="672.0" class="axis" text-anchor="middle">2016</text>
<text x="682.3" y="672.0" class="axis" text-anchor="middle">2018</text>
<text x="763.2" y="672.0" class="axis" text-anchor="middle">2020</text>
<text x="844.0" y="672.0" class="axis" text-anchor="middle">2022</text>
<text x="924.9" y="672.0" class="axis" text-anchor="middle">2024</text>
<text x="1005.8" y="672.0" class="axis" text-anchor="middle">2026</text>
<text x="38.0" y="535.0" class="small" text-anchor="middle" transform="rotate(-90 38.0 535.0)">участников</text>
<text x="1090.0" y="535.0" class="small" text-anchor="middle" transform="rotate(90 1090.0 535.0)">доля новичков</text>
<rect x="96.0" y="674.0" width="24.0" height="14.0" rx="0" fill="#7aa6d8" stroke="none" opacity="1.0"/>
<text x="130.0" y="686.0" class="small" text-anchor="start">новички</text>
<rect x="326.0" y="674.0" width="24.0" height="14.0" rx="0" fill="#aeb8c4" stroke="none" opacity="1.0"/>
<text x="360.0" y="686.0" class="small" text-anchor="start">прочие повторные</text>
<rect x="556.0" y="674.0" width="24.0" height="14.0" rx="0" fill="#2f6fbb" stroke="none" opacity="1.0"/>
<text x="590.0" y="686.0" class="small" text-anchor="start">ретросп. ядро ≥5 докл.</text>
<line x1="786.0" y1="685.0" x2="812.0" y2="685.0" stroke="#8a4f7d" stroke-width="2.2"/>
<circle cx="799.0" cy="685.0" r="3.5" fill="#8a4f7d" stroke="#ffffff" stroke-width="1.2" opacity="0.88"/>
<text x="820.0" y="686.0" class="small" text-anchor="start">доля новичков</text>
</svg>
