<svg xmlns="http://www.w3.org/2000/svg" width="1120" height="760" viewBox="0 0 1120 760">
<style>
text{font-family:Arial,'Liberation Sans',sans-serif;fill:#1f2933}.small{font-size:12px}.axis{font-size:13px}.label{font-size:12px}.title{font-size:20px;font-weight:700}.subtitle{font-size:13px;fill:#52616b}.tick{stroke:#c9d2dc;stroke-width:1}.grid{stroke:#edf1f5;stroke-width:1}</style>
<text x="34.0" y="32.0" class="title" text-anchor="start">Рис. 2. Обновление состава: новички, ядро и повторные участники</text>
<text x="34.0" y="56.0" class="subtitle" text-anchor="start">Столбцы показывают структуру участников по годам; линия — долю дебютантов.</text>
<text x="96.0" y="76.0" class="axis" text-anchor="start" font-weight="700">Зографские чтения</text>
<rect x="96.0" y="90.0" width="930.0" height="230.0" rx="0" fill="#ffffff" stroke="#cfd8e3" opacity="1.0"/>
<line x1="96.0" y1="320.0" x2="1026.0" y2="320.0" stroke="#edf1f5" stroke-width="1"/>
<text x="84.0" y="324.0" class="axis" text-anchor="end">0</text>
<line x1="96.0" y1="262.5" x2="1026.0" y2="262.5" stroke="#edf1f5" stroke-width="1"/>
<text x="84.0" y="266.5" class="axis" text-anchor="end">15</text>
<line x1="96.0" y1="205.0" x2="1026.0" y2="205.0" stroke="#edf1f5" stroke-width="1"/>
<text x="84.0" y="209.0" class="axis" text-anchor="end">30</text>
<line x1="96.0" y1="147.5" x2="1026.0" y2="147.5" stroke="#edf1f5" stroke-width="1"/>
<text x="84.0" y="151.5" class="axis" text-anchor="end">45</text>
<line x1="96.0" y1="90.0" x2="1026.0" y2="90.0" stroke="#edf1f5" stroke-width="1"/>
<text x="84.0" y="94.0" class="axis" text-anchor="end">60</text>
<text x="1038.0" y="324.0" class="axis" text-anchor="start">0%</text>
<text x="1038.0" y="209.0" class="axis" text-anchor="start">50%</text>
<text x="1038.0" y="94.0" class="axis" text-anchor="start">100%</text>
<rect x="102.5" y="277.8" width="27.5" height="42.2" rx="0" fill="#7aa6d8" stroke="none" opacity="1.0"/>
<rect x="102.5" y="277.8" width="27.5" height="0.0" rx="0" fill="#aeb8c4" stroke="none" opacity="1.0"/>
<rect x="102.5" y="277.8" width="27.5" height="0.0" rx="0" fill="#2f6fbb" stroke="none" opacity="1.0"/>
<circle cx="116.2" cy="90.0" r="3.5" fill="#8a4f7d" stroke="#ffffff" stroke-width="1.2" opacity="0.88"/>
<rect x="183.3" y="243.3" width="27.5" height="76.7" rx="0" fill="#7aa6d8" stroke="none" opacity="1.0"/>
<rect x="183.3" y="235.7" width="27.5" height="7.7" rx="0" fill="#aeb8c4" stroke="none" opacity="1.0"/>
<rect x="183.3" y="224.2" width="27.5" height="11.5" rx="0" fill="#2f6fbb" stroke="none" opacity="1.0"/>
<line x1="116.2" y1="90.0" x2="197.1" y2="136.0" stroke="#8a4f7d" stroke-width="2.2"/>
<circle cx="197.1" cy="136.0" r="3.5" fill="#8a4f7d" stroke="#ffffff" stroke-width="1.2" opacity="0.88"/>
<rect x="223.8" y="281.7" width="27.5" height="38.3" rx="0" fill="#7aa6d8" stroke="none" opacity="1.0"/>
<rect x="223.8" y="266.3" width="27.5" height="15.3" rx="0" fill="#aeb8c4" stroke="none" opacity="1.0"/>
<rect x="223.8" y="231.8" width="27.5" height="34.5" rx="0" fill="#2f6fbb" stroke="none" opacity="1.0"/>
<line x1="197.1" y1="136.0" x2="237.5" y2="220.0" stroke="#8a4f7d" stroke-width="2.2"/>
<circle cx="237.5" cy="220.0" r="3.5" fill="#8a4f7d" stroke="#ffffff" stroke-width="1.2" opacity="0.88"/>
<rect x="345.1" y="304.7" width="27.5" height="15.3" rx="0" fill="#7aa6d8" stroke="none" opacity="1.0"/>
<rect x="345.1" y="300.8" width="27.5" height="3.8" rx="0" fill="#aeb8c4" stroke="none" opacity="1.0"/>
<rect x="345.1" y="277.8" width="27.5" height="23.0" rx="0" fill="#2f6fbb" stroke="none" opacity="1.0"/>
<line x1="237.5" y1="220.0" x2="358.8" y2="236.4" stroke="#8a4f7d" stroke-width="2.2"/>
<circle cx="358.8" cy="236.4" r="3.5" fill="#8a4f7d" stroke="#ffffff" stroke-width="1.2" opacity="0.88"/>
<rect x="385.5" y="266.3" width="27.5" height="53.7" rx="0" fill="#7aa6d8" stroke="none" opacity="1.0"/>
<rect x="385.5" y="258.7" width="27.5" height="7.7" rx="0" fill="#aeb8c4" stroke="none" opacity="1.0"/>
<rect x="385.5" y="208.8" width="27.5" height="49.8" rx="0" fill="#2f6fbb" stroke="none" opacity="1.0"/>
<line x1="358.8" y1="236.4" x2="399.3" y2="209.0" stroke="#8a4f7d" stroke-width="2.2"/>
<circle cx="399.3" cy="209.0" r="3.5" fill="#8a4f7d" stroke="#ffffff" stroke-width="1.2" opacity="0.88"/>
<rect x="425.9" y="274.0" width="27.5" height="46.0" rx="0" fill="#7aa6d8" stroke="none" opacity="1.0"/>
<rect x="425.9" y="270.2" width="27.5" height="3.8" rx="0" fill="#aeb8c4" stroke="none" opacity="1.0"/>
<rect x="425.9" y="205.0" width="27.5" height="65.2" rx="0" fill="#2f6fbb" stroke="none" opacity="1.0"/>
<line x1="399.3" y1="209.0" x2="439.7" y2="228.0" stroke="#8a4f7d" stroke-width="2.2"/>
<circle cx="439.7" cy="228.0" r="3.5" fill="#8a4f7d" stroke="#ffffff" stroke-width="1.2" opacity="0.88"/>
<rect x="466.4" y="289.3" width="27.5" height="30.7" rx="0" fill="#7aa6d8" stroke="none" opacity="1.0"/>
<rect x="466.4" y="281.7" width="27.5" height="7.7" rx="0" fill="#aeb8c4" stroke="none" opacity="1.0"/>
<rect x="466.4" y="208.8" width="27.5" height="72.8" rx="0" fill="#2f6fbb" stroke="none" opacity="1.0"/>
<line x1="439.7" y1="228.0" x2="480.1" y2="256.6" stroke="#8a4f7d" stroke-width="2.2"/>
<circle cx="480.1" cy="256.6" r="3.5" fill="#8a4f7d" stroke="#ffffff" stroke-width="1.2" opacity="0.88"/>
<rect x="506.8" y="289.3" width="27.5" height="30.7" rx="0" fill="#7aa6d8" stroke="none" opacity="1.0"/>
<rect x="506.8" y="274.0" width="27.5" height="15.3" rx="0" fill="#aeb8c4" stroke="none" opacity="1.0"/>
<rect x="506.8" y="178.2" width="27.5" height="95.8" rx="0" fill="#2f6fbb" stroke="none" opacity="1.0"/>
<line x1="480.1" y1="256.6" x2="520.6" y2="270.3" stroke="#8a4f7d" stroke-width="2.2"/>
<circle cx="520.6" cy="270.3" r="3.5" fill="#8a4f7d" stroke="#ffffff" stroke-width="1.2" opacity="0.88"/>
<rect x="668.6" y="258.7" width="27.5" height="61.3" rx="0" fill="#7aa6d8" stroke="none" opacity="1.0"/>
<rect x="668.6" y="247.2" width="27.5" height="11.5" rx="0" fill="#aeb8c4" stroke="none" opacity="1.0"/>
<rect x="668.6" y="159.0" width="27.5" height="88.2" rx="0" fill="#2f6fbb" stroke="none" opacity="1.0"/>
<line x1="520.6" y1="270.3" x2="682.3" y2="232.4" stroke="#8a4f7d" stroke-width="2.2"/>
<circle cx="682.3" cy="232.4" r="3.5" fill="#8a4f7d" stroke="#ffffff" stroke-width="1.2" opacity="0.88"/>
<rect x="709.0" y="285.5" width="27.5" height="34.5" rx="0" fill="#7aa6d8" stroke="none" opacity="1.0"/>
<rect x="709.0" y="251.0" width="27.5" height="34.5" rx="0" fill="#aeb8c4" stroke="none" opacity="1.0"/>
<rect x="709.0" y="139.8" width="27.5" height="111.2" rx="0" fill="#2f6fbb" stroke="none" opacity="1.0"/>
<line x1="682.3" y1="232.4" x2="722.7" y2="276.0" stroke="#8a4f7d" stroke-width="2.2"/>
<circle cx="722.7" cy="276.0" r="3.5" fill="#8a4f7d" stroke="#ffffff" stroke-width="1.2" opacity="0.88"/>
<rect x="749.4" y="251.0" width="27.5" height="69.0" rx="0" fill="#7aa6d8" stroke="none" opacity="1.0"/>
<rect x="749.4" y="224.2" width="27.5" height="26.8" rx="0" fill="#aeb8c4" stroke="none" opacity="1.0"/>
<rect x="749.4" y="143.7" width="27.5" height="80.5" rx="0" fill="#2f6fbb" stroke="none" opacity="1.0"/>
<line x1="722.7" y1="276.0" x2="763.2" y2="230.0" stroke="#8a4f7d" stroke-width="2.2"/>
<circle cx="763.2" cy="230.0" r="3.5" fill="#8a4f7d" stroke="#ffffff" stroke-width="1.2" opacity="0.88"/>
<rect x="789.9" y="300.8" width="27.5" height="19.2" rx="0" fill="#7aa6d8" stroke="none" opacity="1.0"/>
<rect x="789.9" y="243.3" width="27.5" height="57.5" rx="0" fill="#aeb8c4" stroke="none" opacity="1.0"/>
<rect x="789.9" y="147.5" width="27.5" height="95.8" rx="0" fill="#2f6fbb" stroke="none" opacity="1.0"/>
<line x1="763.2" y1="230.0" x2="803.6" y2="294.4" stroke="#8a4f7d" stroke-width="2.2"/>
<circle cx="803.6" cy="294.4" r="3.5" fill="#8a4f7d" stroke="#ffffff" stroke-width="1.2" opacity="0.88"/>
<rect x="830.3" y="304.7" width="27.5" height="15.3" rx="0" fill="#7aa6d8" stroke="none" opacity="1.0"/>
<rect x="830.3" y="266.3" width="27.5" height="38.3" rx="0" fill="#aeb8c4" stroke="none" opacity="1.0"/>
<rect x="830.3" y="178.2" width="27.5" height="88.2" rx="0" fill="#2f6fbb" stroke="none" opacity="1.0"/>
<line x1="803.6" y1="294.4" x2="844.0" y2="295.1" stroke="#8a4f7d" stroke-width="2.2"/>
<circle cx="844.0" cy="295.1" r="3.5" fill="#8a4f7d" stroke="#ffffff" stroke-width="1.2" opacity="0.88"/>
<rect x="870.7" y="312.3" width="27.5" height="7.7" rx="0" fill="#7aa6d8" stroke="none" opacity="1.0"/>
<rect x="870.7" y="308.5" width="27.5" height="3.8" rx="0" fill="#aeb8c4" stroke="none" opacity="1.0"/>
<rect x="870.7" y="266.3" width="27.5" height="42.2" rx="0" fill="#2f6fbb" stroke="none" opacity="1.0"/>
<line x1="844.0" y1="295.1" x2="884.5" y2="287.1" stroke="#8a4f7d" stroke-width="2.2"/>
<circle cx="884.5" cy="287.1" r="3.5" fill="#8a4f7d" stroke="#ffffff" stroke-width="1.2" opacity="0.88"/>
<rect x="911.2" y="320.0" width="27.5" height="0.0" rx="0" fill="#7aa6d8" stroke="none" opacity="1.0"/>
<rect x="911.2" y="316.2" width="27.5" height="3.8" rx="0" fill="#aeb8c4" stroke="none" opacity="1.0"/>
<rect x="911.2" y="312.3" width="27.5" height="3.8" rx="0" fill="#2f6fbb" stroke="none" opacity="1.0"/>
<line x1="884.5" y1="287.1" x2="924.9" y2="320.0" stroke="#8a4f7d" stroke-width="2.2"/>
<circle cx="924.9" cy="320.0" r="3.5" fill="#8a4f7d" stroke="#ffffff" stroke-width="1.2" opacity="0.88"/>
<rect x="951.6" y="277.8" width="27.5" height="42.2" rx="0" fill="#7aa6d8" stroke="none" opacity="1.0"/>
<rect x="951.6" y="201.2" width="27.5" height="76.7" rx="0" fill="#aeb8c4" stroke="none" opacity="1.0"/>
<rect x="951.6" y="105.3" width="27.5" height="95.8" rx="0" fill="#2f6fbb" stroke="none" opacity="1.0"/>
<line x1="924.9" y1="320.0" x2="965.3" y2="274.8" stroke="#8a4f7d" stroke-width="2.2"/>
<circle cx="965.3" cy="274.8" r="3.5" fill="#8a4f7d" stroke="#ffffff" stroke-width="1.2" opacity="0.88"/>
<rect x="992.0" y="247.2" width="27.5" height="72.8" rx="0" fill="#7aa6d8" stroke="none" opacity="1.0"/>
<rect x="992.0" y="182.0" width="27.5" height="65.2" rx="0" fill="#aeb8c4" stroke="none" opacity="1.0"/>
<rect x="992.0" y="90.0" width="27.5" height="92.0" rx="0" fill="#2f6fbb" stroke="none" opacity="1.0"/>
<line x1="965.3" y1="274.8" x2="1005.8" y2="247.2" stroke="#8a4f7d" stroke-width="2.2"/>
<circle cx="1005.8" cy="247.2" r="3.5" fill="#8a4f7d" stroke="#ffffff" stroke-width="1.2" opacity="0.88"/>
<text x="116.2" y="342.0" class="axis" text-anchor="middle">2004</text>
<text x="197.1" y="342.0" class="axis" text-anchor="middle">2006</text>
<text x="278.0" y="342.0" class="axis" text-anchor="middle">2008</text>
<text x="358.8" y="342.0" class="axis" text-anchor="middle">2010</text>
<text x="439.7" y="342.0" class="axis" text-anchor="middle">2012</text>
<text x="520.6" y="342.0" class="axis" text-anchor="middle">2014</text>
<text x="601.4" y="342.0" class="axis" text-anchor="middle">2016</text>
<text x="682.3" y="342.0" class="axis" text-anchor="middle">2018</text>
<text x="763.2" y="342.0" class="axis" text-anchor="middle">2020</text>
<text x="844.0" y="342.0" class="axis" text-anchor="middle">2022</text>
<text x="924.9" y="342.0" class="axis" text-anchor="middle">2024</text>
<text x="1005.8" y="342.0" class="axis" text-anchor="middle">2026</text>
<text x="38.0" y="205.0" class="small" text-anchor="middle" transform="rotate(-90 38.0 205.0)">участников</text>
<text x="1090.0" y="205.0" class="small" text-anchor="middle" transform="rotate(90 1090.0 205.0)">доля новичков</text>
<text x="96.0" y="406.0" class="axis" text-anchor="start" font-weight="700">Рериховские чтения</text>
<rect x="96.0" y="420.0" width="930.0" height="230.0" rx="0" fill="#ffffff" stroke="#cfd8e3" opacity="1.0"/>
<line x1="96.0" y1="650.0" x2="1026.0" y2="650.0" stroke="#edf1f5" stroke-width="1"/>
<text x="84.0" y="654.0" class="axis" text-anchor="end">0</text>
<line x1="96.0" y1="592.5" x2="1026.0" y2="592.5" stroke="#edf1f5" stroke-width="1"/>
<text x="84.0" y="596.5" class="axis" text-anchor="end">15</text>
<line x1="96.0" y1="535.0" x2="1026.0" y2="535.0" stroke="#edf1f5" stroke-width="1"/>
<text x="84.0" y="539.0" class="axis" text-anchor="end">30</text>
<line x1="96.0" y1="477.5" x2="1026.0" y2="477.5" stroke="#edf1f5" stroke-width="1"/>
<text x="84.0" y="481.5" class="axis" text-anchor="end">45</text>
<line x1="96.0" y1="420.0" x2="1026.0" y2="420.0" stroke="#edf1f5" stroke-width="1"/>
<text x="84.0" y="424.0" class="axis" text-anchor="end">60</text>
<text x="1038.0" y="654.0" class="axis" text-anchor="start">0%</text>
<text x="1038.0" y="539.0" class="axis" text-anchor="start">50%</text>
<text x="1038.0" y="424.0" class="axis" text-anchor="start">100%</text>
<rect x="345.1" y="646.2" width="27.5" height="3.8" rx="0" fill="#7aa6d8" stroke="none" opacity="1.0"/>
<rect x="345.1" y="646.2" width="27.5" height="0.0" rx="0" fill="#aeb8c4" stroke="none" opacity="1.0"/>
<rect x="345.1" y="646.2" width="27.5" height="0.0" rx="0" fill="#2f6fbb" stroke="none" opacity="1.0"/>
<circle cx="358.8" cy="420.0" r="3.5" fill="#8a4f7d" stroke="#ffffff" stroke-width="1.2" opacity="0.88"/>
<rect x="425.9" y="538.8" width="27.5" height="111.2" rx="0" fill="#7aa6d8" stroke="none" opacity="1.0"/>
<rect x="425.9" y="538.8" width="27.5" height="0.0" rx="0" fill="#aeb8c4" stroke="none" opacity="1.0"/>
<rect x="425.9" y="535.0" width="27.5" height="3.8" rx="0" fill="#2f6fbb" stroke="none" opacity="1.0"/>
<line x1="358.8" y1="420.0" x2="439.7" y2="427.7" stroke="#8a4f7d" stroke-width="2.2"/>
<circle cx="439.7" cy="427.7" r="3.5" fill="#8a4f7d" stroke="#ffffff" stroke-width="1.2" opacity="0.88"/>
<rect x="547.3" y="607.8" width="27.5" height="42.2" rx="0" fill="#7aa6d8" stroke="none" opacity="1.0"/>
<rect x="547.3" y="596.3" width="27.5" height="11.5" rx="0" fill="#aeb8c4" stroke="none" opacity="1.0"/>
<rect x="547.3" y="538.8" width="27.5" height="57.5" rx="0" fill="#2f6fbb" stroke="none" opacity="1.0"/>
<line x1="439.7" y1="427.7" x2="561.0" y2="562.8" stroke="#8a4f7d" stroke-width="2.2"/>
<circle cx="561.0" cy="562.8" r="3.5" fill="#8a4f7d" stroke="#ffffff" stroke-width="1.2" opacity="0.88"/>
<rect x="587.7" y="623.2" width="27.5" height="26.8" rx="0" fill="#7aa6d8" stroke="none" opacity="1.0"/>
<rect x="587.7" y="615.5" width="27.5" height="7.7" rx="0" fill="#aeb8c4" stroke="none" opacity="1.0"/>
<rect x="587.7" y="542.7" width="27.5" height="72.8" rx="0" fill="#2f6fbb" stroke="none" opacity="1.0"/>
<line x1="561.0" y1="562.8" x2="601.4" y2="592.5" stroke="#8a4f7d" stroke-width="2.2"/>
<circle cx="601.4" cy="592.5" r="3.5" fill="#8a4f7d" stroke="#ffffff" stroke-width="1.2" opacity="0.88"/>
<rect x="628.1" y="634.7" width="27.5" height="15.3" rx="0" fill="#7aa6d8" stroke="none" opacity="1.0"/>
<rect x="628.1" y="611.7" width="27.5" height="23.0" rx="0" fill="#aeb8c4" stroke="none" opacity="1.0"/>
<rect x="628.1" y="538.8" width="27.5" height="72.8" rx="0" fill="#2f6fbb" stroke="none" opacity="1.0"/>
<line x1="601.4" y1="592.5" x2="641.9" y2="618.3" stroke="#8a4f7d" stroke-width="2.2"/>
<circle cx="641.9" cy="618.3" r="3.5" fill="#8a4f7d" stroke="#ffffff" stroke-width="1.2" opacity="0.88"/>
<rect x="668.6" y="642.3" width="27.5" height="7.7" rx="0" fill="#7aa6d8" stroke="none" opacity="1.0"/>
<rect x="668.6" y="615.5" width="27.5" height="26.8" rx="0" fill="#aeb8c4" stroke="none" opacity="1.0"/>
<rect x="668.6" y="523.5" width="27.5" height="92.0" rx="0" fill="#2f6fbb" stroke="none" opacity="1.0"/>
<line x1="641.9" y1="618.3" x2="682.3" y2="636.1" stroke="#8a4f7d" stroke-width="2.2"/>
<circle cx="682.3" cy="636.1" r="3.5" fill="#8a4f7d" stroke="#ffffff" stroke-width="1.2" opacity="0.88"/>
<rect x="709.0" y="638.5" width="27.5" height="11.5" rx="0" fill="#7aa6d8" stroke="none" opacity="1.0"/>
<rect x="709.0" y="627.0" width="27.5" height="11.5" rx="0" fill="#aeb8c4" stroke="none" opacity="1.0"/>
<rect x="709.0" y="535.0" width="27.5" height="92.0" rx="0" fill="#2f6fbb" stroke="none" opacity="1.0"/>
<line x1="682.3" y1="636.1" x2="722.7" y2="627.0" stroke="#8a4f7d" stroke-width="2.2"/>
<circle cx="722.7" cy="627.0" r="3.5" fill="#8a4f7d" stroke="#ffffff" stroke-width="1.2" opacity="0.88"/>
<rect x="749.4" y="630.8" width="27.5" height="19.2" rx="0" fill="#7aa6d8" stroke="none" opacity="1.0"/>
<rect x="749.4" y="619.3" width="27.5" height="11.5" rx="0" fill="#aeb8c4" stroke="none" opacity="1.0"/>
<rect x="749.4" y="535.0" width="27.5" height="84.3" rx="0" fill="#2f6fbb" stroke="none" opacity="1.0"/>
<line x1="722.7" y1="627.0" x2="763.2" y2="611.7" stroke="#8a4f7d" stroke-width="2.2"/>
<circle cx="763.2" cy="611.7" r="3.5" fill="#8a4f7d" stroke="#ffffff" stroke-width="1.2" opacity="0.88"/>
<rect x="789.9" y="623.2" width="27.5" height="26.8" rx="0" fill="#7aa6d8" stroke="none" opacity="1.0"/>
<rect x="789.9" y="611.7" width="27.5" height="11.5" rx="0" fill="#aeb8c4" stroke="none" opacity="1.0"/>
<rect x="789.9" y="535.0" width="27.5" height="76.7" rx="0" fill="#2f6fbb" stroke="none" opacity="1.0"/>
<line x1="763.2" y1="611.7" x2="803.6" y2="596.3" stroke="#8a4f7d" stroke-width="2.2"/>
<circle cx="803.6" cy="596.3" r="3.5" fill="#8a4f7d" stroke="#ffffff" stroke-width="1.2" opacity="0.88"/>
<rect x="830.3" y="650.0" width="27.5" height="0.0" rx="0" fill="#7aa6d8" stroke="none" opacity="1.0"/>
<rect x="830.3" y="619.3" width="27.5" height="30.7" rx="0" fill="#aeb8c4" stroke="none" opacity="1.0"/>
<rect x="830.3" y="550.3" width="27.5" height="69.0" rx="0" fill="#2f6fbb" stroke="none" opacity="1.0"/>
<line x1="803.6" y1="596.3" x2="844.0" y2="650.0" stroke="#8a4f7d" stroke-width="2.2"/>
<circle cx="844.0" cy="650.0" r="3.5" fill="#8a4f7d" stroke="#ffffff" stroke-width="1.2" opacity="0.88"/>
<rect x="870.7" y="642.3" width="27.5" height="7.7" rx="0" fill="#7aa6d8" stroke="none" opacity="1.0"/>
<rect x="870.7" y="630.8" width="27.5" height="11.5" rx="0" fill="#aeb8c4" stroke="none" opacity="1.0"/>
<rect x="870.7" y="584.8" width="27.5" height="46.0" rx="0" fill="#2f6fbb" stroke="none" opacity="1.0"/>
<line x1="844.0" y1="650.0" x2="884.5" y2="622.9" stroke="#8a4f7d" stroke-width="2.2"/>
<circle cx="884.5" cy="622.9" r="3.5" fill="#8a4f7d" stroke="#ffffff" stroke-width="1.2" opacity="0.88"/>
<rect x="911.2" y="615.5" width="27.5" height="34.5" rx="0" fill="#7aa6d8" stroke="none" opacity="1.0"/>
<rect x="911.2" y="592.5" width="27.5" height="23.0" rx="0" fill="#aeb8c4" stroke="none" opacity="1.0"/>
<rect x="911.2" y="542.7" width="27.5" height="49.8" rx="0" fill="#2f6fbb" stroke="none" opacity="1.0"/>
<line x1="884.5" y1="622.9" x2="924.9" y2="576.1" stroke="#8a4f7d" stroke-width="2.2"/>
<circle cx="924.9" cy="576.1" r="3.5" fill="#8a4f7d" stroke="#ffffff" stroke-width="1.2" opacity="0.88"/>
<rect x="951.6" y="596.3" width="27.5" height="53.7" rx="0" fill="#7aa6d8" stroke="none" opacity="1.0"/>
<rect x="951.6" y="565.7" width="27.5" height="30.7" rx="0" fill="#aeb8c4" stroke="none" opacity="1.0"/>
<rect x="951.6" y="512.0" width="27.5" height="53.7" rx="0" fill="#2f6fbb" stroke="none" opacity="1.0"/>
<line x1="924.9" y1="576.1" x2="965.3" y2="560.6" stroke="#8a4f7d" stroke-width="2.2"/>
<circle cx="965.3" cy="560.6" r="3.5" fill="#8a4f7d" stroke="#ffffff" stroke-width="1.2" opacity="0.88"/>
<text x="116.2" y="672.0" class="axis" text-anchor="middle">2004</text>
<text x="197.1" y="672.0" class="axis" text-anchor="middle">2006</text>
<text x="278.0" y="672.0" class="axis" text-anchor="middle">2008</text>
<text x="358.8" y="672.0" class="axis" text-anchor="middle">2010</text>
<text x="439.7" y="672.0" class="axis" text-anchor="middle">2012</text>
<text x="520.6" y="672.0" class="axis" text-anchor="middle">2014</text>
<text x="601.4" y="672.0" class="axis" text-anchor="middle">2016</text>
<text x="682.3" y="672.0" class="axis" text-anchor="middle">2018</text>
<text x="763.2" y="672.0" class="axis" text-anchor="middle">2020</text>
<text x="844.0" y="672.0" class="axis" text-anchor="middle">2022</text>
<text x="924.9" y="672.0" class="axis" text-anchor="middle">2024</text>
<text x="1005.8" y="672.0" class="axis" text-anchor="middle">2026</text>
<text x="38.0" y="535.0" class="small" text-anchor="middle" transform="rotate(-90 38.0 535.0)">участников</text>
<text x="1090.0" y="535.0" class="small" text-anchor="middle" transform="rotate(90 1090.0 535.0)">доля новичков</text>
<rect x="96.0" y="674.0" width="24.0" height="14.0" rx="0" fill="#7aa6d8" stroke="none" opacity="1.0"/>
<text x="130.0" y="686.0" class="small" text-anchor="start">новички</text>
<rect x="306.0" y="674.0" width="24.0" height="14.0" rx="0" fill="#aeb8c4" stroke="none" opacity="1.0"/>
<text x="340.0" y="686.0" class="small" text-anchor="start">прочие повторные</text>
<rect x="516.0" y="674.0" width="24.0" height="14.0" rx="0" fill="#2f6fbb" stroke="none" opacity="1.0"/>
<text x="550.0" y="686.0" class="small" text-anchor="start">ядро ≥5 докладов</text>
<line x1="726.0" y1="685.0" x2="752.0" y2="685.0" stroke="#8a4f7d" stroke-width="2.2"/>
<circle cx="739.0" cy="685.0" r="3.5" fill="#8a4f7d" stroke="#ffffff" stroke-width="1.2" opacity="0.88"/>
<text x="760.0" y="686.0" class="small" text-anchor="start">доля новичков</text>
</svg>
