<svg xmlns="http://www.w3.org/2000/svg" width="1180" height="730" viewBox="0 0 1180 730">
<style>
text{font-family:Arial,'Liberation Sans',sans-serif;fill:#1f2933}.small{font-size:12px}.axis{font-size:13px}.label{font-size:12px}.title{font-size:20px;font-weight:700}.subtitle{font-size:13px;fill:#52616b}.tick{stroke:#c9d2dc;stroke-width:1}.grid{stroke:#edf1f5;stroke-width:1}</style>
<text x="34.0" y="32.0" class="title" text-anchor="start">Тематическая матрица L1 × L2</text>
<text x="34.0" y="56.0" class="subtitle" text-anchor="start">Интенсивность ячейки — доля всех докладов данной площадки; подписи даны для ячеек ≥4%.</text>
<text x="172.0" y="74.0" class="axis" text-anchor="start" font-weight="700">Зографские</text>
<text x="203.0" y="104.0" class="small" text-anchor="middle">вед.</text>
<text x="265.0" y="104.0" class="small" text-anchor="middle">класс.</text>
<text x="327.0" y="104.0" class="small" text-anchor="middle">среднев.</text>
<text x="389.0" y="104.0" class="small" text-anchor="middle">колон.</text>
<text x="451.0" y="104.0" class="small" text-anchor="middle">нов.</text>
<text x="513.0" y="104.0" class="small" text-anchor="middle">совр.</text>
<text x="575.0" y="104.0" class="small" text-anchor="middle">н/о</text>
<text x="162.0" y="141.0" class="small" text-anchor="end">литература</text>
<rect x="172.0" y="116.0" width="60.0" height="40.0" rx="0" fill="rgb(236,242,248)" stroke="#ffffff" opacity="1.0"/>
<rect x="234.0" y="116.0" width="60.0" height="40.0" rx="0" fill="rgb(135,172,215)" stroke="#ffffff" opacity="1.0"/>
<text x="265.0" y="141.0" class="small" text-anchor="middle" fill="#1f2933">9%</text>
<rect x="296.0" y="116.0" width="60.0" height="40.0" rx="0" fill="rgb(181,204,230)" stroke="#ffffff" opacity="1.0"/>
<text x="327.0" y="141.0" class="small" text-anchor="middle" fill="#1f2933">5%</text>
<rect x="358.0" y="116.0" width="60.0" height="40.0" rx="0" fill="rgb(232,239,247)" stroke="#ffffff" opacity="1.0"/>
<rect x="420.0" y="116.0" width="60.0" height="40.0" rx="0" fill="rgb(203,219,237)" stroke="#ffffff" opacity="1.0"/>
<rect x="482.0" y="116.0" width="60.0" height="40.0" rx="0" fill="rgb(205,220,238)" stroke="#ffffff" opacity="1.0"/>
<rect x="544.0" y="116.0" width="60.0" height="40.0" rx="0" fill="rgb(231,238,246)" stroke="#ffffff" opacity="1.0"/>
<text x="162.0" y="183.0" class="small" text-anchor="end">философия</text>
<rect x="172.0" y="158.0" width="60.0" height="40.0" rx="0" fill="rgb(232,239,247)" stroke="#ffffff" opacity="1.0"/>
<rect x="234.0" y="158.0" width="60.0" height="40.0" rx="0" fill="rgb(99,147,204)" stroke="#ffffff" opacity="1.0"/>
<text x="265.0" y="183.0" class="small" text-anchor="middle" fill="#ffffff">12%</text>
<rect x="296.0" y="158.0" width="60.0" height="40.0" rx="0" fill="rgb(198,215,236)" stroke="#ffffff" opacity="1.0"/>
<rect x="358.0" y="158.0" width="60.0" height="40.0" rx="0" fill="rgb(232,239,247)" stroke="#ffffff" opacity="1.0"/>
<rect x="420.0" y="158.0" width="60.0" height="40.0" rx="0" fill="rgb(209,223,239)" stroke="#ffffff" opacity="1.0"/>
<rect x="482.0" y="158.0" width="60.0" height="40.0" rx="0" fill="rgb(232,239,247)" stroke="#ffffff" opacity="1.0"/>
<rect x="544.0" y="158.0" width="60.0" height="40.0" rx="0" fill="rgb(230,237,246)" stroke="#ffffff" opacity="1.0"/>
<text x="162.0" y="225.0" class="small" text-anchor="end">религиоведение</text>
<rect x="172.0" y="200.0" width="60.0" height="40.0" rx="0" fill="rgb(207,222,239)" stroke="#ffffff" opacity="1.0"/>
<rect x="234.0" y="200.0" width="60.0" height="40.0" rx="0" fill="rgb(134,171,215)" stroke="#ffffff" opacity="1.0"/>
<text x="265.0" y="225.0" class="small" text-anchor="middle" fill="#1f2933">9%</text>
<rect x="296.0" y="200.0" width="60.0" height="40.0" rx="0" fill="rgb(149,182,220)" stroke="#ffffff" opacity="1.0"/>
<text x="327.0" y="225.0" class="small" text-anchor="middle" fill="#1f2933">8%</text>
<rect x="358.0" y="200.0" width="60.0" height="40.0" rx="0" fill="rgb(227,235,245)" stroke="#ffffff" opacity="1.0"/>
<rect x="420.0" y="200.0" width="60.0" height="40.0" rx="0" fill="rgb(230,237,246)" stroke="#ffffff" opacity="1.0"/>
<rect x="482.0" y="200.0" width="60.0" height="40.0" rx="0" fill="rgb(228,236,246)" stroke="#ffffff" opacity="1.0"/>
<rect x="544.0" y="200.0" width="60.0" height="40.0" rx="0" fill="rgb(235,241,248)" stroke="#ffffff" opacity="1.0"/>
<text x="162.0" y="267.0" class="small" text-anchor="end">история</text>
<rect x="172.0" y="242.0" width="60.0" height="40.0" rx="0" fill="rgb(238,243,249)" stroke="#ffffff" opacity="1.0"/>
<rect x="234.0" y="242.0" width="60.0" height="40.0" rx="0" fill="rgb(221,232,243)" stroke="#ffffff" opacity="1.0"/>
<rect x="296.0" y="242.0" width="60.0" height="40.0" rx="0" fill="rgb(228,236,246)" stroke="#ffffff" opacity="1.0"/>
<rect x="358.0" y="242.0" width="60.0" height="40.0" rx="0" fill="rgb(171,197,227)" stroke="#ffffff" opacity="1.0"/>
<text x="389.0" y="267.0" class="small" text-anchor="middle" fill="#1f2933">6%</text>
<rect x="420.0" y="242.0" width="60.0" height="40.0" rx="0" fill="rgb(230,237,246)" stroke="#ffffff" opacity="1.0"/>
<rect x="482.0" y="242.0" width="60.0" height="40.0" rx="0" fill="rgb(236,242,248)" stroke="#ffffff" opacity="1.0"/>
<rect x="544.0" y="242.0" width="60.0" height="40.0" rx="0" fill="rgb(239,244,249)" stroke="#ffffff" opacity="1.0"/>
<text x="162.0" y="309.0" class="small" text-anchor="end">лингвистика</text>
<rect x="172.0" y="284.0" width="60.0" height="40.0" rx="0" fill="rgb(213,226,241)" stroke="#ffffff" opacity="1.0"/>
<rect x="234.0" y="284.0" width="60.0" height="40.0" rx="0" fill="rgb(198,215,236)" stroke="#ffffff" opacity="1.0"/>
<rect x="296.0" y="284.0" width="60.0" height="40.0" rx="0" fill="rgb(241,245,250)" stroke="#ffffff" opacity="1.0"/>
<rect x="358.0" y="284.0" width="60.0" height="40.0" rx="0" fill="rgb(238,243,249)" stroke="#ffffff" opacity="1.0"/>
<rect x="420.0" y="284.0" width="60.0" height="40.0" rx="0" fill="rgb(227,235,245)" stroke="#ffffff" opacity="1.0"/>
<rect x="482.0" y="284.0" width="60.0" height="40.0" rx="0" fill="rgb(230,237,246)" stroke="#ffffff" opacity="1.0"/>
<rect x="544.0" y="284.0" width="60.0" height="40.0" rx="0" fill="rgb(228,236,246)" stroke="#ffffff" opacity="1.0"/>
<text x="162.0" y="351.0" class="small" text-anchor="end">искусство/арх.</text>
<rect x="172.0" y="326.0" width="60.0" height="40.0" rx="0" fill="rgb(242,246,250)" stroke="#ffffff" opacity="1.0"/>
<rect x="234.0" y="326.0" width="60.0" height="40.0" rx="0" fill="rgb(227,235,245)" stroke="#ffffff" opacity="1.0"/>
<rect x="296.0" y="326.0" width="60.0" height="40.0" rx="0" fill="rgb(223,233,244)" stroke="#ffffff" opacity="1.0"/>
<rect x="358.0" y="326.0" width="60.0" height="40.0" rx="0" fill="rgb(234,240,247)" stroke="#ffffff" opacity="1.0"/>
<rect x="420.0" y="326.0" width="60.0" height="40.0" rx="0" fill="rgb(234,240,247)" stroke="#ffffff" opacity="1.0"/>
<rect x="482.0" y="326.0" width="60.0" height="40.0" rx="0" fill="rgb(235,241,248)" stroke="#ffffff" opacity="1.0"/>
<rect x="544.0" y="326.0" width="60.0" height="40.0" rx="0" fill="rgb(236,242,248)" stroke="#ffffff" opacity="1.0"/>
<text x="162.0" y="393.0" class="small" text-anchor="end">этнография</text>
<rect x="172.0" y="368.0" width="60.0" height="40.0" rx="0" fill="rgb(242,246,250)" stroke="#ffffff" opacity="1.0"/>
<rect x="234.0" y="368.0" width="60.0" height="40.0" rx="0" fill="rgb(242,246,250)" stroke="#ffffff" opacity="1.0"/>
<rect x="296.0" y="368.0" width="60.0" height="40.0" rx="0" fill="rgb(242,246,250)" stroke="#ffffff" opacity="1.0"/>
<rect x="358.0" y="368.0" width="60.0" height="40.0" rx="0" fill="rgb(235,241,248)" stroke="#ffffff" opacity="1.0"/>
<rect x="420.0" y="368.0" width="60.0" height="40.0" rx="0" fill="rgb(234,240,247)" stroke="#ffffff" opacity="1.0"/>
<rect x="482.0" y="368.0" width="60.0" height="40.0" rx="0" fill="rgb(195,213,235)" stroke="#ffffff" opacity="1.0"/>
<rect x="544.0" y="368.0" width="60.0" height="40.0" rx="0" fill="rgb(236,242,248)" stroke="#ffffff" opacity="1.0"/>
<text x="162.0" y="435.0" class="small" text-anchor="end">тибетология</text>
<rect x="172.0" y="410.0" width="60.0" height="40.0" rx="0" fill="rgb(242,246,250)" stroke="#ffffff" opacity="1.0"/>
<rect x="234.0" y="410.0" width="60.0" height="40.0" rx="0" fill="rgb(242,246,250)" stroke="#ffffff" opacity="1.0"/>
<rect x="296.0" y="410.0" width="60.0" height="40.0" rx="0" fill="rgb(241,245,250)" stroke="#ffffff" opacity="1.0"/>
<rect x="358.0" y="410.0" width="60.0" height="40.0" rx="0" fill="rgb(241,245,250)" stroke="#ffffff" opacity="1.0"/>
<rect x="420.0" y="410.0" width="60.0" height="40.0" rx="0" fill="rgb(242,246,250)" stroke="#ffffff" opacity="1.0"/>
<rect x="482.0" y="410.0" width="60.0" height="40.0" rx="0" fill="rgb(241,245,250)" stroke="#ffffff" opacity="1.0"/>
<rect x="544.0" y="410.0" width="60.0" height="40.0" rx="0" fill="rgb(242,246,250)" stroke="#ffffff" opacity="1.0"/>
<text x="162.0" y="477.0" class="small" text-anchor="end">педагогика</text>
<rect x="172.0" y="452.0" width="60.0" height="40.0" rx="0" fill="rgb(242,246,250)" stroke="#ffffff" opacity="1.0"/>
<rect x="234.0" y="452.0" width="60.0" height="40.0" rx="0" fill="rgb(242,246,250)" stroke="#ffffff" opacity="1.0"/>
<rect x="296.0" y="452.0" width="60.0" height="40.0" rx="0" fill="rgb(242,246,250)" stroke="#ffffff" opacity="1.0"/>
<rect x="358.0" y="452.0" width="60.0" height="40.0" rx="0" fill="rgb(242,246,250)" stroke="#ffffff" opacity="1.0"/>
<rect x="420.0" y="452.0" width="60.0" height="40.0" rx="0" fill="rgb(242,246,250)" stroke="#ffffff" opacity="1.0"/>
<rect x="482.0" y="452.0" width="60.0" height="40.0" rx="0" fill="rgb(239,244,249)" stroke="#ffffff" opacity="1.0"/>
<rect x="544.0" y="452.0" width="60.0" height="40.0" rx="0" fill="rgb(242,246,250)" stroke="#ffffff" opacity="1.0"/>
<text x="162.0" y="519.0" class="small" text-anchor="end">прочее</text>
<rect x="172.0" y="494.0" width="60.0" height="40.0" rx="0" fill="rgb(242,246,250)" stroke="#ffffff" opacity="1.0"/>
<rect x="234.0" y="494.0" width="60.0" height="40.0" rx="0" fill="rgb(241,245,250)" stroke="#ffffff" opacity="1.0"/>
<rect x="296.0" y="494.0" width="60.0" height="40.0" rx="0" fill="rgb(241,245,250)" stroke="#ffffff" opacity="1.0"/>
<rect x="358.0" y="494.0" width="60.0" height="40.0" rx="0" fill="rgb(242,246,250)" stroke="#ffffff" opacity="1.0"/>
<rect x="420.0" y="494.0" width="60.0" height="40.0" rx="0" fill="rgb(241,245,250)" stroke="#ffffff" opacity="1.0"/>
<rect x="482.0" y="494.0" width="60.0" height="40.0" rx="0" fill="rgb(239,244,249)" stroke="#ffffff" opacity="1.0"/>
<rect x="544.0" y="494.0" width="60.0" height="40.0" rx="0" fill="rgb(238,243,249)" stroke="#ffffff" opacity="1.0"/>
<text x="690.0" y="74.0" class="axis" text-anchor="start" font-weight="700">Рериховские</text>
<text x="721.0" y="104.0" class="small" text-anchor="middle">вед.</text>
<text x="783.0" y="104.0" class="small" text-anchor="middle">класс.</text>
<text x="845.0" y="104.0" class="small" text-anchor="middle">среднев.</text>
<text x="907.0" y="104.0" class="small" text-anchor="middle">колон.</text>
<text x="969.0" y="104.0" class="small" text-anchor="middle">нов.</text>
<text x="1031.0" y="104.0" class="small" text-anchor="middle">совр.</text>
<text x="1093.0" y="104.0" class="small" text-anchor="middle">н/о</text>
<text x="680.0" y="141.0" class="small" text-anchor="end">литература</text>
<rect x="690.0" y="116.0" width="60.0" height="40.0" rx="0" fill="rgb(239,244,249)" stroke="#ffffff" opacity="1.0"/>
<rect x="752.0" y="116.0" width="60.0" height="40.0" rx="0" fill="rgb(97,146,203)" stroke="#ffffff" opacity="1.0"/>
<text x="783.0" y="141.0" class="small" text-anchor="middle" fill="#ffffff">12%</text>
<rect x="814.0" y="116.0" width="60.0" height="40.0" rx="0" fill="rgb(188,208,232)" stroke="#ffffff" opacity="1.0"/>
<text x="845.0" y="141.0" class="small" text-anchor="middle" fill="#1f2933">4%</text>
<rect x="876.0" y="116.0" width="60.0" height="40.0" rx="0" fill="rgb(239,244,249)" stroke="#ffffff" opacity="1.0"/>
<rect x="938.0" y="116.0" width="60.0" height="40.0" rx="0" fill="rgb(219,230,242)" stroke="#ffffff" opacity="1.0"/>
<rect x="1000.0" y="116.0" width="60.0" height="40.0" rx="0" fill="rgb(242,246,250)" stroke="#ffffff" opacity="1.0"/>
<rect x="1062.0" y="116.0" width="60.0" height="40.0" rx="0" fill="rgb(239,244,249)" stroke="#ffffff" opacity="1.0"/>
<text x="680.0" y="183.0" class="small" text-anchor="end">философия</text>
<rect x="690.0" y="158.0" width="60.0" height="40.0" rx="0" fill="rgb(242,246,250)" stroke="#ffffff" opacity="1.0"/>
<rect x="752.0" y="158.0" width="60.0" height="40.0" rx="0" fill="rgb(149,182,220)" stroke="#ffffff" opacity="1.0"/>
<text x="783.0" y="183.0" class="small" text-anchor="middle" fill="#1f2933">8%</text>
<rect x="814.0" y="158.0" width="60.0" height="40.0" rx="0" fill="rgb(219,230,242)" stroke="#ffffff" opacity="1.0"/>
<rect x="876.0" y="158.0" width="60.0" height="40.0" rx="0" fill="rgb(242,246,250)" stroke="#ffffff" opacity="1.0"/>
<rect x="938.0" y="158.0" width="60.0" height="40.0" rx="0" fill="rgb(234,241,247)" stroke="#ffffff" opacity="1.0"/>
<rect x="1000.0" y="158.0" width="60.0" height="40.0" rx="0" fill="rgb(242,246,250)" stroke="#ffffff" opacity="1.0"/>
<rect x="1062.0" y="158.0" width="60.0" height="40.0" rx="0" fill="rgb(239,244,249)" stroke="#ffffff" opacity="1.0"/>
<text x="680.0" y="225.0" class="small" text-anchor="end">религиоведение</text>
<rect x="690.0" y="200.0" width="60.0" height="40.0" rx="0" fill="rgb(214,226,241)" stroke="#ffffff" opacity="1.0"/>
<rect x="752.0" y="200.0" width="60.0" height="40.0" rx="0" fill="rgb(47,111,187)" stroke="#ffffff" opacity="1.0"/>
<text x="783.0" y="225.0" class="small" text-anchor="middle" fill="#ffffff">16%</text>
<rect x="814.0" y="200.0" width="60.0" height="40.0" rx="0" fill="rgb(128,167,213)" stroke="#ffffff" opacity="1.0"/>
<text x="845.0" y="225.0" class="small" text-anchor="middle" fill="#ffffff">9%</text>
<rect x="876.0" y="200.0" width="60.0" height="40.0" rx="0" fill="rgb(242,246,250)" stroke="#ffffff" opacity="1.0"/>
<rect x="938.0" y="200.0" width="60.0" height="40.0" rx="0" fill="rgb(229,237,246)" stroke="#ffffff" opacity="1.0"/>
<rect x="1000.0" y="200.0" width="60.0" height="40.0" rx="0" fill="rgb(227,235,245)" stroke="#ffffff" opacity="1.0"/>
<rect x="1062.0" y="200.0" width="60.0" height="40.0" rx="0" fill="rgb(237,242,248)" stroke="#ffffff" opacity="1.0"/>
<text x="680.0" y="267.0" class="small" text-anchor="end">история</text>
<rect x="690.0" y="242.0" width="60.0" height="40.0" rx="0" fill="rgb(237,242,248)" stroke="#ffffff" opacity="1.0"/>
<rect x="752.0" y="242.0" width="60.0" height="40.0" rx="0" fill="rgb(177,201,229)" stroke="#ffffff" opacity="1.0"/>
<text x="783.0" y="267.0" class="small" text-anchor="middle" fill="#1f2933">5%</text>
<rect x="814.0" y="242.0" width="60.0" height="40.0" rx="0" fill="rgb(154,185,222)" stroke="#ffffff" opacity="1.0"/>
<text x="845.0" y="267.0" class="small" text-anchor="middle" fill="#1f2933">7%</text>
<rect x="876.0" y="242.0" width="60.0" height="40.0" rx="0" fill="rgb(211,225,240)" stroke="#ffffff" opacity="1.0"/>
<rect x="938.0" y="242.0" width="60.0" height="40.0" rx="0" fill="rgb(201,217,237)" stroke="#ffffff" opacity="1.0"/>
<rect x="1000.0" y="242.0" width="60.0" height="40.0" rx="0" fill="rgb(239,244,249)" stroke="#ffffff" opacity="1.0"/>
<rect x="1062.0" y="242.0" width="60.0" height="40.0" rx="0" fill="rgb(239,244,249)" stroke="#ffffff" opacity="1.0"/>
<text x="680.0" y="309.0" class="small" text-anchor="end">лингвистика</text>
<rect x="690.0" y="284.0" width="60.0" height="40.0" rx="0" fill="rgb(232,239,247)" stroke="#ffffff" opacity="1.0"/>
<rect x="752.0" y="284.0" width="60.0" height="40.0" rx="0" fill="rgb(201,217,237)" stroke="#ffffff" opacity="1.0"/>
<rect x="814.0" y="284.0" width="60.0" height="40.0" rx="0" fill="rgb(234,241,247)" stroke="#ffffff" opacity="1.0"/>
<rect x="876.0" y="284.0" width="60.0" height="40.0" rx="0" fill="rgb(242,246,250)" stroke="#ffffff" opacity="1.0"/>
<rect x="938.0" y="284.0" width="60.0" height="40.0" rx="0" fill="rgb(221,232,243)" stroke="#ffffff" opacity="1.0"/>
<rect x="1000.0" y="284.0" width="60.0" height="40.0" rx="0" fill="rgb(239,244,249)" stroke="#ffffff" opacity="1.0"/>
<rect x="1062.0" y="284.0" width="60.0" height="40.0" rx="0" fill="rgb(211,225,240)" stroke="#ffffff" opacity="1.0"/>
<text x="680.0" y="351.0" class="small" text-anchor="end">искусство/арх.</text>
<rect x="690.0" y="326.0" width="60.0" height="40.0" rx="0" fill="rgb(242,246,250)" stroke="#ffffff" opacity="1.0"/>
<rect x="752.0" y="326.0" width="60.0" height="40.0" rx="0" fill="rgb(211,225,240)" stroke="#ffffff" opacity="1.0"/>
<rect x="814.0" y="326.0" width="60.0" height="40.0" rx="0" fill="rgb(196,214,235)" stroke="#ffffff" opacity="1.0"/>
<rect x="876.0" y="326.0" width="60.0" height="40.0" rx="0" fill="rgb(234,241,247)" stroke="#ffffff" opacity="1.0"/>
<rect x="938.0" y="326.0" width="60.0" height="40.0" rx="0" fill="rgb(227,235,245)" stroke="#ffffff" opacity="1.0"/>
<rect x="1000.0" y="326.0" width="60.0" height="40.0" rx="0" fill="rgb(242,246,250)" stroke="#ffffff" opacity="1.0"/>
<rect x="1062.0" y="326.0" width="60.0" height="40.0" rx="0" fill="rgb(234,241,247)" stroke="#ffffff" opacity="1.0"/>
<text x="680.0" y="393.0" class="small" text-anchor="end">этнография</text>
<rect x="690.0" y="368.0" width="60.0" height="40.0" rx="0" fill="rgb(242,246,250)" stroke="#ffffff" opacity="1.0"/>
<rect x="752.0" y="368.0" width="60.0" height="40.0" rx="0" fill="rgb(242,246,250)" stroke="#ffffff" opacity="1.0"/>
<rect x="814.0" y="368.0" width="60.0" height="40.0" rx="0" fill="rgb(239,244,249)" stroke="#ffffff" opacity="1.0"/>
<rect x="876.0" y="368.0" width="60.0" height="40.0" rx="0" fill="rgb(242,246,250)" stroke="#ffffff" opacity="1.0"/>
<rect x="938.0" y="368.0" width="60.0" height="40.0" rx="0" fill="rgb(234,241,247)" stroke="#ffffff" opacity="1.0"/>
<rect x="1000.0" y="368.0" width="60.0" height="40.0" rx="0" fill="rgb(237,242,248)" stroke="#ffffff" opacity="1.0"/>
<rect x="1062.0" y="368.0" width="60.0" height="40.0" rx="0" fill="rgb(237,242,248)" stroke="#ffffff" opacity="1.0"/>
<text x="680.0" y="435.0" class="small" text-anchor="end">тибетология</text>
<rect x="690.0" y="410.0" width="60.0" height="40.0" rx="0" fill="rgb(242,246,250)" stroke="#ffffff" opacity="1.0"/>
<rect x="752.0" y="410.0" width="60.0" height="40.0" rx="0" fill="rgb(242,246,250)" stroke="#ffffff" opacity="1.0"/>
<rect x="814.0" y="410.0" width="60.0" height="40.0" rx="0" fill="rgb(239,244,249)" stroke="#ffffff" opacity="1.0"/>
<rect x="876.0" y="410.0" width="60.0" height="40.0" rx="0" fill="rgb(242,246,250)" stroke="#ffffff" opacity="1.0"/>
<rect x="938.0" y="410.0" width="60.0" height="40.0" rx="0" fill="rgb(242,246,250)" stroke="#ffffff" opacity="1.0"/>
<rect x="1000.0" y="410.0" width="60.0" height="40.0" rx="0" fill="rgb(242,246,250)" stroke="#ffffff" opacity="1.0"/>
<rect x="1062.0" y="410.0" width="60.0" height="40.0" rx="0" fill="rgb(242,246,250)" stroke="#ffffff" opacity="1.0"/>
<text x="680.0" y="477.0" class="small" text-anchor="end">педагогика</text>
<rect x="690.0" y="452.0" width="60.0" height="40.0" rx="0" fill="rgb(242,246,250)" stroke="#ffffff" opacity="1.0"/>
<rect x="752.0" y="452.0" width="60.0" height="40.0" rx="0" fill="rgb(242,246,250)" stroke="#ffffff" opacity="1.0"/>
<rect x="814.0" y="452.0" width="60.0" height="40.0" rx="0" fill="rgb(242,246,250)" stroke="#ffffff" opacity="1.0"/>
<rect x="876.0" y="452.0" width="60.0" height="40.0" rx="0" fill="rgb(242,246,250)" stroke="#ffffff" opacity="1.0"/>
<rect x="938.0" y="452.0" width="60.0" height="40.0" rx="0" fill="rgb(242,246,250)" stroke="#ffffff" opacity="1.0"/>
<rect x="1000.0" y="452.0" width="60.0" height="40.0" rx="0" fill="rgb(242,246,250)" stroke="#ffffff" opacity="1.0"/>
<rect x="1062.0" y="452.0" width="60.0" height="40.0" rx="0" fill="rgb(242,246,250)" stroke="#ffffff" opacity="1.0"/>
<text x="680.0" y="519.0" class="small" text-anchor="end">прочее</text>
<rect x="690.0" y="494.0" width="60.0" height="40.0" rx="0" fill="rgb(242,246,250)" stroke="#ffffff" opacity="1.0"/>
<rect x="752.0" y="494.0" width="60.0" height="40.0" rx="0" fill="rgb(239,244,249)" stroke="#ffffff" opacity="1.0"/>
<rect x="814.0" y="494.0" width="60.0" height="40.0" rx="0" fill="rgb(239,244,249)" stroke="#ffffff" opacity="1.0"/>
<rect x="876.0" y="494.0" width="60.0" height="40.0" rx="0" fill="rgb(242,246,250)" stroke="#ffffff" opacity="1.0"/>
<rect x="938.0" y="494.0" width="60.0" height="40.0" rx="0" fill="rgb(239,244,249)" stroke="#ffffff" opacity="1.0"/>
<rect x="1000.0" y="494.0" width="60.0" height="40.0" rx="0" fill="rgb(242,246,250)" stroke="#ffffff" opacity="1.0"/>
<rect x="1062.0" y="494.0" width="60.0" height="40.0" rx="0" fill="rgb(239,244,249)" stroke="#ffffff" opacity="1.0"/>
<rect x="172.0" y="655.0" width="42.0" height="14.0" rx="0" fill="rgb(242,246,250)" stroke="none" opacity="1.0"/>
<rect x="214.0" y="655.0" width="42.0" height="14.0" rx="0" fill="rgb(203,219,237)" stroke="none" opacity="1.0"/>
<rect x="256.0" y="655.0" width="42.0" height="14.0" rx="0" fill="rgb(164,192,225)" stroke="none" opacity="1.0"/>
<rect x="298.0" y="655.0" width="42.0" height="14.0" rx="0" fill="rgb(125,165,212)" stroke="none" opacity="1.0"/>
<rect x="340.0" y="655.0" width="42.0" height="14.0" rx="0" fill="rgb(86,138,200)" stroke="none" opacity="1.0"/>
<rect x="382.0" y="655.0" width="42.0" height="14.0" rx="0" fill="rgb(47,111,187)" stroke="none" opacity="1.0"/>
<text x="172.0" y="689.0" class="small" text-anchor="start">0%</text>
<text x="424.0" y="689.0" class="small" text-anchor="end">16%+</text>
</svg>
