<svg xmlns="http://www.w3.org/2000/svg" width="1080" height="760" viewBox="0 0 1080 760">
<style>text{font-family:Arial,'Liberation Sans',sans-serif;fill:#1f2933}.title{font-size:20px;font-weight:700}.sub{font-size:13px;fill:#52616b}.axis{font-size:12px}.label{font-size:11px}</style>
<text x="34.0" y="32.0" class="title" text-anchor="start">Ключевые слова заголовков: сдвиг по периодам</text>
<text x="34.0" y="56.0" class="sub" text-anchor="start">Log-odds по document frequency: слева 2004-2017, справа 2018-2026.</text>
<rect x="260.0" y="60.0" width="660.0" height="610.0" fill="#ffffff" stroke="#cfd8e3"/>
<line x1="590.0" y1="60.0" x2="590.0" y2="670.0" stroke="#8b98a5" stroke-width="1.2"/>
<text x="582.0" y="50.0" class="axis" text-anchor="end">0</text>
<text x="260.0" y="50.0" class="axis" text-anchor="start" font-weight="700">2004-2017</text>
<text x="920.0" y="50.0" class="axis" text-anchor="end" font-weight="700">2018-2026</text>
<line x1="590.0" y1="82.0" x2="386.6" y2="82.0" stroke="#b8554b" stroke-width="8"/>
<text x="376.6" y="86.0" class="axis" text-anchor="end">символика</text>
<text x="938.0" y="86.0" class="label" text-anchor="start">7 / 1</text>
<line x1="590.0" y1="106.0" x2="386.6" y2="106.0" stroke="#b8554b" stroke-width="8"/>
<text x="376.6" y="110.0" class="axis" text-anchor="end">Шри-Ланка</text>
<text x="938.0" y="110.0" class="label" text-anchor="start">7 / 1</text>
<line x1="590.0" y1="130.0" x2="386.6" y2="130.0" stroke="#b8554b" stroke-width="8"/>
<text x="376.6" y="134.0" class="axis" text-anchor="end">возрождение</text>
<text x="938.0" y="134.0" class="label" text-anchor="start">7 / 1</text>
<line x1="590.0" y1="154.0" x2="380.8" y2="154.0" stroke="#b8554b" stroke-width="8"/>
<text x="370.8" y="158.0" class="axis" text-anchor="end">концепция</text>
<text x="938.0" y="158.0" class="label" text-anchor="start">16 / 7</text>
<line x1="590.0" y1="178.0" x2="376.3" y2="178.0" stroke="#b8554b" stroke-width="8"/>
<text x="366.3" y="182.0" class="axis" text-anchor="end">стиль</text>
<text x="938.0" y="182.0" class="label" text-anchor="start">9 / 2</text>
<line x1="590.0" y1="202.0" x2="376.3" y2="202.0" stroke="#b8554b" stroke-width="8"/>
<text x="366.3" y="206.0" class="axis" text-anchor="end">описание</text>
<text x="938.0" y="206.0" class="label" text-anchor="start">9 / 2</text>
<line x1="590.0" y1="226.0" x2="376.3" y2="226.0" stroke="#b8554b" stroke-width="8"/>
<text x="366.3" y="230.0" class="axis" text-anchor="end">кашмирский</text>
<text x="938.0" y="230.0" class="label" text-anchor="start">9 / 2</text>
<line x1="590.0" y1="250.0" x2="368.9" y2="250.0" stroke="#b8554b" stroke-width="8"/>
<text x="358.9" y="254.0" class="axis" text-anchor="end" font-weight="700">царь</text>
<text x="938.0" y="254.0" class="label" text-anchor="start">8 / 1</text>
<line x1="590.0" y1="274.0" x2="368.9" y2="274.0" stroke="#b8554b" stroke-width="8"/>
<text x="358.9" y="278.0" class="axis" text-anchor="end" font-weight="700">жанр</text>
<text x="938.0" y="278.0" class="label" text-anchor="start">8 / 1</text>
<line x1="590.0" y1="298.0" x2="353.0" y2="298.0" stroke="#b8554b" stroke-width="8"/>
<text x="343.0" y="302.0" class="axis" text-anchor="end" font-weight="700">восприятие</text>
<text x="938.0" y="302.0" class="label" text-anchor="start">9 / 1</text>
<line x1="590.0" y1="322.0" x2="310.2" y2="322.0" stroke="#b8554b" stroke-width="8"/>
<text x="300.2" y="326.0" class="axis" text-anchor="end" font-weight="700">термин</text>
<text x="938.0" y="326.0" class="label" text-anchor="start">16 / 4</text>
<line x1="590.0" y1="346.0" x2="298.1" y2="346.0" stroke="#b8554b" stroke-width="8"/>
<text x="288.1" y="350.0" class="axis" text-anchor="end" font-weight="700">текст</text>
<text x="938.0" y="350.0" class="label" text-anchor="start">67 / 43</text>
<line x1="590.0" y1="370.0" x2="868.5" y2="370.0" stroke="#2f6fbb" stroke-width="8"/>
<text x="878.5" y="374.0" class="axis" text-anchor="start" font-weight="700">бхакти</text>
<text x="938.0" y="374.0" class="label" text-anchor="start">1 / 13</text>
<line x1="590.0" y1="394.0" x2="848.4" y2="394.0" stroke="#2f6fbb" stroke-width="8"/>
<text x="858.4" y="398.0" class="axis" text-anchor="start" font-weight="700">философия</text>
<text x="938.0" y="398.0" class="label" text-anchor="start">18 / 36</text>
<line x1="590.0" y1="418.0" x2="845.4" y2="418.0" stroke="#2f6fbb" stroke-width="8"/>
<text x="855.4" y="422.0" class="axis" text-anchor="start" font-weight="700">русский</text>
<text x="938.0" y="422.0" class="label" text-anchor="start">1 / 11</text>
<line x1="590.0" y1="442.0" x2="806.4" y2="442.0" stroke="#2f6fbb" stroke-width="8"/>
<text x="816.4" y="446.0" class="axis" text-anchor="start">коллекция</text>
<text x="938.0" y="446.0" class="label" text-anchor="start">6 / 16</text>
<line x1="590.0" y1="466.0" x2="802.4" y2="466.0" stroke="#2f6fbb" stroke-width="8"/>
<text x="812.4" y="470.0" class="axis" text-anchor="start">предмет</text>
<text x="938.0" y="470.0" class="label" text-anchor="start">0 / 8</text>
<line x1="590.0" y1="490.0" x2="792.7" y2="490.0" stroke="#2f6fbb" stroke-width="8"/>
<text x="802.7" y="494.0" class="axis" text-anchor="start">Лалитавистара</text>
<text x="938.0" y="494.0" class="label" text-anchor="start">2 / 9</text>
<line x1="590.0" y1="514.0" x2="792.1" y2="514.0" stroke="#2f6fbb" stroke-width="8"/>
<text x="802.1" y="518.0" class="axis" text-anchor="start">след</text>
<text x="938.0" y="518.0" class="label" text-anchor="start">0 / 7</text>
<line x1="590.0" y1="538.0" x2="789.6" y2="538.0" stroke="#2f6fbb" stroke-width="8"/>
<text x="799.6" y="542.0" class="axis" text-anchor="start">этимология</text>
<text x="938.0" y="542.0" class="label" text-anchor="start">4 / 12</text>
<line x1="590.0" y1="562.0" x2="780.3" y2="562.0" stroke="#2f6fbb" stroke-width="8"/>
<text x="790.3" y="566.0" class="axis" text-anchor="start">Вивекананда</text>
<text x="938.0" y="566.0" class="label" text-anchor="start">0 / 6</text>
<line x1="590.0" y1="586.0" x2="780.3" y2="586.0" stroke="#2f6fbb" stroke-width="8"/>
<text x="790.3" y="590.0" class="axis" text-anchor="start">куллуи</text>
<text x="938.0" y="590.0" class="label" text-anchor="start">0 / 6</text>
<line x1="590.0" y1="610.0" x2="780.3" y2="610.0" stroke="#2f6fbb" stroke-width="8"/>
<text x="790.3" y="614.0" class="axis" text-anchor="start">родство</text>
<text x="938.0" y="614.0" class="label" text-anchor="start">0 / 6</text>
<line x1="590.0" y1="634.0" x2="775.8" y2="634.0" stroke="#2f6fbb" stroke-width="8"/>
<text x="785.8" y="638.0" class="axis" text-anchor="start">Индия</text>
<text x="938.0" y="638.0" class="label" text-anchor="start">79 / 102</text>
<text x="938.0" y="50.0" class="label" text-anchor="start">df early/late</text>
<text x="34.0" y="738.0" class="sub" text-anchor="start">Показаны термины с наибольшим абсолютным z-score; римские числительные и служебные слова удалены.</text>
</svg>
