<svg xmlns="http://www.w3.org/2000/svg" width="980" height="500" viewBox="0 0 980 500">
<style>
text{font-family:Arial,'Liberation Sans',sans-serif;fill:#1f2933}.small{font-size:12px}.axis{font-size:13px}.label{font-size:12px}.title{font-size:20px;font-weight:700}.subtitle{font-size:13px;fill:#52616b}.tick{stroke:#c9d2dc;stroke-width:1}.grid{stroke:#edf1f5;stroke-width:1}</style>
<text x="34.0" y="32.0" class="title" text-anchor="start">Зографские чтения до и после 2025 г.: хронологический профиль</text>
<text x="34.0" y="56.0" class="subtitle" text-anchor="start">Сравнение эры Василькова (до 2024) и эры Альбедиль — Иванова (2025–2026) по периодам L2.</text>
<rect x="92.0" y="96.0" width="760.0" height="300.0" rx="0" fill="#ffffff" stroke="#cfd8e3" opacity="1.0"/>
<line x1="92.0" y1="396.0" x2="852.0" y2="396.0" stroke="#edf1f5" stroke-width="1"/>
<text x="80.0" y="400.0" class="axis" text-anchor="end">0%</text>
<line x1="92.0" y1="321.0" x2="852.0" y2="321.0" stroke="#edf1f5" stroke-width="1"/>
<text x="80.0" y="325.0" class="axis" text-anchor="end">10%</text>
<line x1="92.0" y1="246.0" x2="852.0" y2="246.0" stroke="#edf1f5" stroke-width="1"/>
<text x="80.0" y="250.0" class="axis" text-anchor="end">20%</text>
<line x1="92.0" y1="171.0" x2="852.0" y2="171.0" stroke="#edf1f5" stroke-width="1"/>
<text x="80.0" y="175.0" class="axis" text-anchor="end">30%</text>
<line x1="92.0" y1="96.0" x2="852.0" y2="96.0" stroke="#edf1f5" stroke-width="1"/>
<text x="80.0" y="100.0" class="axis" text-anchor="end">40%</text>
<rect x="107.2" y="357.0" width="34.7" height="39.0" rx="0" fill="#2f6fbb" stroke="none" opacity="1.0"/>
<rect x="150.6" y="350.2" width="34.7" height="45.8" rx="0" fill="#d49a3a" stroke="none" opacity="1.0"/>
<text x="146.3" y="420.0" class="axis" text-anchor="middle">вед.</text>
<rect x="215.8" y="124.5" width="34.7" height="271.5" rx="0" fill="#2f6fbb" stroke="none" opacity="1.0"/>
<text x="233.1" y="117.5" class="label" text-anchor="middle">36.2</text>
<rect x="259.2" y="198.8" width="34.7" height="197.2" rx="0" fill="#d49a3a" stroke="none" opacity="1.0"/>
<text x="276.6" y="191.8" class="label" text-anchor="middle">26.3</text>
<text x="254.9" y="420.0" class="axis" text-anchor="middle">класс.</text>
<rect x="324.3" y="225.0" width="34.7" height="171.0" rx="0" fill="#2f6fbb" stroke="none" opacity="1.0"/>
<rect x="367.8" y="237.7" width="34.7" height="158.3" rx="0" fill="#d49a3a" stroke="none" opacity="1.0"/>
<text x="363.4" y="420.0" class="axis" text-anchor="middle">среднев.</text>
<rect x="432.9" y="338.2" width="34.7" height="57.8" rx="0" fill="#2f6fbb" stroke="none" opacity="1.0"/>
<rect x="476.3" y="297.0" width="34.7" height="99.0" rx="0" fill="#d49a3a" stroke="none" opacity="1.0"/>
<text x="472.0" y="420.0" class="axis" text-anchor="middle">колон.</text>
<rect x="541.5" y="324.0" width="34.7" height="72.0" rx="0" fill="#2f6fbb" stroke="none" opacity="1.0"/>
<rect x="584.9" y="330.0" width="34.7" height="66.0" rx="0" fill="#d49a3a" stroke="none" opacity="1.0"/>
<text x="580.6" y="420.0" class="axis" text-anchor="middle">нов.</text>
<rect x="650.1" y="318.8" width="34.7" height="77.2" rx="0" fill="#2f6fbb" stroke="none" opacity="1.0"/>
<rect x="693.5" y="336.8" width="34.7" height="59.2" rx="0" fill="#d49a3a" stroke="none" opacity="1.0"/>
<text x="689.1" y="420.0" class="axis" text-anchor="middle">совр.</text>
<rect x="758.6" y="334.5" width="34.7" height="61.5" rx="0" fill="#2f6fbb" stroke="none" opacity="1.0"/>
<text x="776.0" y="327.5" class="label" text-anchor="middle">8.2</text>
<rect x="802.1" y="270.8" width="34.7" height="125.2" rx="0" fill="#d49a3a" stroke="none" opacity="1.0"/>
<text x="819.4" y="263.8" class="label" text-anchor="middle">16.7</text>
<text x="797.7" y="420.0" class="axis" text-anchor="middle">н/о</text>
<rect x="632.0" y="94.0" width="252.0" height="78.0" rx="5" fill="#ffffff" stroke="#d8e0e8" opacity="0.94"/>
<rect x="650.0" y="108.0" width="24.0" height="14.0" rx="0" fill="#2f6fbb" stroke="none" opacity="1.0"/>
<text x="684.0" y="120.0" class="small" text-anchor="start">до 2025</text>
<rect x="650.0" y="138.0" width="24.0" height="14.0" rx="0" fill="#d49a3a" stroke="none" opacity="1.0"/>
<text x="684.0" y="150.0" class="small" text-anchor="start">2025–2026</text>
<text x="34.0" y="472.0" class="subtitle" text-anchor="start">Главное изменение: снижение классического периода и рост тем без жесткой хронологической привязки.</text>
</svg>
